{
.appVersion = "1240";
DisplayStrings = (
"/uni06BC/uni067C  /uni067C.fina/uni067C/uni067C.init/uni0689/uni0689.fina/uni0693/uni0693.fina/uni06B0/uni06B0.fina/uni06B0.medi/uni06B0.init/uni06AB/uni06AB.fina/uni06AB.medi/uni06AB.init/uni06BC.fina/uni06BC.medi/uni06BC.init/uni06C4/uni06C4.fina/uni0620/uni0620.fina/uni0620.medi/uni0620.init"
);
classes = (
{
code = "uni0660 uni0661 uni0662 uni0663 uni0664 uni0665 uni0666 uni0667 uni0668 uni0669 uni06F0 uni06F1 uni06F2 uni06F3 uni06F4 uni06F5 uni06F6 uni06F7 uni06F8 uni06F9 uni06F4.locl uni06F7.locl";
name = tnum;
},
{

glyphs = (
{
glyphname = uni0621;
lastChange = "2019-12-19 08:47:14 +0000";
layers = (
{
anchors = (
{
name = bottom;
position = "{237, 49}";
},
{
name = top;
position = "{206, 461}";
}
);
layerId = master01;
paths = (
{
closed = 1;
nodes = (
"159 119 OFFCURVE",
"195 126 OFFCURVE",
"231 132 CURVE SMOOTH",
"267 138 OFFCURVE",
"324 144 OFFCURVE",
"372 149 CURVE SMOOTH",
"397 151 OFFCURVE",
"419 168 OFFCURVE",
"419 197 CURVE SMOOTH",
"419 209 OFFCURVE",
"414 221 OFFCURVE",
"404 232 CURVE",
"394 231 OFFCURVE",
"382 229 OFFCURVE",
"366 227 CURVE SMOOTH",
"336 222 OFFCURVE",
"301 216 OFFCURVE",
"269 207 CURVE SMOOTH",
"259 205 OFFCURVE",
"250 203 OFFCURVE",
"242 200 CURVE",
"223 205 OFFCURVE",
"199 214 OFFCURVE",
"184 222 CURVE SMOOTH",
"161 235 OFFCURVE",
"146 253 OFFCURVE",
"135 278 CURVE",
"163 315 OFFCURVE",
"209 342 OFFCURVE",
"248 342 CURVE SMOOTH",
"260 342 OFFCURVE",
"281 338 OFFCURVE",
"289 330 CURVE",
"288 320 OFFCURVE",
"286 313 OFFCURVE",
"281 305 CURVE",
"292 300 OFFCURVE",
"298 297 OFFCURVE",
"311 293 CURVE",
"318 305 OFFCURVE",
"323 323 OFFCURVE",
"323 338 CURVE SMOOTH",
"323 387 OFFCURVE",
"291 412 OFFCURVE",
"244 412 CURVE SMOOTH",
"228 412 OFFCURVE",
"213 408 OFFCURVE",
"199 402 CURVE SMOOTH",
"141 377 OFFCURVE",
"97 307 OFFCURVE",
"97 251 CURVE SMOOTH",
"97 228 OFFCURVE",
"109 206 OFFCURVE",
"127 188 CURVE SMOOTH",
"131 184 OFFCURVE",
"138 179 OFFCURVE",
"146 174 CURVE",
"106 160 OFFCURVE",
"79 150 OFFCURVE",
"54 140 CURVE",
"68 98 LINE"
);
}
);
width = 437;
},
{
anchors = (
{
name = bottom;
position = "{256, 54}";
},
{
name = top;
position = "{235, 520}";
}
);
layerId = "26E2967D-790C-4793-AF2A-2D0AD74EDC69";
paths = (
{
closed = 1;
nodes = (
"156 114 OFFCURVE",
"207 121 OFFCURVE",
"255 125 CURVE SMOOTH",
"305 131 OFFCURVE",
"349 133 OFFCURVE",
"379 136 CURVE SMOOTH",
"411 139 OFFCURVE",
"431 168 OFFCURVE",
"431 199 CURVE SMOOTH",
"431 221 OFFCURVE",
"419 244 OFFCURVE",
"408 256 CURVE",
"398 255 OFFCURVE",
"386 253 OFFCURVE",
"374 251 CURVE SMOOTH",
"350 247 OFFCURVE",
"325 242 OFFCURVE",
"301 237 CURVE SMOOTH",
"292 235 OFFCURVE",
"282 232 OFFCURVE",
"273 230 CURVE",
"260 230 OFFCURVE",
"233 235 OFFCURVE",
"221 239 CURVE SMOOTH",
"195 246 OFFCURVE",
"178 256 OFFCURVE",
"159 280 CURVE",
"192 326 OFFCURVE",
"224 340 OFFCURVE",
"255 340 CURVE SMOOTH",
"265 340 OFFCURVE",
"277 338 OFFCURVE",
"290 333 CURVE",
"288 324 OFFCURVE",
"287 317 OFFCURVE",
"285 309 CURVE",
"295 303 OFFCURVE",
"312 296 OFFCURVE",
"330 291 CURVE",
"347 309 OFFCURVE",
"354 336 OFFCURVE",
"354 356 CURVE SMOOTH",
"354 411 OFFCURVE",
"312 447 OFFCURVE",
"260 447 CURVE SMOOTH",
"246 447 OFFCURVE",
"233 444 OFFCURVE",
"220 438 CURVE SMOOTH",
"156 407 OFFCURVE",
"108 321 OFFCURVE",
"108 253 CURVE SMOOTH",
"108 234 OFFCURVE",
"114 217 OFFCURVE",
"125 201 CURVE SMOOTH",
"130 195 OFFCURVE",
"135 189 OFFCURVE",
"141 184 CURVE",
"131 180 OFFCURVE",
"85 160 OFFCURVE",
"68 152 CURVE",
"85 103 LINE"
);
}
);
width = 452;
}
);
unicode = "0621,FE80";
},
{
glyphname = uni0627;
lastChange = "2019-12-19 09:13:17 +0000";
layers = (
{
anchors = (
{
name = bottom;
position = "{131, 83}";
},
{
name = top;
position = "{122, 825}";
}
);
layerId = master01;
paths = (
{
closed = 1;
nodes = (
"150 143 LINE",
"159 365 OFFCURVE",
"159 515 OFFCURVE",
"151 664 CURVE",
"178 687 LINE",
"162 734 OFFCURVE",
"148 780 OFFCURVE",
"143 806 CURVE",
"91 796 OFFCURVE",
"72 771 OFFCURVE",
"77 717 CURVE SMOOTH",
"92 563 OFFCURVE",
"100 369 OFFCURVE",
"104 135 CURVE"
);
}
);
width = 238;
},
{
anchors = (
{
name = bottom;
position = "{151, 97}";
},
{
name = top;
position = "{142, 834}";
}
);
layerId = "26E2967D-790C-4793-AF2A-2D0AD74EDC69";
paths = (
{
closed = 1;
nodes = (
"185 152 LINE",
"192 380 OFFCURVE",
"193 555 OFFCURVE",
"190 666 CURVE",
"225 692 LINE",
"209 732 OFFCURVE",
"195 773 OFFCURVE",
"184 815 CURVE",
"124 815 OFFCURVE",
"71 780 OFFCURVE",
"77 730 CURVE SMOOTH",
"96 539 OFFCURVE",
"107 419 OFFCURVE",
"121 144 CURVE"
);
}
);
width = 284;
}
);
unicode = "0627,FE8D";
},
{
glyphname = uniFE8E;
lastChange = "2019-12-19 09:11:32 +0000";
layers = (
{
anchors = (
{
name = bottom;
position = "{173, 83}";
},
{
name = top;
position = "{113, 825}";
}
);
layerId = master01;
paths = (
{
closed = 1;
nodes = (
"267 135 OFFCURVE",
"270 138 OFFCURVE",
"270 143 CURVE SMOOTH",
"270 203 LINE SMOOTH",
"270 208 OFFCURVE",
"267 211 OFFCURVE",
"262 211 CURVE SMOOTH",
"224 211 OFFCURVE",
"189 220 OFFCURVE",
"158 237 CURVE",
"155 304 LINE SMOOTH",
"152 510 OFFCURVE",
"150 650 OFFCURVE",
"144 806 CURVE",
"117 788 OFFCURVE",
"95 769 OFFCURVE",
"76 750 CURVE",
"98 447 OFFCURVE",
"109 317 OFFCURVE",
"120 222 CURVE SMOOTH",
"126 168 OFFCURVE",
"183 135 OFFCURVE",
"262 135 CURVE SMOOTH"
);
}
);
width = 253;
},
{
anchors = (
{
name = bottom;
position = "{173, 77}";
},
{
name = top;
position = "{128, 834}";
}
);
layerId = "26E2967D-790C-4793-AF2A-2D0AD74EDC69";
paths = (
{
closed = 1;
nodes = (
"302 144 OFFCURVE",
"305 147 OFFCURVE",
"305 152 CURVE SMOOTH",
"305 254 LINE SMOOTH",
"305 259 OFFCURVE",
"303 262 OFFCURVE",
"299 262 CURVE SMOOTH",
"262 262 OFFCURVE",
"237 268 OFFCURVE",
"213 288 CURVE",
"209 366 LINE SMOOTH",
"205 516 OFFCURVE",
"200 665 OFFCURVE",
"195 815 CURVE",
"154 796 OFFCURVE",
"114 774 OFFCURVE",
"76 749 CURVE",
"86 672 OFFCURVE",
"116 357 OFFCURVE",
"124 294 CURVE SMOOTH",
"133 209 OFFCURVE",
"176 144 OFFCURVE",
"297 144 CURVE SMOOTH"
);
}
);
width = 288;
}
);
unicode = FE8E;
},
{
glyphname = uniFE8E.rlig;
lastChange = "2019-12-19 08:47:14 +0000";
layers = (
{
anchors = (
{
name = bottom;
position = "{202, 83}";
},
{
name = top;
position = "{64, 727}";
}
);
layerId = master01;
paths = (
{
closed = 1;
nodes = (
"157 135 OFFCURVE",
"246 136 OFFCURVE",
"270 137 CURVE SMOOTH",
"316 138 OFFCURVE",
"405 147 OFFCURVE",
"436 152 CURVE SMOOTH",
"447 154 OFFCURVE",
"466 204 OFFCURVE",
"466 219 CURVE SMOOTH",
"466 248 OFFCURVE",
"385 382 OFFCURVE",
"349 425 CURVE SMOOTH",
"304 479 OFFCURVE",
"237 542 OFFCURVE",
"177 593 CURVE SMOOTH",
"136 628 OFFCURVE",
"98 658 OFFCURVE",
"69 678 CURVE",
"40 663 OFFCURVE",
"34 642 OFFCURVE",
"34 620 CURVE SMOOTH",
"34 590 OFFCURVE",
"59 559 OFFCURVE",
"83 537 CURVE",
"120 539 LINE",
"183 503 OFFCURVE",
"247 451 OFFCURVE",
"301 395 CURVE SMOOTH",
"355 340 OFFCURVE",
"400 281 OFFCURVE",
"427 231 CURVE",
"379 223 OFFCURVE",
"328 218 OFFCURVE",
"280 215 CURVE SMOOTH",
"232 212 OFFCURVE",
"187 211 OFFCURVE",
"149 211 CURVE SMOOTH",
"144 211 OFFCURVE",
"134 165 OFFCURVE",
"134 146 CURVE SMOOTH",
"134 141 OFFCURVE",
"135 137 OFFCURVE",
"137 135 CURVE"
);
}
);
width = 0;
},
{
anchors = (
{
name = bottom;
position = "{202, 83}";
},
{
name = top;
position = "{64, 727}";
}
);
layerId = "26E2967D-790C-4793-AF2A-2D0AD74EDC69";
paths = (
{
closed = 1;
nodes = (
"166 135 OFFCURVE",
"257 137 OFFCURVE",
"282 138 CURVE SMOOTH",
"337 140 OFFCURVE",
"417 145 OFFCURVE",
"456 152 CURVE SMOOTH",
"465 155 OFFCURVE",
"496 235 OFFCURVE",
"496 254 CURVE SMOOTH",
"496 275 OFFCURVE",
"431 364 OFFCURVE",
"391 415 CURVE SMOOTH",
"344 475 OFFCURVE",
"258 561 OFFCURVE",
"191 621 CURVE SMOOTH",
"154 655 OFFCURVE",
"119 684 OFFCURVE",
"89 704 CURVE",
"56 685 OFFCURVE",
"34 656 OFFCURVE",
"34 619 CURVE SMOOTH",
"34 576 OFFCURVE",
"58 547 OFFCURVE",
"93 530 CURVE",
"130 532 LINE",
"200 489 OFFCURVE",
"251 451 OFFCURVE",
"296 410 CURVE SMOOTH",
"342 369 OFFCURVE",
"382 323 OFFCURVE",
"430 265 CURVE",
"383 257 OFFCURVE",
"332 252 OFFCURVE",
"284 249 CURVE SMOOTH",
"236 246 OFFCURVE",
"190 245 OFFCURVE",
"153 245 CURVE SMOOTH",
"146 245 OFFCURVE",
"137 175 OFFCURVE",
"137 147 CURVE SMOOTH",
"137 140 OFFCURVE",
"138 135 OFFCURVE",
"140 135 CURVE SMOOTH"
);
}
);
width = 0;
}
);
},
{
glyphname = uni066E;
lastChange = "2019-12-19 09:33:35 +0000";
layers = (
{
anchors = (
{
name = bottom;
position = "{378, 83}";
},
{
name = top;
position = "{365, 503}";
}
);
layerId = master01;
paths = (
{
closed = 1;
nodes = (
"472 135 OFFCURVE",
"600 168 OFFCURVE",
"688 224 CURVE",
"711 269 OFFCURVE",
"723 303 OFFCURVE",
"723 326 CURVE SMOOTH",
"723 374 OFFCURVE",
"707 444 OFFCURVE",
"686 543 CURVE",
"643 519 OFFCURVE",
"620 487 OFFCURVE",
"620 459 CURVE SMOOTH",
"620 448 OFFCURVE",
"626 426 OFFCURVE",
"639 392 CURVE SMOOTH",
"656 346 OFFCURVE",
"668 310 OFFCURVE",
"675 282 CURVE",
"583 238 OFFCURVE",
"459 211 OFFCURVE",
"335 211 CURVE SMOOTH",
"282 211 OFFCURVE",
"240 217 OFFCURVE",
"208 228 CURVE SMOOTH",
"144 250 OFFCURVE",
"116 288 OFFCURVE",
"116 366 CURVE SMOOTH",
"116 382 OFFCURVE",
"118 410 OFFCURVE",
"119 415 CURVE",
"83 415 LINE",
"74 383 OFFCURVE",
"70 347 OFFCURVE",
"70 305 CURVE SMOOTH",
"70 191 OFFCURVE",
"157 135 OFFCURVE",
"314 135 CURVE SMOOTH"
);
}
);
width = 772;
},
{
anchors = (
{
name = bottom;
position = "{378, 77}";
},
{
name = top;
position = "{365, 563}";
}
);
layerId = "26E2967D-790C-4793-AF2A-2D0AD74EDC69";
paths = (
{
closed = 1;
nodes = (
"458 135 OFFCURVE",
"606 172 OFFCURVE",
"694 225 CURVE",
"715 263 OFFCURVE",
"733 315 OFFCURVE",
"733 346 CURVE SMOOTH",
"733 369 OFFCURVE",
"723 428 OFFCURVE",
"692 578 CURVE",
"642 553 OFFCURVE",
"601 509 OFFCURVE",
"601 477 CURVE SMOOTH",
"601 459 OFFCURVE",
"611 439 OFFCURVE",
"625 413 CURVE SMOOTH",
"637 391 OFFCURVE",
"661 347 OFFCURVE",
"675 317 CURVE",
"583 276 OFFCURVE",
"467 254 OFFCURVE",
"351 254 CURVE SMOOTH",
"299 254 OFFCURVE",
"256 260 OFFCURVE",
"224 270 CURVE SMOOTH",
"160 292 OFFCURVE",
"131 330 OFFCURVE",
"131 408 CURVE SMOOTH",
"131 421 OFFCURVE",
"133 452 OFFCURVE",
"134 458 CURVE",
"89 458 LINE",
"76 412 OFFCURVE",
"70 376 OFFCURVE",
"70 348 CURVE SMOOTH",
"70 210 OFFCURVE",
"153 135 OFFCURVE",
"314 135 CURVE SMOOTH"
);
}
);
width = 806;
}
);
unicode = 066E;
},
{
glyphname = uni066E.fina;
lastChange = "2019-12-19 08:47:14 +0000";
layers = (
{
anchors = (
{
name = bottom;
position = "{458, 83}";
},
{
name = top;
position = "{404, 440}";
}
);
layerId = master01;
paths = (
{
closed = 1;
nodes = (
"453 135 OFFCURVE",
"575 162 OFFCURVE",
"656 206 CURVE",
"703 159 OFFCURVE",
"760 135 OFFCURVE",
"827 135 CURVE SMOOTH",
"833 135 OFFCURVE",
"835 138 OFFCURVE",
"835 143 CURVE SMOOTH",
"835 203 LINE SMOOTH",
"835 208 OFFCURVE",
"833 211 OFFCURVE",
"827 211 CURVE SMOOTH",
"777 211 OFFCURVE",
"741 223 OFFCURVE",
"696 253 CURVE",
"707 269 OFFCURVE",
"720 300 OFFCURVE",
"738 344 CURVE",
"732 349 OFFCURVE",
"724 351 OFFCURVE",
"714 351 CURVE SMOOTH",
"699 351 OFFCURVE",
"689 346 OFFCURVE",
"683 336 CURVE SMOOTH",
"662 299 OFFCURVE",
"656 283 OFFCURVE",
"633 266 CURVE SMOOTH",
"599 242 OFFCURVE",
"447 211 OFFCURVE",
"335 211 CURVE SMOOTH",
"282 211 OFFCURVE",
"240 217 OFFCURVE",
"208 228 CURVE SMOOTH",
"144 250 OFFCURVE",
"116 288 OFFCURVE",
"116 366 CURVE SMOOTH",
"116 382 OFFCURVE",
"118 410 OFFCURVE",
"119 415 CURVE",
"83 415 LINE",
"74 383 OFFCURVE",
"70 347 OFFCURVE",
"70 305 CURVE SMOOTH",
"70 191 OFFCURVE",
"157 135 OFFCURVE",
"314 135 CURVE SMOOTH"
);
}
);
width = 817;
},
{
anchors = (
{
name = bottom;
position = "{458, 77}";
},
{
name = top;
position = "{404, 482}";
}
);
layerId = "26E2967D-790C-4793-AF2A-2D0AD74EDC69";
paths = (
{
closed = 1;
nodes = (
"470 135 OFFCURVE",
"607 166 OFFCURVE",
"674 220 CURVE",
"730 164 OFFCURVE",
"776 144 OFFCURVE",
"827 144 CURVE SMOOTH",
"833 144 OFFCURVE",
"835 147 OFFCURVE",
"835 152 CURVE SMOOTH",
"835 254 LINE SMOOTH",
"835 260 OFFCURVE",
"833 262 OFFCURVE",
"827 262 CURVE SMOOTH",
"783 262 OFFCURVE",
"754 272 OFFCURVE",
"720 289 CURVE",
"738 321 OFFCURVE",
"753 355 OFFCURVE",
"766 391 CURVE",
"755 400 OFFCURVE",
"742 405 OFFCURVE",
"726 405 CURVE SMOOTH",
"705 405 OFFCURVE",
"691 399 OFFCURVE",
"672 359 CURVE SMOOTH",
"657 325 OFFCURVE",
"649 314 OFFCURVE",
"636 302 CURVE SMOOTH",
"599 273 OFFCURVE",
"491 254 OFFCURVE",
"351 254 CURVE SMOOTH",
"299 254 OFFCURVE",
"256 260 OFFCURVE",
"224 270 CURVE SMOOTH",
"160 292 OFFCURVE",
"131 330 OFFCURVE",
"131 408 CURVE SMOOTH",
"131 421 OFFCURVE",
"133 452 OFFCURVE",
"134 458 CURVE",
"89 458 LINE",
"76 412 OFFCURVE",
"70 376 OFFCURVE",
"70 348 CURVE SMOOTH",
"70 206 OFFCURVE",
"151 135 OFFCURVE",
"314 135 CURVE SMOOTH"
);
}
);
width = 817;
}
);
},
{
glyphname = uni066E.medi;
lastChange = "2019-12-19 08:47:14 +0000";
layers = (
{
anchors = (
{
name = bottom;
position = "{169, 83}";
},
{
name = top;
position = "{148, 411}";
}
);
layerId = master01;
paths = (
{
closed = 1;
nodes = (
"55 135 OFFCURVE",
"113 155 OFFCURVE",
"126 172 CURVE SMOOTH",
"132 179 OFFCURVE",
"138 186 OFFCURVE",
"143 194 CURVE",
"186 155 OFFCURVE",
"239 135 OFFCURVE",
"301 135 CURVE SMOOTH",
"306 135 OFFCURVE",
"309 138 OFFCURVE",
"309 143 CURVE SMOOTH",
"309 203 LINE SMOOTH",
"309 208 OFFCURVE",
"306 211 OFFCURVE",
"301 211 CURVE SMOOTH",
"255 211 OFFCURVE",
"222 221 OFFCURVE",
"175 249 CURVE",
"193 284 OFFCURVE",
"209 320 OFFCURVE",
"224 355 CURVE",
"216 360 OFFCURVE",
"208 363 OFFCURVE",
"199 363 CURVE SMOOTH",
"185 363 OFFCURVE",
"174 357 OFFCURVE",
"168 346 CURVE SMOOTH",
"132 278 OFFCURVE",
"116 250 OFFCURVE",
"104 239 CURVE SMOOTH",
"84 221 OFFCURVE",
"49 211 OFFCURVE",
"0 211 CURVE SMOOTH",
"-6 211 OFFCURVE",
"-8 208 OFFCURVE",
"-8 203 CURVE SMOOTH",
"-8 143 LINE SMOOTH",
"-8 138 OFFCURVE",
"-6 135 OFFCURVE",
"0 135 CURVE SMOOTH"
);
}
);
width = 292;
},
{
anchors = (
{
name = bottom;
position = "{174, 77}";
},
{
name = top;
position = "{148, 479}";
}
);
layerId = "26E2967D-790C-4793-AF2A-2D0AD74EDC69";
paths = (
{
closed = 1;
nodes = (
"68 144 OFFCURVE",
"116 160 OFFCURVE",
"134 180 CURVE SMOOTH",
"141 189 OFFCURVE",
"148 199 OFFCURVE",
"156 213 CURVE",
"202 167 OFFCURVE",
"250 144 OFFCURVE",
"301 144 CURVE SMOOTH",
"306 144 OFFCURVE",
"309 147 OFFCURVE",
"309 152 CURVE SMOOTH",
"309 254 LINE SMOOTH",
"309 260 OFFCURVE",
"306 262 OFFCURVE",
"301 262 CURVE SMOOTH",
"262 262 OFFCURVE",
"227 271 OFFCURVE",
"195 288 CURVE",
"210 322 OFFCURVE",
"225 357 OFFCURVE",
"240 391 CURVE",
"229 400 OFFCURVE",
"216 405 OFFCURVE",
"200 405 CURVE SMOOTH",
"178 405 OFFCURVE",
"165 401 OFFCURVE",
"144 358 CURVE SMOOTH",
"127 324 OFFCURVE",
"115 298 OFFCURVE",
"98 286 CURVE SMOOTH",
"76 270 OFFCURVE",
"43 262 OFFCURVE",
"0 262 CURVE SMOOTH",
"-6 262 OFFCURVE",
"-8 260 OFFCURVE",
"-8 254 CURVE SMOOTH",
"-8 152 LINE SMOOTH",
"-8 147 OFFCURVE",
"-6 144 OFFCURVE",
"0 144 CURVE SMOOTH"
);
}
);
width = 292;
}
);
},
{
glyphname = uni066E.init;
lastChange = "2019-12-19 09:33:47 +0000";
layers = (
{
anchors = (
{
name = bottom;
position = "{127, 83}";
},
{
name = top;
position = "{139, 558}";
}
);
layerId = master01;
paths = (
{
closed = 1;
nodes = (
"65 135 OFFCURVE",
"128 153 OFFCURVE",
"189 190 CURVE",
"212 232 OFFCURVE",
"225 272 OFFCURVE",
"225 292 CURVE SMOOTH",
"225 316 OFFCURVE",
"220 350 OFFCURVE",
"210 394 CURVE SMOOTH",
"198 452 OFFCURVE",
"190 490 OFFCURVE",
"187 509 CURVE",
"147 487 OFFCURVE",
"122 454 OFFCURVE",
"122 425 CURVE SMOOTH",
"122 414 OFFCURVE",
"128 392 OFFCURVE",
"141 358 CURVE SMOOTH",
"156 315 OFFCURVE",
"168 279 OFFCURVE",
"177 248 CURVE",
"129 226 OFFCURVE",
"61 211 OFFCURVE",
"0 211 CURVE SMOOTH",
"-6 211 OFFCURVE",
"-8 208 OFFCURVE",
"-8 203 CURVE SMOOTH",
"-8 143 LINE SMOOTH",
"-8 138 OFFCURVE",
"-6 135 OFFCURVE",
"0 135 CURVE SMOOTH"
);
}
);
width = 275;
},
{
anchors = (
{
name = bottom;
position = "{127, 77}";
},
{
name = top;
position = "{139, 595}";
}
);
layerId = "26E2967D-790C-4793-AF2A-2D0AD74EDC69";
paths = (
{
closed = 1;
nodes = (
"71 144 OFFCURVE",
"137 162 OFFCURVE",
"198 199 CURVE",
"219 240 OFFCURVE",
"237 289 OFFCURVE",
"237 320 CURVE SMOOTH",
"237 333 OFFCURVE",
"233 360 OFFCURVE",
"226 401 CURVE SMOOTH",
"226 400 OFFCURVE",
"195 552 OFFCURVE",
"195 552 CURVE",
"146 527 OFFCURVE",
"104 483 OFFCURVE",
"104 450 CURVE SMOOTH",
"104 433 OFFCURVE",
"114 412 OFFCURVE",
"128 387 CURVE SMOOTH",
"140 365 OFFCURVE",
"165 322 OFFCURVE",
"178 291 CURVE",
"141 275 OFFCURVE",
"66 262 OFFCURVE",
"0 262 CURVE SMOOTH",
"-6 262 OFFCURVE",
"-8 260 OFFCURVE",
"-8 254 CURVE SMOOTH",
"-8 152 LINE SMOOTH",
"-8 147 OFFCURVE",
"-6 144 OFFCURVE",
"0 144 CURVE SMOOTH"
);
}
);
width = 275;
}
);
},
{
glyphname = uni062D;
lastChange = "2019-12-19 13:26:29 +0000";
layers = (
{
anchors = (
{
name = bottom;
position = "{77, -147}";
},
{
name = top;
position = "{342, 565}";
}
);
layerId = master01;
paths = (
{
closed = 1;
nodes = (
"438 -152 OFFCURVE",
"521 -129 OFFCURVE",
"619 -75 CURVE",
"607 -42 LINE",
"527 -60 OFFCURVE",
"445 -70 OFFCURVE",
"363 -70 CURVE SMOOTH",
"210 -70 OFFCURVE",
"136 -12 OFFCURVE",
"136 93 CURVE SMOOTH",
"136 159 OFFCURVE",
"178 222 OFFCURVE",
"251 273 CURVE SMOOTH",
"324 324 OFFCURVE",
"429 361 OFFCURVE",
"512 367 CURVE",
"530 367 OFFCURVE",
"549 368 OFFCURVE",
"568 371 CURVE",
"597 448 LINE",
"531 446 LINE SMOOTH",
"469 446 OFFCURVE",
"413 464 OFFCURVE",
"357 481 CURVE SMOOTH",
"301 498 OFFCURVE",
"246 516 OFFCURVE",
"189 516 CURVE SMOOTH",
"117 516 OFFCURVE",
"68 482 OFFCURVE",
"68 432 CURVE SMOOTH",
"68 416 OFFCURVE",
"75 401 OFFCURVE",
"83 394 CURVE",
"131 424 OFFCURVE",
"152 432 OFFCURVE",
"192 432 CURVE SMOOTH",
"235 432 OFFCURVE",
"309 405 OFFCURVE",
"333 396 CURVE",
"291 380 OFFCURVE",
"252 356 OFFCURVE",
"216 325 CURVE SMOOTH",
"144 262 OFFCURVE",
"101 176 OFFCURVE",
"101 93 CURVE SMOOTH",
"101 -66 OFFCURVE",
"195 -152 OFFCURVE",
"360 -152 CURVE SMOOTH"
);
}
);
width = 636;
},
{
anchors = (
{
name = bottom;
position = "{88, -152}";
},
{
name = top;
position = "{342, 618}";
}
);
layerId = "26E2967D-790C-4793-AF2A-2D0AD74EDC69";
paths = (
{
closed = 1;
nodes = (
"415 -153 OFFCURVE",
"520 -112 OFFCURVE",
"630 -49 CURVE",
"616 -7 LINE",
"523 -28 OFFCURVE",
"443 -38 OFFCURVE",
"375 -38 CURVE SMOOTH",
"247 -38 OFFCURVE",
"156 16 OFFCURVE",
"156 106 CURVE SMOOTH",
"156 162 OFFCURVE",
"190 216 OFFCURVE",
"249 263 CURVE SMOOTH",
"308 310 OFFCURVE",
"397 348 OFFCURVE",
"464 359 CURVE",
"497 356 OFFCURVE",
"559 357 OFFCURVE",
"585 361 CURVE",
"626 473 LINE",
"535 471 LINE SMOOTH",
"484 471 OFFCURVE",
"433 482 OFFCURVE",
"361 509 CURVE SMOOTH",
"287 535 OFFCURVE",
"245 545 OFFCURVE",
"201 545 CURVE SMOOTH",
"119 545 OFFCURVE",
"68 507 OFFCURVE",
"68 447 CURVE SMOOTH",
"68 425 OFFCURVE",
"79 399 OFFCURVE",
"91 387 CURVE",
"138 416 OFFCURVE",
"160 426 OFFCURVE",
"199 426 CURVE SMOOTH",
"236 426 OFFCURVE",
"272 412 OFFCURVE",
"318 395 CURVE",
"277 375 OFFCURVE",
"242 350 OFFCURVE",
"212 322 CURVE SMOOTH",
"143 259 OFFCURVE",
"105 177 OFFCURVE",
"105 91 CURVE SMOOTH",
"105 -62 OFFCURVE",
"204 -153 OFFCURVE",
"373 -153 CURVE SMOOTH"
);
}
);
width = 655;
}
);
unicode = "062D,FEA1";
},
{
glyphname = uniFEA2;
lastChange = "2019-12-19 13:26:29 +0000";
layers = (
{
anchors = (
{
name = bottom;
position = "{77, -147}";
},
{
name = top;
position = "{342, 543}";
}
);
layerId = master01;
paths = (
{
closed = 1;
nodes = (
"399 -151 OFFCURVE",
"483 -123 OFFCURVE",
"572 -68 CURVE",
"558 -35 LINE",
"474 -59 OFFCURVE",
"403 -71 OFFCURVE",
"346 -71 CURVE SMOOTH",
"212 -71 OFFCURVE",
"136 -18 OFFCURVE",
"136 75 CURVE SMOOTH",
"136 106 OFFCURVE",
"146 135 OFFCURVE",
"163 162 CURVE SMOOTH",
"206 228 OFFCURVE",
"296 281 OFFCURVE",
"417 309 CURVE",
"429 265 OFFCURVE",
"445 230 OFFCURVE",
"465 205 CURVE SMOOTH",
"503 156 OFFCURVE",
"556 135 OFFCURVE",
"675 135 CURVE SMOOTH",
"680 135 OFFCURVE",
"683 138 OFFCURVE",
"683 143 CURVE SMOOTH",
"683 203 LINE SMOOTH",
"683 208 OFFCURVE",
"680 211 OFFCURVE",
"675 211 CURVE SMOOTH",
"620 211 OFFCURVE",
"581 213 OFFCURVE",
"552 219 CURVE SMOOTH",
"499 231 OFFCURVE",
"488 246 OFFCURVE",
"457 316 CURVE",
"475 319 OFFCURVE",
"491 320 OFFCURVE",
"509 320 CURVE SMOOTH",
"529 321 OFFCURVE",
"549 322 OFFCURVE",
"568 324 CURVE",
"597 401 LINE",
"531 399 LINE SMOOTH",
"477 399 OFFCURVE",
"414 415 OFFCURVE",
"345 447 CURVE SMOOTH",
"266 482 OFFCURVE",
"227 494 OFFCURVE",
"189 494 CURVE SMOOTH",
"117 494 OFFCURVE",
"68 461 OFFCURVE",
"68 411 CURVE SMOOTH",
"68 395 OFFCURVE",
"73 382 OFFCURVE",
"83 372 CURVE",
"131 403 OFFCURVE",
"151 411 OFFCURVE",
"192 411 CURVE SMOOTH",
"207 411 OFFCURVE",
"224 408 OFFCURVE",
"243 401 CURVE SMOOTH",
"266 393 OFFCURVE",
"297 380 OFFCURVE",
"353 355 CURVE",
"291 334 OFFCURVE",
"238 302 OFFCURVE",
"197 265 CURVE SMOOTH",
"135 209 OFFCURVE",
"100 138 OFFCURVE",
"100 64 CURVE SMOOTH",
"100 -65 OFFCURVE",
"187 -151 OFFCURVE",
"321 -151 CURVE SMOOTH"
);
}
);
width = 666;
},
{
anchors = (
{
name = bottom;
position = "{77, -147}";
},
{
name = top;
position = "{342, 580}";
}
);
layerId = "26E2967D-790C-4793-AF2A-2D0AD74EDC69";
paths = (
{
closed = 1;
nodes = (
"405 -156 OFFCURVE",
"453 -131 OFFCURVE",
"581 -57 CURVE",
"567 -14 LINE",
"487 -32 OFFCURVE",
"424 -41 OFFCURVE",
"375 -41 CURVE SMOOTH",
"234 -41 OFFCURVE",
"156 5 OFFCURVE",
"156 96 CURVE SMOOTH",
"156 130 OFFCURVE",
"169 162 OFFCURVE",
"194 193 CURVE SMOOTH",
"245 254 OFFCURVE",
"346 302 OFFCURVE",
"451 322 CURVE",
"468 269 OFFCURVE",
"486 232 OFFCURVE",
"506 208 CURVE SMOOTH",
"546 161 OFFCURVE",
"604 144 OFFCURVE",
"732 144 CURVE SMOOTH",
"738 144 OFFCURVE",
"741 147 OFFCURVE",
"741 152 CURVE SMOOTH",
"741 254 LINE SMOOTH",
"741 260 OFFCURVE",
"738 262 OFFCURVE",
"732 262 CURVE SMOOTH",
"660 262 OFFCURVE",
"613 263 OFFCURVE",
"592 266 CURVE SMOOTH",
"542 271 OFFCURVE",
"528 281 OFFCURVE",
"505 319 CURVE",
"515 319 OFFCURVE",
"525 319 OFFCURVE",
"535 319 CURVE SMOOTH",
"545 319 OFFCURVE",
"569 320 OFFCURVE",
"585 322 CURVE",
"626 434 LINE",
"535 433 LINE SMOOTH",
"484 433 OFFCURVE",
"433 443 OFFCURVE",
"361 470 CURVE SMOOTH",
"287 497 OFFCURVE",
"245 507 OFFCURVE",
"201 507 CURVE SMOOTH",
"118 507 OFFCURVE",
"68 468 OFFCURVE",
"68 408 CURVE SMOOTH",
"68 387 OFFCURVE",
"79 360 OFFCURVE",
"91 348 CURVE",
"146 382 OFFCURVE",
"169 387 OFFCURVE",
"205 387 CURVE SMOOTH",
"223 387 OFFCURVE",
"242 384 OFFCURVE",
"262 377 CURVE SMOOTH",
"281 370 OFFCURVE",
"299 364 OFFCURVE",
"318 357 CURVE",
"278 341 OFFCURVE",
"242 319 OFFCURVE",
"209 292 CURVE SMOOTH",
"144 237 OFFCURVE",
"105 167 OFFCURVE",
"105 86 CURVE SMOOTH",
"105 -71 OFFCURVE",
"194 -156 OFFCURVE",
"370 -156 CURVE SMOOTH"
);
}
);
width = 724;
}
);
unicode = FEA2;
},
{
glyphname = uniFEA4;
lastChange = "2019-12-19 08:47:14 +0000";
layers = (
{
anchors = (
{
name = bottom;
position = "{318, 83}";
},
{
name = top;
position = "{323, 524}";
}
);
layerId = master01;
paths = (
{
closed = 1;
nodes = (
"165 135 OFFCURVE",
"220 148 OFFCURVE",
"319 199 CURVE SMOOTH",
"355 218 OFFCURVE",
"391 241 OFFCURVE",
"427 254 CURVE",
"443 220 OFFCURVE",
"461 196 OFFCURVE",
"480 180 CURVE SMOOTH",
"518 149 OFFCURVE",
"575 136 OFFCURVE",
"674 135 CURVE SMOOTH",
"680 135 OFFCURVE",
"683 138 OFFCURVE",
"683 143 CURVE SMOOTH",
"683 203 LINE SMOOTH",
"683 208 OFFCURVE",
"680 211 OFFCURVE",
"674 211 CURVE SMOOTH",
"600 211 OFFCURVE",
"552 214 OFFCURVE",
"528 220 CURVE SMOOTH",
"501 227 OFFCURVE",
"486 241 OFFCURVE",
"472 265 CURVE",
"495 262 OFFCURVE",
"547 258 OFFCURVE",
"563 257 CURVE",
"602 331 LINE",
"553 331 OFFCURVE",
"516 334 OFFCURVE",
"491 340 CURVE SMOOTH",
"442 351 OFFCURVE",
"398 373 OFFCURVE",
"329 420 CURVE SMOOTH",
"271 460 OFFCURVE",
"232 475 OFFCURVE",
"189 475 CURVE SMOOTH",
"117 475 OFFCURVE",
"69 441 OFFCURVE",
"69 391 CURVE SMOOTH",
"69 375 OFFCURVE",
"74 362 OFFCURVE",
"83 352 CURVE",
"132 383 OFFCURVE",
"152 391 OFFCURVE",
"193 391 CURVE SMOOTH",
"227 391 OFFCURVE",
"258 377 OFFCURVE",
"310 339 CURVE SMOOTH",
"335 320 OFFCURVE",
"361 305 OFFCURVE",
"387 293 CURVE",
"363 288 OFFCURVE",
"330 276 OFFCURVE",
"287 257 CURVE SMOOTH",
"213 224 OFFCURVE",
"125 211 OFFCURVE",
"0 211 CURVE SMOOTH",
"-6 211 OFFCURVE",
"-8 208 OFFCURVE",
"-8 203 CURVE SMOOTH",
"-8 143 LINE SMOOTH",
"-8 138 OFFCURVE",
"-6 135 OFFCURVE",
"0 135 CURVE SMOOTH"
);
}
);
width = 666;
},
{
anchors = (
{
name = bottom;
position = "{318, 77}";
},
{
name = top;
position = "{289, 580}";
}
);
layerId = "26E2967D-790C-4793-AF2A-2D0AD74EDC69";
paths = (
{
closed = 1;
nodes = (
"137 144 OFFCURVE",
"215 144 OFFCURVE",
"311 208 CURVE SMOOTH",
"371 248 OFFCURVE",
"391 264 OFFCURVE",
"429 272 CURVE",
"437 239 OFFCURVE",
"445 196 OFFCURVE",
"472 176 CURVE SMOOTH",
"502 155 OFFCURVE",
"594 144 OFFCURVE",
"666 144 CURVE SMOOTH",
"671 144 OFFCURVE",
"674 147 OFFCURVE",
"674 152 CURVE SMOOTH",
"674 254 LINE SMOOTH",
"674 260 OFFCURVE",
"671 262 OFFCURVE",
"666 262 CURVE SMOOTH",
"636 263 OFFCURVE",
"602 264 OFFCURVE",
"572 265 CURVE SMOOTH",
"552 267 OFFCURVE",
"536 271 OFFCURVE",
"523 283 CURVE",
"539 282 OFFCURVE",
"555 282 OFFCURVE",
"571 281 CURVE",
"615 365 LINE",
"566 365 OFFCURVE",
"524 370 OFFCURVE",
"490 378 CURVE SMOOTH",
"421 396 OFFCURVE",
"377 419 OFFCURVE",
"317 460 CURVE SMOOTH",
"268 493 OFFCURVE",
"232 507 OFFCURVE",
"189 507 CURVE SMOOTH",
"110 507 OFFCURVE",
"52 466 OFFCURVE",
"52 408 CURVE SMOOTH",
"52 387 OFFCURVE",
"63 360 OFFCURVE",
"75 348 CURVE",
"120 377 OFFCURVE",
"153 387 OFFCURVE",
"193 387 CURVE SMOOTH",
"222 387 OFFCURVE",
"247 376 OFFCURVE",
"290 348 CURVE SMOOTH",
"308 336 OFFCURVE",
"326 324 OFFCURVE",
"344 314 CURVE",
"321 309 OFFCURVE",
"280 298 OFFCURVE",
"223 281 CURVE SMOOTH",
"159 262 OFFCURVE",
"97 262 OFFCURVE",
"0 262 CURVE SMOOTH",
"-6 262 OFFCURVE",
"-8 260 OFFCURVE",
"-8 254 CURVE SMOOTH",
"-8 152 LINE SMOOTH",
"-8 147 OFFCURVE",
"-6 144 OFFCURVE",
"0 144 CURVE SMOOTH"
);
}
);
width = 657;
}
);
unicode = FEA4;
},
{
glyphname = uniFEA3;
lastChange = "2019-12-19 08:47:14 +0000";
layers = (
{
anchors = (
{
name = bottom;
position = "{319, 83}";
},
{
name = top;
position = "{322, 524}";
}
);
layerId = master01;
paths = (
{
closed = 1;
nodes = (
"165 135 OFFCURVE",
"220 148 OFFCURVE",
"319 199 CURVE SMOOTH",
"408 245 OFFCURVE",
"437 254 OFFCURVE",
"483 254 CURVE SMOOTH",
"514 254 OFFCURVE",
"541 251 OFFCURVE",
"563 249 CURVE",
"602 322 LINE",
"554 322 OFFCURVE",
"517 325 OFFCURVE",
"492 331 CURVE SMOOTH",
"442 342 OFFCURVE",
"399 365 OFFCURVE",
"329 416 CURVE SMOOTH",
"272 458 OFFCURVE",
"232 475 OFFCURVE",
"189 475 CURVE SMOOTH",
"117 475 OFFCURVE",
"69 441 OFFCURVE",
"69 391 CURVE SMOOTH",
"69 375 OFFCURVE",
"74 362 OFFCURVE",
"83 352 CURVE",
"132 383 OFFCURVE",
"152 391 OFFCURVE",
"193 391 CURVE SMOOTH",
"228 391 OFFCURVE",
"256 377 OFFCURVE",
"310 335 CURVE SMOOTH",
"335 315 OFFCURVE",
"361 298 OFFCURVE",
"387 285 CURVE",
"355 279 OFFCURVE",
"320 268 OFFCURVE",
"231 237 CURVE SMOOTH",
"175 219 OFFCURVE",
"98 211 OFFCURVE",
"0 211 CURVE SMOOTH",
"-6 211 OFFCURVE",
"-8 208 OFFCURVE",
"-8 203 CURVE SMOOTH",
"-8 143 LINE SMOOTH",
"-8 138 OFFCURVE",
"-6 135 OFFCURVE",
"0 135 CURVE SMOOTH"
);
}
);
width = 636;
},
{
anchors = (
{
name = bottom;
position = "{319, 77}";
},
{
name = top;
position = "{288, 580}";
}
);
layerId = "26E2967D-790C-4793-AF2A-2D0AD74EDC69";
paths = (
{
closed = 1;
nodes = (
"149 144 OFFCURVE",
"208 146 OFFCURVE",
"311 208 CURVE SMOOTH",
"360 236 OFFCURVE",
"416 260 OFFCURVE",
"463 264 CURVE SMOOTH",
"500 267 OFFCURVE",
"522 263 OFFCURVE",
"563 259 CURVE",
"615 365 LINE",
"566 365 OFFCURVE",
"524 370 OFFCURVE",
"490 378 CURVE SMOOTH",
"421 396 OFFCURVE",
"377 419 OFFCURVE",
"317 460 CURVE SMOOTH",
"268 493 OFFCURVE",
"232 507 OFFCURVE",
"189 507 CURVE SMOOTH",
"110 507 OFFCURVE",
"52 466 OFFCURVE",
"52 408 CURVE SMOOTH",
"52 387 OFFCURVE",
"63 360 OFFCURVE",
"75 348 CURVE",
"120 377 OFFCURVE",
"153 387 OFFCURVE",
"193 387 CURVE SMOOTH",
"222 387 OFFCURVE",
"247 377 OFFCURVE",
"290 348 CURVE SMOOTH",
"307 336 OFFCURVE",
"325 325 OFFCURVE",
"344 314 CURVE",
"321 309 OFFCURVE",
"280 298 OFFCURVE",
"223 281 CURVE SMOOTH",
"159 262 OFFCURVE",
"97 262 OFFCURVE",
"0 262 CURVE SMOOTH",
"-6 262 OFFCURVE",
"-8 260 OFFCURVE",
"-8 254 CURVE SMOOTH",
"-8 152 LINE SMOOTH",
"-8 147 OFFCURVE",
"-6 144 OFFCURVE",
"0 144 CURVE SMOOTH"
);
}
);
width = 649;
}
);
unicode = FEA3;
},
{
glyphname = uni062F;
lastChange = "2019-12-19 08:47:14 +0000";
layers = (
{
anchors = (
{
name = bottom;
position = "{214, 83}";
},
{
name = top;
position = "{219, 582}";
}
);
layerId = master01;
paths = (
{
closed = 1;
nodes = (
"228 135 OFFCURVE",
"288 148 OFFCURVE",
"336 174 CURVE",
"359 216 OFFCURVE",
"372 256 OFFCURVE",
"372 276 CURVE SMOOTH",
"372 306 OFFCURVE",
"357 343 OFFCURVE",
"337 386 CURVE SMOOTH",
"321 423 OFFCURVE",
"290 489 OFFCURVE",
"273 533 CURVE",
"238 522 OFFCURVE",
"221 500 OFFCURVE",
"221 467 CURVE SMOOTH",
"221 434 OFFCURVE",
"229 419 OFFCURVE",
"282 323 CURVE SMOOTH",
"299 292 OFFCURVE",
"313 261 OFFCURVE",
"324 232 CURVE",
"278 218 OFFCURVE",
"232 211 OFFCURVE",
"188 211 CURVE SMOOTH",
"125 211 OFFCURVE",
"85 224 OFFCURVE",
"52 251 CURVE",
"40 238 OFFCURVE",
"34 220 OFFCURVE",
"34 198 CURVE SMOOTH",
"34 158 OFFCURVE",
"75 135 OFFCURVE",
"156 135 CURVE SMOOTH"
);
}
);
width = 414;
},
{
anchors = (
{
name = bottom;
position = "{214, 77}";
},
{
name = top;
position = "{229, 658}";
}
);
layerId = "26E2967D-790C-4793-AF2A-2D0AD74EDC69";
paths = (
{
closed = 1;
nodes = (
"238 135 OFFCURVE",
"309 150 OFFCURVE",
"357 174 CURVE",
"373 205 OFFCURVE",
"392 266 OFFCURVE",
"392 284 CURVE SMOOTH",
"392 320 OFFCURVE",
"377 364 OFFCURVE",
"358 415 CURVE SMOOTH",
"341 459 OFFCURVE",
"312 533 OFFCURVE",
"297 585 CURVE",
"253 572 OFFCURVE",
"213 528 OFFCURVE",
"213 485 CURVE SMOOTH",
"213 459 OFFCURVE",
"239 418 OFFCURVE",
"277 364 CURVE SMOOTH",
"292 343 OFFCURVE",
"309 313 OFFCURVE",
"331 275 CURVE",
"287 261 OFFCURVE",
"243 254 OFFCURVE",
"200 254 CURVE SMOOTH",
"137 254 OFFCURVE",
"97 267 OFFCURVE",
"64 294 CURVE",
"47 276 OFFCURVE",
"34 241 OFFCURVE",
"34 213 CURVE SMOOTH",
"34 161 OFFCURVE",
"79 135 OFFCURVE",
"168 135 CURVE SMOOTH"
);
}
);
width = 435;
}
);
unicode = "062F,FEA9";
},
{
glyphname = uniFEAA;
lastChange = "2019-12-19 08:47:14 +0000";
layers = (
{
anchors = (
{
name = bottom;
position = "{239, 83}";
},
{
name = top;
position = "{226, 582}";
}
);
layerId = master01;
paths = (
{
closed = 1;
nodes = (
"229 135 OFFCURVE",
"297 152 OFFCURVE",
"358 187 CURVE",
"389 154 OFFCURVE",
"428 135 OFFCURVE",
"482 135 CURVE SMOOTH",
"488 135 OFFCURVE",
"491 138 OFFCURVE",
"491 143 CURVE SMOOTH",
"491 203 LINE SMOOTH",
"491 208 OFFCURVE",
"488 211 OFFCURVE",
"482 211 CURVE SMOOTH",
"445 211 OFFCURVE",
"419 224 OFFCURVE",
"392 263 CURVE SMOOTH",
"346 327 OFFCURVE",
"320 419 OFFCURVE",
"289 533 CURVE",
"253 522 OFFCURVE",
"236 500 OFFCURVE",
"236 467 CURVE SMOOTH",
"236 430 OFFCURVE",
"275 321 OFFCURVE",
"326 232 CURVE",
"276 218 OFFCURVE",
"230 211 OFFCURVE",
"188 211 CURVE SMOOTH",
"125 211 OFFCURVE",
"85 224 OFFCURVE",
"52 251 CURVE",
"40 238 OFFCURVE",
"34 220 OFFCURVE",
"34 198 CURVE SMOOTH",
"34 158 OFFCURVE",
"75 135 OFFCURVE",
"156 135 CURVE SMOOTH"
);
}
);
width = 474;
},
{
anchors = (
{
name = bottom;
position = "{239, 77}";
},
{
name = top;
position = "{226, 658}";
}
);
layerId = "26E2967D-790C-4793-AF2A-2D0AD74EDC69";
paths = (
{
closed = 1;
nodes = (
"234 135 OFFCURVE",
"303 153 OFFCURVE",
"377 190 CURVE",
"408 159 OFFCURVE",
"447 144 OFFCURVE",
"494 144 CURVE SMOOTH",
"499 144 OFFCURVE",
"502 147 OFFCURVE",
"502 152 CURVE SMOOTH",
"502 254 LINE SMOOTH",
"502 260 OFFCURVE",
"499 262 OFFCURVE",
"494 262 CURVE SMOOTH",
"440 262 OFFCURVE",
"414 279 OFFCURVE",
"389 330 CURVE SMOOTH",
"358 392 OFFCURVE",
"330 477 OFFCURVE",
"304 585 CURVE",
"258 571 OFFCURVE",
"234 534 OFFCURVE",
"234 486 CURVE SMOOTH",
"234 447 OFFCURVE",
"268 358 OFFCURVE",
"320 268 CURVE",
"279 259 OFFCURVE",
"239 254 OFFCURVE",
"200 254 CURVE SMOOTH",
"137 254 OFFCURVE",
"97 267 OFFCURVE",
"64 294 CURVE",
"47 276 OFFCURVE",
"34 241 OFFCURVE",
"34 213 CURVE SMOOTH",
"34 161 OFFCURVE",
"79 135 OFFCURVE",
"168 135 CURVE SMOOTH"
);
}
);
width = 485;
}
);
unicode = FEAA;
},
{
glyphname = uni0631;
lastChange = "2019-12-19 11:37:51 +0000";
layers = (
{
anchors = (
{
name = bottom;
position = "{100, -118}";
},
{
name = top;
position = "{182, 525}";
}
);
layerId = master01;
paths = (
{
closed = 1;
nodes = (
"138 -69 OFFCURVE",
"176 -57 OFFCURVE",
"211 -32 CURVE SMOOTH",
"279 17 OFFCURVE",
"321 112 OFFCURVE",
"321 216 CURVE SMOOTH",
"321 253 OFFCURVE",
"307 300 OFFCURVE",
"290 347 CURVE SMOOTH",
"276 386 OFFCURVE",
"253 444 OFFCURVE",
"245 476 CURVE",
"208 458 OFFCURVE",
"187 440 OFFCURVE",
"187 406 CURVE SMOOTH",
"187 373 OFFCURVE",
"207 328 OFFCURVE",
"253 247 CURVE SMOOTH",
"265 226 OFFCURVE",
"275 205 OFFCURVE",
"284 184 CURVE",
"246 70 OFFCURVE",
"174 9 OFFCURVE",
"74 9 CURVE SMOOTH",
"47 9 OFFCURVE",
"16 13 OFFCURVE",
"-21 20 CURVE",
"-34 -13 LINE",
"-2 -38 OFFCURVE",
"65 -69 OFFCURVE",
"97 -69 CURVE SMOOTH"
);
}
);
width = 372;
},
{
anchors = (
{
name = bottom;
position = "{104, -109}";
},
{
name = top;
position = "{196, 561}";
}
);
layerId = "26E2967D-790C-4793-AF2A-2D0AD74EDC69";
paths = (
{
closed = 1;
nodes = (
"146 -60 OFFCURVE",
"186 -48 OFFCURVE",
"222 -23 CURVE SMOOTH",
"293 27 OFFCURVE",
"335 120 OFFCURVE",
"335 224 CURVE SMOOTH",
"335 267 OFFCURVE",
"322 315 OFFCURVE",
"305 365 CURVE SMOOTH",
"291 406 OFFCURVE",
"267 476 OFFCURVE",
"256 518 CURVE",
"207 493 OFFCURVE",
"173 452 OFFCURVE",
"173 413 CURVE SMOOTH",
"173 370 OFFCURVE",
"209 314 OFFCURVE",
"248 254 CURVE SMOOTH",
"261 234 OFFCURVE",
"272 213 OFFCURVE",
"282 193 CURVE",
"251 100 OFFCURVE",
"182 49 OFFCURVE",
"83 49 CURVE SMOOTH",
"52 49 OFFCURVE",
"18 54 OFFCURVE",
"-18 63 CURVE",
"-34 21 LINE",
"24 -28 OFFCURVE",
"79 -60 OFFCURVE",
"102 -60 CURVE SMOOTH"
);
}
);
width = 377;
}
);
unicode = "0631,FEAD";
},
{
glyphname = uniFEAE;
lastChange = "2019-12-19 11:38:00 +0000";
layers = (
{
anchors = (
{
name = bottom;
position = "{101, -118}";
},
{
name = top;
position = "{196, 525}";
}
);
layerId = master01;
paths = (
{
closed = 1;
nodes = (
"207 -69 OFFCURVE",
"295 20 OFFCURVE",
"317 159 CURVE",
"340 143 OFFCURVE",
"368 135 OFFCURVE",
"399 135 CURVE SMOOTH",
"404 135 OFFCURVE",
"407 138 OFFCURVE",
"407 143 CURVE SMOOTH",
"407 203 LINE SMOOTH",
"407 208 OFFCURVE",
"404 211 OFFCURVE",
"399 211 CURVE SMOOTH",
"369 211 OFFCURVE",
"343 218 OFFCURVE",
"321 231 CURVE",
"319 248 OFFCURVE",
"315 269 OFFCURVE",
"307 294 CURVE SMOOTH",
"300 319 OFFCURVE",
"286 360 OFFCURVE",
"265 415 CURVE SMOOTH",
"256 437 OFFCURVE",
"250 458 OFFCURVE",
"245 476 CURVE",
"208 458 OFFCURVE",
"187 440 OFFCURVE",
"187 406 CURVE SMOOTH",
"187 373 OFFCURVE",
"207 328 OFFCURVE",
"253 247 CURVE SMOOTH",
"265 226 OFFCURVE",
"275 205 OFFCURVE",
"284 184 CURVE",
"246 70 OFFCURVE",
"174 9 OFFCURVE",
"74 9 CURVE SMOOTH",
"47 9 OFFCURVE",
"16 13 OFFCURVE",
"-21 20 CURVE",
"-34 -13 LINE",
"-2 -38 OFFCURVE",
"65 -69 OFFCURVE",
"97 -69 CURVE SMOOTH"
);
}
);
width = 390;
},
{
anchors = (
{
name = bottom;
position = "{101, -109}";
},
{
name = top;
position = "{196, 561}";
}
);
layerId = "26E2967D-790C-4793-AF2A-2D0AD74EDC69";
paths = (
{
closed = 1;
nodes = (
"217 -60 OFFCURVE",
"308 30 OFFCURVE",
"330 163 CURVE",
"355 150 OFFCURVE",
"380 144 OFFCURVE",
"404 144 CURVE SMOOTH",
"409 144 OFFCURVE",
"412 147 OFFCURVE",
"412 152 CURVE SMOOTH",
"412 254 LINE SMOOTH",
"412 260 OFFCURVE",
"409 262 OFFCURVE",
"404 262 CURVE SMOOTH",
"377 262 OFFCURVE",
"352 268 OFFCURVE",
"329 281 CURVE",
"325 304 OFFCURVE",
"308 357 OFFCURVE",
"279 441 CURVE SMOOTH",
"270 467 OFFCURVE",
"263 492 OFFCURVE",
"256 518 CURVE",
"207 493 OFFCURVE",
"173 452 OFFCURVE",
"173 413 CURVE SMOOTH",
"173 397 OFFCURVE",
"178 378 OFFCURVE",
"188 356 CURVE SMOOTH",
"198 334 OFFCURVE",
"218 300 OFFCURVE",
"248 254 CURVE SMOOTH",
"261 234 OFFCURVE",
"272 213 OFFCURVE",
"282 193 CURVE",
"251 100 OFFCURVE",
"182 49 OFFCURVE",
"83 49 CURVE SMOOTH",
"52 49 OFFCURVE",
"18 54 OFFCURVE",
"-18 63 CURVE",
"-34 21 LINE",
"24 -28 OFFCURVE",
"79 -60 OFFCURVE",
"102 -60 CURVE SMOOTH"
);
}
);
width = 395;
}
);
unicode = FEAE;
},
{
glyphname = uni075B.fina;
lastChange = "2019-12-19 08:47:14 +0000";
layers = (
{
anchors = (
{
name = bottom;
position = "{104, -118}";
},
{
name = top;
position = "{189, 525}";
}
);
layerId = master01;
paths = (
{
closed = 1;
nodes = (
"207 -69 OFFCURVE",
"295 20 OFFCURVE",
"317 159 CURVE",
"340 143 OFFCURVE",
"368 135 OFFCURVE",
"399 135 CURVE SMOOTH",
"404 135 OFFCURVE",
"407 138 OFFCURVE",
"407 143 CURVE SMOOTH",
"407 203 LINE SMOOTH",
"407 208 OFFCURVE",
"404 211 OFFCURVE",
"399 211 CURVE SMOOTH",
"369 211 OFFCURVE",
"343 218 OFFCURVE",
"321 231 CURVE",
"316 277 OFFCURVE",
"292 345 OFFCURVE",
"265 415 CURVE SMOOTH",
"256 437 OFFCURVE",
"250 458 OFFCURVE",
"245 476 CURVE",
"208 458 OFFCURVE",
"187 440 OFFCURVE",
"187 406 CURVE SMOOTH",
"187 373 OFFCURVE",
"207 328 OFFCURVE",
"253 247 CURVE SMOOTH",
"265 226 OFFCURVE",
"275 205 OFFCURVE",
"284 184 CURVE",
"278 166 OFFCURVE",
"271 150 OFFCURVE",
"263 134 CURVE",
"88 134 LINE",
"88 86 LINE",
"233 86 LINE",
"196 37 OFFCURVE",
"140 9 OFFCURVE",
"74 9 CURVE SMOOTH",
"47 9 OFFCURVE",
"16 13 OFFCURVE",
"-21 20 CURVE",
"-34 -13 LINE",
"-2 -38 OFFCURVE",
"65 -69 OFFCURVE",
"97 -69 CURVE SMOOTH"
);
}
);
width = 390;
},
{
anchors = (
{
name = bottom;
position = "{104, -109}";
},
{
name = top;
position = "{194, 567}";
}
);
layerId = "26E2967D-790C-4793-AF2A-2D0AD74EDC69";
paths = (
{
closed = 1;
nodes = (
"217 -60 OFFCURVE",
"308 30 OFFCURVE",
"330 163 CURVE",
"355 150 OFFCURVE",
"380 144 OFFCURVE",
"404 144 CURVE SMOOTH",
"409 144 OFFCURVE",
"412 147 OFFCURVE",
"412 152 CURVE SMOOTH",
"412 254 LINE SMOOTH",
"412 260 OFFCURVE",
"409 262 OFFCURVE",
"404 262 CURVE SMOOTH",
"377 262 OFFCURVE",
"352 268 OFFCURVE",
"329 281 CURVE",
"325 304 OFFCURVE",
"308 357 OFFCURVE",
"279 441 CURVE SMOOTH",
"270 467 OFFCURVE",
"263 492 OFFCURVE",
"256 518 CURVE",
"207 493 OFFCURVE",
"173 452 OFFCURVE",
"173 413 CURVE SMOOTH",
"173 371 OFFCURVE",
"208 315 OFFCURVE",
"248 254 CURVE SMOOTH",
"261 234 OFFCURVE",
"272 213 OFFCURVE",
"282 193 CURVE",
"277 178 OFFCURVE",
"271 164 OFFCURVE",
"265 152 CURVE",
"71 152 LINE",
"71 104 LINE",
"229 104 LINE",
"190 67 OFFCURVE",
"142 49 OFFCURVE",
"83 49 CURVE SMOOTH",
"52 49 OFFCURVE",
"18 54 OFFCURVE",
"-18 63 CURVE",
"-34 21 LINE",
"24 -28 OFFCURVE",
"79 -60 OFFCURVE",
"102 -60 CURVE SMOOTH"
);
}
);
width = 395;
}
);
},
{
glyphname = uni08AA;
lastChange = "2019-12-19 08:47:14 +0000";
layers = (
{
anchors = (
{
name = bottom;
position = "{187, -118}";
},
{
name = top;
position = "{262, 525}";
}
);
layerId = master01;
paths = (
{
closed = 1;
nodes = (
"427 -80 LINE",
"397 -40 OFFCURVE",
"366 4 OFFCURVE",
"330 44 CURVE",
"358 93 OFFCURVE",
"373 152 OFFCURVE",
"373 216 CURVE SMOOTH",
"373 253 OFFCURVE",
"359 300 OFFCURVE",
"342 347 CURVE SMOOTH",
"328 385 OFFCURVE",
"305 444 OFFCURVE",
"296 476 CURVE",
"259 458 OFFCURVE",
"238 440 OFFCURVE",
"238 406 CURVE SMOOTH",
"238 376 OFFCURVE",
"253 345 OFFCURVE",
"266 319 CURVE SMOOTH",
"279 294 OFFCURVE",
"298 260 OFFCURVE",
"305 247 CURVE SMOOTH",
"315 229 OFFCURVE",
"324 213 OFFCURVE",
"335 184 CURVE",
"323 147 OFFCURVE",
"307 114 OFFCURVE",
"286 87 CURVE",
"239 127 OFFCURVE",
"187 155 OFFCURVE",
"127 155 CURVE SMOOTH",
"68 155 OFFCURVE",
"5 115 OFFCURVE",
"5 51 CURVE SMOOTH",
"5 -17 OFFCURVE",
"79 -69 OFFCURVE",
"148 -69 CURVE SMOOTH",
"208 -69 OFFCURVE",
"257 -44 OFFCURVE",
"296 -2 CURVE",
"314 -19 OFFCURVE",
"333 -36 OFFCURVE",
"350 -54 CURVE SMOOTH",
"368 -72 OFFCURVE",
"385 -89 OFFCURVE",
"402 -105 CURVE"
);
},
{
closed = 1;
nodes = (
"98 9 OFFCURVE",
"62 25 OFFCURVE",
"41 48 CURVE",
"67 68 OFFCURVE",
"96 80 OFFCURVE",
"131 80 CURVE SMOOTH",
"168 80 OFFCURVE",
"204 65 OFFCURVE",
"239 42 CURVE",
"208 21 OFFCURVE",
"170 9 OFFCURVE",
"125 9 CURVE SMOOTH"
);
}
);
width = 424;
},
{
anchors = (
{
name = bottom;
position = "{208, -129}";
},
{
name = top;
position = "{274, 591}";
}
);
layerId = "26E2967D-790C-4793-AF2A-2D0AD74EDC69";
paths = (
{
closed = 1;
nodes = (
"468 -65 LINE",
"442 -26 OFFCURVE",
"413 18 OFFCURVE",
"379 59 CURVE",
"403 109 OFFCURVE",
"416 166 OFFCURVE",
"416 224 CURVE SMOOTH",
"416 267 OFFCURVE",
"403 315 OFFCURVE",
"386 365 CURVE SMOOTH",
"372 406 OFFCURVE",
"348 476 OFFCURVE",
"337 518 CURVE",
"299 499 OFFCURVE",
"254 458 OFFCURVE",
"254 413 CURVE SMOOTH",
"254 382 OFFCURVE",
"270 351 OFFCURVE",
"284 325 CURVE SMOOTH",
"314 273 OFFCURVE",
"343 234 OFFCURVE",
"363 193 CURVE",
"354 163 OFFCURVE",
"341 138 OFFCURVE",
"326 115 CURVE",
"279 158 OFFCURVE",
"225 189 OFFCURVE",
"162 189 CURVE SMOOTH",
"85 189 OFFCURVE",
"20 136 OFFCURVE",
"20 64 CURVE SMOOTH",
"20 23 OFFCURVE",
"40 -13 OFFCURVE",
"70 -39 CURVE SMOOTH",
"100 -64 OFFCURVE",
"141 -80 OFFCURVE",
"183 -80 CURVE SMOOTH",
"247 -80 OFFCURVE",
"300 -49 OFFCURVE",
"339 -2 CURVE",
"357 -17 OFFCURVE",
"373 -33 OFFCURVE",
"389 -50 CURVE SMOOTH",
"406 -66 OFFCURVE",
"421 -81 OFFCURVE",
"437 -96 CURVE"
);
},
{
closed = 1;
nodes = (
"137 30 OFFCURVE",
"106 38 OFFCURVE",
"76 57 CURVE",
"102 77 OFFCURVE",
"128 89 OFFCURVE",
"166 89 CURVE SMOOTH",
"199 89 OFFCURVE",
"232 76 OFFCURVE",
"264 57 CURVE",
"234 39 OFFCURVE",
"200 30 OFFCURVE",
"165 30 CURVE SMOOTH"
);
}
);
width = 458;
}
);
unicode = 08AA;
},
{
glyphname = uni08AA.fina;
lastChange = "2019-12-19 08:47:14 +0000";
layers = (
{
anchors = (
{
name = bottom;
position = "{187, -118}";
},
{
name = top;
position = "{262, 525}";
}
);
layerId = master01;
paths = (
{
closed = 1;
nodes = (
"427 -80 LINE",
"394 -34 OFFCURVE",
"351 22 OFFCURVE",
"330 43 CURVE",
"349 78 OFFCURVE",
"362 117 OFFCURVE",
"369 159 CURVE",
"393 143 OFFCURVE",
"420 135 OFFCURVE",
"451 135 CURVE SMOOTH",
"456 135 OFFCURVE",
"459 138 OFFCURVE",
"459 143 CURVE SMOOTH",
"459 203 LINE SMOOTH",
"459 208 OFFCURVE",
"456 211 OFFCURVE",
"451 211 CURVE SMOOTH",
"423 211 OFFCURVE",
"397 218 OFFCURVE",
"373 231 CURVE",
"370 262 OFFCURVE",
"356 308 OFFCURVE",
"342 347 CURVE SMOOTH",
"328 385 OFFCURVE",
"305 444 OFFCURVE",
"296 476 CURVE",
"259 458 OFFCURVE",
"238 440 OFFCURVE",
"238 406 CURVE SMOOTH",
"238 373 OFFCURVE",
"261 324 OFFCURVE",
"289 276 CURVE SMOOTH",
"310 238 OFFCURVE",
"326 208 OFFCURVE",
"335 184 CURVE",
"323 145 OFFCURVE",
"306 113 OFFCURVE",
"286 87 CURVE",
"272 98 OFFCURVE",
"258 109 OFFCURVE",
"244 118 CURVE SMOOTH",
"208 141 OFFCURVE",
"170 155 OFFCURVE",
"127 155 CURVE SMOOTH",
"106 155 OFFCURVE",
"87 150 OFFCURVE",
"67 141 CURVE SMOOTH",
"29 123 OFFCURVE",
"5 90 OFFCURVE",
"5 51 CURVE SMOOTH",
"5 30 OFFCURVE",
"12 10 OFFCURVE",
"25 -8 CURVE SMOOTH",
"52 -45 OFFCURVE",
"101 -69 OFFCURVE",
"148 -69 CURVE SMOOTH",
"190 -69 OFFCURVE",
"228 -57 OFFCURVE",
"262 -32 CURVE SMOOTH",
"275 -24 OFFCURVE",
"286 -14 OFFCURVE",
"296 -2 CURVE",
"318 -21 OFFCURVE",
"343 -46 OFFCURVE",
"402 -105 CURVE"
);
},
{
closed = 1;
nodes = (
"96 9 OFFCURVE",
"61 26 OFFCURVE",
"41 48 CURVE",
"69 70 OFFCURVE",
"99 80 OFFCURVE",
"131 80 CURVE SMOOTH",
"164 80 OFFCURVE",
"197 69 OFFCURVE",
"239 42 CURVE",
"207 20 OFFCURVE",
"169 9 OFFCURVE",
"125 9 CURVE SMOOTH"
);
}
);
width = 442;
},
{
anchors = (
{
name = bottom;
position = "{208, -129}";
},
{
name = top;
position = "{274, 591}";
}
);
layerId = "26E2967D-790C-4793-AF2A-2D0AD74EDC69";
paths = (
{
closed = 1;
nodes = (
"468 -65 LINE",
"434 -14 OFFCURVE",
"404 27 OFFCURVE",
"378 59 CURVE",
"392 84 OFFCURVE",
"406 129 OFFCURVE",
"411 162 CURVE",
"434 150 OFFCURVE",
"459 144 OFFCURVE",
"485 144 CURVE SMOOTH",
"490 144 OFFCURVE",
"493 147 OFFCURVE",
"493 152 CURVE SMOOTH",
"493 254 LINE SMOOTH",
"493 260 OFFCURVE",
"490 262 OFFCURVE",
"485 262 CURVE SMOOTH",
"458 262 OFFCURVE",
"433 268 OFFCURVE",
"410 281 CURVE",
"402 312 OFFCURVE",
"396 336 OFFCURVE",
"386 365 CURVE SMOOTH",
"372 406 OFFCURVE",
"348 476 OFFCURVE",
"337 518 CURVE",
"291 495 OFFCURVE",
"254 453 OFFCURVE",
"254 413 CURVE SMOOTH",
"254 371 OFFCURVE",
"289 313 OFFCURVE",
"329 253 CURVE SMOOTH",
"343 230 OFFCURVE",
"355 210 OFFCURVE",
"363 193 CURVE",
"354 163 OFFCURVE",
"341 137 OFFCURVE",
"326 115 CURVE",
"303 136 OFFCURVE",
"280 153 OFFCURVE",
"257 164 CURVE SMOOTH",
"225 181 OFFCURVE",
"194 189 OFFCURVE",
"162 189 CURVE SMOOTH",
"133 189 OFFCURVE",
"106 182 OFFCURVE",
"84 169 CURVE SMOOTH",
"45 147 OFFCURVE",
"20 109 OFFCURVE",
"20 64 CURVE SMOOTH",
"20 38 OFFCURVE",
"27 14 OFFCURVE",
"42 -8 CURVE SMOOTH",
"73 -52 OFFCURVE",
"128 -80 OFFCURVE",
"183 -80 CURVE SMOOTH",
"226 -80 OFFCURVE",
"265 -66 OFFCURVE",
"301 -38 CURVE SMOOTH",
"315 -27 OFFCURVE",
"328 -15 OFFCURVE",
"339 -1 CURVE",
"359 -19 OFFCURVE",
"381 -41 OFFCURVE",
"437 -96 CURVE"
);
},
{
closed = 1;
nodes = (
"134 30 OFFCURVE",
"105 39 OFFCURVE",
"76 57 CURVE",
"103 78 OFFCURVE",
"133 89 OFFCURVE",
"166 89 CURVE SMOOTH",
"197 89 OFFCURVE",
"229 78 OFFCURVE",
"264 57 CURVE",
"233 39 OFFCURVE",
"200 30 OFFCURVE",
"165 30 CURVE SMOOTH"
);
}
);
width = 477;
}
);
},
{
glyphname = uni0633;
lastChange = "2019-12-19 08:47:14 +0000";
layers = (
{
anchors = (
{
name = bottom;
position = "{718, 59}";
},
{
name = top;
position = "{690, 465}";
}
);
layerId = master01;
paths = (
{
closed = 1;
nodes = (
"297 -127 OFFCURVE",
"344 -115 OFFCURVE",
"389 -91 CURVE SMOOTH",
"480 -44 OFFCURVE",
"535 36 OFFCURVE",
"535 118 CURVE SMOOTH",
"535 137 LINE",
"547 136 OFFCURVE",
"559 135 OFFCURVE",
"571 135 CURVE SMOOTH",
"605 135 OFFCURVE",
"634 137 OFFCURVE",
"658 142 CURVE SMOOTH",
"683 147 OFFCURVE",
"698 153 OFFCURVE",
"703 162 CURVE SMOOTH",
"712 178 LINE",
"784 145 OFFCURVE",
"838 135 OFFCURVE",
"924 135 CURVE",
"943 172 OFFCURVE",
"962 237 OFFCURVE",
"962 258 CURVE SMOOTH",
"962 289 OFFCURVE",
"955 324 OFFCURVE",
"947 360 CURVE SMOOTH",
"940 391 OFFCURVE",
"928 443 OFFCURVE",
"923 475 CURVE",
"882 452 OFFCURVE",
"857 420 OFFCURVE",
"857 391 CURVE SMOOTH",
"857 381 OFFCURVE",
"864 358 OFFCURVE",
"877 323 CURVE SMOOTH",
"895 278 OFFCURVE",
"907 241 OFFCURVE",
"915 214 CURVE",
"853 214 OFFCURVE",
"805 223 OFFCURVE",
"739 253 CURVE",
"758 318 OFFCURVE",
"773 360 OFFCURVE",
"782 380 CURVE",
"775 385 OFFCURVE",
"767 387 OFFCURVE",
"758 387 CURVE SMOOTH",
"736 387 OFFCURVE",
"729 380 OFFCURVE",
"718 354 CURVE SMOOTH",
"711 340 OFFCURVE",
"699 305 OFFCURVE",
"683 250 CURVE SMOOTH",
"679 237 OFFCURVE",
"675 228 OFFCURVE",
"671 221 CURVE",
"649 215 OFFCURVE",
"620 211 OFFCURVE",
"583 211 CURVE SMOOTH",
"563 211 OFFCURVE",
"543 214 OFFCURVE",
"523 220 CURVE",
"506 305 OFFCURVE",
"501 333 OFFCURVE",
"498 361 CURVE",
"450 332 OFFCURVE",
"433 306 OFFCURVE",
"433 272 CURVE SMOOTH",
"433 240 OFFCURVE",
"454 176 OFFCURVE",
"498 81 CURVE",
"465 10 OFFCURVE",
"350 -44 OFFCURVE",
"251 -44 CURVE SMOOTH",
"164 -44 OFFCURVE",
"113 13 OFFCURVE",
"113 111 CURVE SMOOTH",
"113 129 OFFCURVE",
"117 153 OFFCURVE",
"124 182 CURVE",
"87 191 LINE",
"71 125 OFFCURVE",
"68 100 OFFCURVE",
"68 61 CURVE SMOOTH",
"68 -59 OFFCURVE",
"135 -127 OFFCURVE",
"249 -127 CURVE SMOOTH"
);
}
);
width = 1013;
},
{
anchors = (
{
name = bottom;
position = "{748, 59}";
},
{
name = top;
position = "{690, 531}";
}
);
layerId = "26E2967D-790C-4793-AF2A-2D0AD74EDC69";
paths = (
{
closed = 1;
nodes = (
"306 -117 OFFCURVE",
"357 -107 OFFCURVE",
"403 -85 CURVE SMOOTH",
"495 -42 OFFCURVE",
"552 39 OFFCURVE",
"552 128 CURVE SMOOTH",
"552 137 LINE",
"563 136 OFFCURVE",
"574 135 OFFCURVE",
"585 135 CURVE SMOOTH",
"620 135 OFFCURVE",
"649 138 OFFCURVE",
"674 143 CURVE SMOOTH",
"698 148 OFFCURVE",
"713 155 OFFCURVE",
"718 164 CURVE SMOOTH",
"729 186 LINE",
"795 156 OFFCURVE",
"886 135 OFFCURVE",
"968 135 CURVE",
"988 173 OFFCURVE",
"1010 246 OFFCURVE",
"1010 277 CURVE SMOOTH",
"1010 295 OFFCURVE",
"1005 330 OFFCURVE",
"995 383 CURVE SMOOTH",
"986 427 OFFCURVE",
"977 473 OFFCURVE",
"968 518 CURVE",
"918 493 OFFCURVE",
"877 448 OFFCURVE",
"877 416 CURVE SMOOTH",
"877 389 OFFCURVE",
"892 362 OFFCURVE",
"908 332 CURVE SMOOTH",
"923 303 OFFCURVE",
"938 274 OFFCURVE",
"952 245 CURVE",
"873 253 OFFCURVE",
"816 264 OFFCURVE",
"765 290 CURVE",
"784 349 OFFCURVE",
"799 397 OFFCURVE",
"808 418 CURVE",
"796 425 OFFCURVE",
"783 428 OFFCURVE",
"770 428 CURVE SMOOTH",
"747 428 OFFCURVE",
"731 419 OFFCURVE",
"724 400 CURVE SMOOTH",
"714 376 OFFCURVE",
"705 352 OFFCURVE",
"695 327 CURVE SMOOTH",
"683 296 OFFCURVE",
"674 275 OFFCURVE",
"668 265 CURVE",
"632 254 OFFCURVE",
"623 254 OFFCURVE",
"597 254 CURVE SMOOTH",
"580 254 OFFCURVE",
"560 256 OFFCURVE",
"537 259 CURVE",
"524 331 OFFCURVE",
"516 379 OFFCURVE",
"513 405 CURVE",
"444 371 OFFCURVE",
"412 329 OFFCURVE",
"412 273 CURVE SMOOTH",
"412 246 OFFCURVE",
"451 178 OFFCURVE",
"497 90 CURVE",
"426 26 OFFCURVE",
"359 1 OFFCURVE",
"254 1 CURVE SMOOTH",
"165 1 OFFCURVE",
"123 47 OFFCURVE",
"123 142 CURVE SMOOTH",
"123 165 OFFCURVE",
"128 192 OFFCURVE",
"137 222 CURVE",
"93 233 LINE",
"76 170 OFFCURVE",
"68 122 OFFCURVE",
"68 88 CURVE SMOOTH",
"68 -45 OFFCURVE",
"132 -117 OFFCURVE",
"251 -117 CURVE SMOOTH"
);
}
);
width = 1061;
}
);
unicode = "0633,FEB1";
},
{
glyphname = uniFEB2;
lastChange = "2019-12-19 08:47:14 +0000";
layers = (
{
anchors = (
{
name = bottom;
position = "{733, 59}";
},
{
name = top;
position = "{725, 465}";
}
);
layerId = master01;
paths = (
{
closed = 1;
nodes = (
"297 -127 OFFCURVE",
"344 -115 OFFCURVE",
"389 -91 CURVE SMOOTH",
"480 -44 OFFCURVE",
"535 36 OFFCURVE",
"535 118 CURVE SMOOTH",
"535 139 LINE",
"558 136 OFFCURVE",
"573 135 OFFCURVE",
"589 135 CURVE SMOOTH",
"624 135 OFFCURVE",
"686 143 OFFCURVE",
"700 160 CURVE",
"724 143 OFFCURVE",
"751 135 OFFCURVE",
"780 135 CURVE SMOOTH",
"817 135 OFFCURVE",
"858 146 OFFCURVE",
"869 162 CURVE",
"883 189 LINE",
"917 157 OFFCURVE",
"973 135 OFFCURVE",
"1025 135 CURVE SMOOTH",
"1030 135 OFFCURVE",
"1033 138 OFFCURVE",
"1033 143 CURVE SMOOTH",
"1033 203 LINE SMOOTH",
"1033 208 OFFCURVE",
"1030 211 OFFCURVE",
"1025 211 CURVE SMOOTH",
"986 211 OFFCURVE",
"951 220 OFFCURVE",
"921 237 CURVE SMOOTH",
"905 246 LINE",
"921 295 OFFCURVE",
"936 335 OFFCURVE",
"956 388 CURVE",
"949 393 OFFCURVE",
"941 395 OFFCURVE",
"932 395 CURVE SMOOTH",
"925 395 OFFCURVE",
"918 394 OFFCURVE",
"912 391 CURVE SMOOTH",
"898 384 OFFCURVE",
"883 345 OFFCURVE",
"866 296 CURVE SMOOTH",
"852 256 OFFCURVE",
"842 232 OFFCURVE",
"837 224 CURVE",
"816 217 OFFCURVE",
"798 214 OFFCURVE",
"782 214 CURVE SMOOTH",
"763 214 OFFCURVE",
"745 218 OFFCURVE",
"729 226 CURVE",
"740 263 LINE SMOOTH",
"758 322 OFFCURVE",
"771 360 OFFCURVE",
"780 380 CURVE",
"774 385 OFFCURVE",
"766 387 OFFCURVE",
"757 387 CURVE SMOOTH",
"742 387 OFFCURVE",
"732 382 OFFCURVE",
"725 372 CURVE SMOOTH",
"713 351 OFFCURVE",
"702 322 OFFCURVE",
"693 290 CURVE SMOOTH",
"682 252 OFFCURVE",
"674 229 OFFCURVE",
"669 221 CURVE",
"648 215 OFFCURVE",
"622 211 OFFCURVE",
"591 211 CURVE SMOOTH",
"564 211 OFFCURVE",
"542 213 OFFCURVE",
"524 217 CURVE",
"510 287 OFFCURVE",
"501 335 OFFCURVE",
"498 361 CURVE",
"450 332 OFFCURVE",
"433 306 OFFCURVE",
"433 272 CURVE SMOOTH",
"433 240 OFFCURVE",
"454 176 OFFCURVE",
"498 81 CURVE",
"465 10 OFFCURVE",
"350 -44 OFFCURVE",
"251 -44 CURVE SMOOTH",
"164 -44 OFFCURVE",
"113 13 OFFCURVE",
"113 111 CURVE SMOOTH",
"113 129 OFFCURVE",
"117 153 OFFCURVE",
"124 182 CURVE",
"87 191 LINE",
"71 125 OFFCURVE",
"68 100 OFFCURVE",
"68 61 CURVE SMOOTH",
"68 -59 OFFCURVE",
"135 -127 OFFCURVE",
"249 -127 CURVE SMOOTH"
);
}
);
width = 1017;
},
{
anchors = (
{
name = bottom;
position = "{767, 59}";
},
{
name = top;
position = "{725, 509}";
}
);
layerId = "26E2967D-790C-4793-AF2A-2D0AD74EDC69";
paths = (
{
closed = 1;
nodes = (
"306 -117 OFFCURVE",
"357 -107 OFFCURVE",
"403 -85 CURVE SMOOTH",
"495 -42 OFFCURVE",
"552 39 OFFCURVE",
"552 128 CURVE SMOOTH",
"552 136 LINE",
"559 135 OFFCURVE",
"565 135 OFFCURVE",
"583 135 CURVE SMOOTH",
"621 135 OFFCURVE",
"674 145 OFFCURVE",
"692 157 CURVE",
"727 142 OFFCURVE",
"754 135 OFFCURVE",
"773 135 CURVE SMOOTH",
"819 135 OFFCURVE",
"875 142 OFFCURVE",
"885 168 CURVE",
"900 204 LINE",
"931 171 OFFCURVE",
"994 144 OFFCURVE",
"1047 144 CURVE SMOOTH",
"1053 144 OFFCURVE",
"1056 147 OFFCURVE",
"1056 152 CURVE SMOOTH",
"1056 254 LINE SMOOTH",
"1056 260 OFFCURVE",
"1053 262 OFFCURVE",
"1047 262 CURVE SMOOTH",
"1005 262 OFFCURVE",
"970 269 OFFCURVE",
"943 281 CURVE SMOOTH",
"929 289 LINE",
"951 362 OFFCURVE",
"966 409 OFFCURVE",
"974 428 CURVE",
"964 435 OFFCURVE",
"953 439 OFFCURVE",
"940 439 CURVE SMOOTH",
"922 439 OFFCURVE",
"908 432 OFFCURVE",
"898 422 CURVE SMOOTH",
"889 411 OFFCURVE",
"882 386 OFFCURVE",
"861 330 CURVE SMOOTH",
"848 294 OFFCURVE",
"839 271 OFFCURVE",
"832 261 CURVE",
"810 254 OFFCURVE",
"786 250 OFFCURVE",
"761 250 CURVE SMOOTH",
"751 251 OFFCURVE",
"743 251 OFFCURVE",
"733 251 CURVE",
"743 283 LINE SMOOTH",
"766 357 OFFCURVE",
"781 403 OFFCURVE",
"788 419 CURVE",
"777 427 OFFCURVE",
"766 430 OFFCURVE",
"753 430 CURVE SMOOTH",
"729 430 OFFCURVE",
"711 418 OFFCURVE",
"704 400 CURVE SMOOTH",
"695 376 OFFCURVE",
"685 352 OFFCURVE",
"676 327 CURVE SMOOTH",
"664 297 OFFCURVE",
"655 276 OFFCURVE",
"649 265 CURVE",
"622 258 OFFCURVE",
"603 254 OFFCURVE",
"577 254 CURVE SMOOTH",
"564 254 OFFCURVE",
"551 255 OFFCURVE",
"538 256 CURVE",
"520 359 OFFCURVE",
"517 374 OFFCURVE",
"513 405 CURVE",
"444 371 OFFCURVE",
"412 329 OFFCURVE",
"412 273 CURVE SMOOTH",
"412 253 OFFCURVE",
"445 178 OFFCURVE",
"497 90 CURVE",
"426 26 OFFCURVE",
"359 1 OFFCURVE",
"254 1 CURVE SMOOTH",
"165 1 OFFCURVE",
"123 47 OFFCURVE",
"123 142 CURVE SMOOTH",
"123 165 OFFCURVE",
"128 192 OFFCURVE",
"137 222 CURVE",
"93 233 LINE",
"76 170 OFFCURVE",
"68 122 OFFCURVE",
"68 88 CURVE SMOOTH",
"68 -45 OFFCURVE",
"132 -117 OFFCURVE",
"251 -117 CURVE SMOOTH"
);
}
);
width = 1039;
}
);
unicode = FEB2;
},
{
glyphname = uniFEB4;
lastChange = "2019-12-19 08:47:14 +0000";
layers = (
{
anchors = (
{
name = bottom;
position = "{333, 83}";
},
{
name = top;
position = "{350, 465}";
}
);
layerId = master01;
paths = (
{
closed = 1;
nodes = (
"268 136 OFFCURVE",
"332 142 OFFCURVE",
"347 160 CURVE",
"370 143 OFFCURVE",
"397 135 OFFCURVE",
"427 135 CURVE SMOOTH",
"463 135 OFFCURVE",
"505 146 OFFCURVE",
"515 162 CURVE SMOOTH",
"521 171 OFFCURVE",
"525 180 OFFCURVE",
"529 189 CURVE",
"564 157 OFFCURVE",
"619 135 OFFCURVE",
"671 135 CURVE SMOOTH",
"677 135 OFFCURVE",
"680 138 OFFCURVE",
"680 143 CURVE SMOOTH",
"680 203 LINE SMOOTH",
"680 208 OFFCURVE",
"677 211 OFFCURVE",
"671 211 CURVE SMOOTH",
"625 211 OFFCURVE",
"598 220 OFFCURVE",
"552 246 CURVE",
"576 319 OFFCURVE",
"592 366 OFFCURVE",
"602 388 CURVE",
"595 393 OFFCURVE",
"587 395 OFFCURVE",
"578 395 CURVE SMOOTH",
"563 395 OFFCURVE",
"552 390 OFFCURVE",
"547 380 CURVE SMOOTH",
"535 360 OFFCURVE",
"523 329 OFFCURVE",
"512 296 CURVE SMOOTH",
"498 256 OFFCURVE",
"489 232 OFFCURVE",
"483 224 CURVE",
"463 217 OFFCURVE",
"444 214 OFFCURVE",
"428 214 CURVE SMOOTH",
"407 214 OFFCURVE",
"395 217 OFFCURVE",
"375 226 CURVE",
"402 314 OFFCURVE",
"417 358 OFFCURVE",
"427 380 CURVE",
"420 385 OFFCURVE",
"412 387 OFFCURVE",
"403 387 CURVE SMOOTH",
"383 387 OFFCURVE",
"375 382 OFFCURVE",
"363 355 CURVE SMOOTH",
"350 328 OFFCURVE",
"328 242 OFFCURVE",
"315 221 CURVE",
"294 215 OFFCURVE",
"268 211 OFFCURVE",
"237 211 CURVE SMOOTH",
"194 211 OFFCURVE",
"158 219 OFFCURVE",
"148 224 CURVE",
"155 234 OFFCURVE",
"169 264 OFFCURVE",
"189 315 CURVE",
"182 320 OFFCURVE",
"174 322 OFFCURVE",
"165 322 CURVE SMOOTH",
"150 322 OFFCURVE",
"140 317 OFFCURVE",
"134 306 CURVE SMOOTH",
"109 265 OFFCURVE",
"104 253 OFFCURVE",
"81 234 CURVE SMOOTH",
"59 217 OFFCURVE",
"37 211 OFFCURVE",
"0 211 CURVE SMOOTH",
"-6 211 OFFCURVE",
"-8 208 OFFCURVE",
"-8 203 CURVE SMOOTH",
"-8 143 LINE SMOOTH",
"-8 138 OFFCURVE",
"-6 135 OFFCURVE",
"0 135 CURVE SMOOTH",
"45 135 OFFCURVE",
"85 147 OFFCURVE",
"104 166 CURVE",
"130 149 OFFCURVE",
"188 135 OFFCURVE",
"226 135 CURVE SMOOTH"
);
}
);
width = 663;
},
{
anchors = (
{
name = bottom;
position = "{337, 77}";
},
{
name = top;
position = "{360, 509}";
}
);
layerId = "26E2967D-790C-4793-AF2A-2D0AD74EDC69";
paths = (
{
closed = 1;
nodes = (
"277 135 OFFCURVE",
"331 144 OFFCURVE",
"350 157 CURVE",
"385 142 OFFCURVE",
"412 135 OFFCURVE",
"431 135 CURVE SMOOTH",
"460 135 OFFCURVE",
"485 138 OFFCURVE",
"504 143 CURVE SMOOTH",
"542 153 OFFCURVE",
"548 174 OFFCURVE",
"559 204 CURVE",
"589 171 OFFCURVE",
"652 144 OFFCURVE",
"706 144 CURVE SMOOTH",
"711 144 OFFCURVE",
"714 147 OFFCURVE",
"714 152 CURVE SMOOTH",
"714 254 LINE SMOOTH",
"714 260 OFFCURVE",
"711 262 OFFCURVE",
"706 262 CURVE SMOOTH",
"655 262 OFFCURVE",
"616 271 OFFCURVE",
"586 289 CURVE",
"612 373 OFFCURVE",
"624 406 OFFCURVE",
"632 428 CURVE",
"622 435 OFFCURVE",
"611 439 OFFCURVE",
"598 439 CURVE SMOOTH",
"575 439 OFFCURVE",
"556 426 OFFCURVE",
"548 408 CURVE SMOOTH",
"533 366 OFFCURVE",
"521 336 OFFCURVE",
"513 314 CURVE SMOOTH",
"501 282 OFFCURVE",
"495 268 OFFCURVE",
"491 261 CURVE",
"468 254 OFFCURVE",
"444 250 OFFCURVE",
"419 250 CURVE SMOOTH",
"410 251 OFFCURVE",
"401 251 OFFCURVE",
"392 251 CURVE",
"423 351 OFFCURVE",
"438 399 OFFCURVE",
"446 419 CURVE",
"436 427 OFFCURVE",
"424 430 OFFCURVE",
"411 430 CURVE SMOOTH",
"387 430 OFFCURVE",
"369 417 OFFCURVE",
"362 400 CURVE SMOOTH",
"332 319 OFFCURVE",
"317 281 OFFCURVE",
"307 265 CURVE",
"270 254 OFFCURVE",
"262 254 OFFCURVE",
"235 254 CURVE SMOOTH",
"217 254 OFFCURVE",
"199 255 OFFCURVE",
"181 257 CURVE",
"197 298 OFFCURVE",
"212 338 OFFCURVE",
"229 378 CURVE",
"218 385 OFFCURVE",
"208 389 OFFCURVE",
"198 389 CURVE SMOOTH",
"180 389 OFFCURVE",
"164 378 OFFCURVE",
"156 364 CURVE SMOOTH",
"130 318 OFFCURVE",
"121 302 OFFCURVE",
"106 288 CURVE SMOOTH",
"87 269 OFFCURVE",
"61 262 OFFCURVE",
"0 262 CURVE SMOOTH",
"-6 262 OFFCURVE",
"-8 260 OFFCURVE",
"-8 254 CURVE SMOOTH",
"-8 152 LINE SMOOTH",
"-8 147 OFFCURVE",
"-6 144 OFFCURVE",
"0 144 CURVE SMOOTH",
"42 144 OFFCURVE",
"88 154 OFFCURVE",
"115 167 CURVE",
"159 146 OFFCURVE",
"197 135 OFFCURVE",
"230 135 CURVE SMOOTH"
);
}
);
width = 697;
}
);
unicode = FEB4;
},
{
glyphname = uniFEB3;
lastChange = "2019-12-19 08:47:14 +0000";
layers = (
{
anchors = (
{
name = bottom;
position = "{336, 83}";
},
{
name = top;
position = "{339, 465}";
}
);
layerId = master01;
paths = (
{
closed = 1;
nodes = (
"271 136 OFFCURVE",
"336 142 OFFCURVE",
"348 162 CURVE SMOOTH",
"351 167 OFFCURVE",
"354 173 OFFCURVE",
"356 178 CURVE",
"428 145 OFFCURVE",
"482 135 OFFCURVE",
"568 135 CURVE",
"587 171 OFFCURVE",
"607 235 OFFCURVE",
"607 258 CURVE SMOOTH",
"607 315 OFFCURVE",
"576 418 OFFCURVE",
"568 475 CURVE",
"527 451 OFFCURVE",
"502 420 OFFCURVE",
"502 391 CURVE SMOOTH",
"502 370 OFFCURVE",
"549 254 OFFCURVE",
"560 214 CURVE",
"492 214 OFFCURVE",
"453 223 OFFCURVE",
"383 253 CURVE",
"403 316 OFFCURVE",
"417 359 OFFCURVE",
"427 380 CURVE",
"420 385 OFFCURVE",
"412 387 OFFCURVE",
"403 387 CURVE SMOOTH",
"382 387 OFFCURVE",
"375 381 OFFCURVE",
"363 355 CURVE SMOOTH",
"349 326 OFFCURVE",
"328 241 OFFCURVE",
"315 221 CURVE",
"294 215 OFFCURVE",
"268 211 OFFCURVE",
"237 211 CURVE SMOOTH",
"194 211 OFFCURVE",
"158 219 OFFCURVE",
"148 224 CURVE",
"155 234 OFFCURVE",
"169 264 OFFCURVE",
"189 315 CURVE",
"182 320 OFFCURVE",
"174 322 OFFCURVE",
"165 322 CURVE SMOOTH",
"150 322 OFFCURVE",
"140 317 OFFCURVE",
"134 306 CURVE SMOOTH",
"108 264 OFFCURVE",
"104 252 OFFCURVE",
"81 234 CURVE SMOOTH",
"59 217 OFFCURVE",
"37 211 OFFCURVE",
"0 211 CURVE SMOOTH",
"-6 211 OFFCURVE",
"-8 208 OFFCURVE",
"-8 203 CURVE SMOOTH",
"-8 143 LINE SMOOTH",
"-8 138 OFFCURVE",
"-6 135 OFFCURVE",
"0 135 CURVE SMOOTH",
"45 135 OFFCURVE",
"85 147 OFFCURVE",
"104 166 CURVE",
"130 150 OFFCURVE",
"187 135 OFFCURVE",
"226 135 CURVE SMOOTH"
);
}
);
width = 658;
},
{
anchors = (
{
name = bottom;
position = "{336, 77}";
},
{
name = top;
position = "{339, 508}";
}
);
layerId = "26E2967D-790C-4793-AF2A-2D0AD74EDC69";
paths = (
{
closed = 1;
nodes = (
"288 135 OFFCURVE",
"346 147 OFFCURVE",
"356 162 CURVE SMOOTH",
"360 169 OFFCURVE",
"364 177 OFFCURVE",
"368 186 CURVE",
"438 155 OFFCURVE",
"527 135 OFFCURVE",
"607 135 CURVE",
"625 171 OFFCURVE",
"649 244 OFFCURVE",
"649 277 CURVE SMOOTH",
"649 303 OFFCURVE",
"640 348 OFFCURVE",
"607 518 CURVE",
"557 493 OFFCURVE",
"516 448 OFFCURVE",
"516 416 CURVE SMOOTH",
"516 386 OFFCURVE",
"550 326 OFFCURVE",
"591 245 CURVE",
"519 253 OFFCURVE",
"455 264 OFFCURVE",
"404 290 CURVE",
"416 334 OFFCURVE",
"430 379 OFFCURVE",
"446 419 CURVE",
"436 427 OFFCURVE",
"424 430 OFFCURVE",
"411 430 CURVE SMOOTH",
"387 430 OFFCURVE",
"369 417 OFFCURVE",
"362 400 CURVE SMOOTH",
"332 318 OFFCURVE",
"316 280 OFFCURVE",
"307 265 CURVE",
"280 257 OFFCURVE",
"262 254 OFFCURVE",
"235 254 CURVE SMOOTH",
"217 254 OFFCURVE",
"199 255 OFFCURVE",
"181 257 CURVE",
"192 281 OFFCURVE",
"208 322 OFFCURVE",
"229 378 CURVE",
"218 385 OFFCURVE",
"208 389 OFFCURVE",
"198 389 CURVE SMOOTH",
"180 389 OFFCURVE",
"164 378 OFFCURVE",
"156 364 CURVE SMOOTH",
"128 316 OFFCURVE",
"120 302 OFFCURVE",
"106 288 CURVE SMOOTH",
"87 269 OFFCURVE",
"61 262 OFFCURVE",
"0 262 CURVE SMOOTH",
"-6 262 OFFCURVE",
"-8 260 OFFCURVE",
"-8 254 CURVE SMOOTH",
"-8 152 LINE SMOOTH",
"-8 147 OFFCURVE",
"-6 144 OFFCURVE",
"0 144 CURVE SMOOTH",
"42 144 OFFCURVE",
"88 154 OFFCURVE",
"115 167 CURVE",
"159 146 OFFCURVE",
"197 135 OFFCURVE",
"230 135 CURVE SMOOTH"
);
}
);
width = 700;
}
);
unicode = FEB3;
},
{
glyphname = uni0635;
lastChange = "2019-12-19 08:47:14 +0000";
layers = (
{
anchors = (
{
name = bottom;
position = "{791, 83}";
},
{
name = top;
position = "{719, 541}";
}
);
layerId = master01;
paths = (
{
closed = 1;
nodes = (
"297 -127 OFFCURVE",
"344 -115 OFFCURVE",
"389 -91 CURVE SMOOTH",
"480 -44 OFFCURVE",
"535 36 OFFCURVE",
"535 118 CURVE SMOOTH",
"535 132 OFFCURVE",
"534 145 OFFCURVE",
"533 159 CURVE",
"592 143 OFFCURVE",
"656 135 OFFCURVE",
"723 135 CURVE SMOOTH",
"781 135 OFFCURVE",
"836 144 OFFCURVE",
"888 163 CURVE SMOOTH",
"993 201 OFFCURVE",
"1044 265 OFFCURVE",
"1044 346 CURVE SMOOTH",
"1044 364 OFFCURVE",
"1034 384 OFFCURVE",
"1014 407 CURVE SMOOTH",
"974 454 OFFCURVE",
"909 492 OFFCURVE",
"868 492 CURVE SMOOTH",
"780 492 OFFCURVE",
"675 413 OFFCURVE",
"541 238 CURVE",
"518 246 LINE",
"507 303 OFFCURVE",
"501 342 OFFCURVE",
"498 361 CURVE",
"450 332 OFFCURVE",
"433 306 OFFCURVE",
"433 272 CURVE SMOOTH",
"433 240 OFFCURVE",
"454 176 OFFCURVE",
"498 81 CURVE",
"465 10 OFFCURVE",
"350 -44 OFFCURVE",
"251 -44 CURVE SMOOTH",
"164 -44 OFFCURVE",
"113 13 OFFCURVE",
"113 111 CURVE SMOOTH",
"113 129 OFFCURVE",
"117 153 OFFCURVE",
"124 182 CURVE",
"87 191 LINE",
"71 125 OFFCURVE",
"68 100 OFFCURVE",
"68 61 CURVE SMOOTH",
"68 -59 OFFCURVE",
"135 -127 OFFCURVE",
"249 -127 CURVE SMOOTH"
);
},
{
closed = 1;
nodes = (
"691 211 OFFCURVE",
"643 216 OFFCURVE",
"588 225 CURVE",
"683 339 OFFCURVE",
"778 408 OFFCURVE",
"843 408 CURVE SMOOTH",
"898 408 OFFCURVE",
"959 367 OFFCURVE",
"1000 297 CURVE",
"908 240 OFFCURVE",
"819 211 OFFCURVE",
"732 211 CURVE SMOOTH"
);
}
);
width = 1096;
},
{
anchors = (
{
name = bottom;
position = "{810, 59}";
},
{
name = top;
position = "{666, 608}";
}
);
layerId = "26E2967D-790C-4793-AF2A-2D0AD74EDC69";
paths = (
{
closed = 1;
nodes = (
"306 -117 OFFCURVE",
"357 -107 OFFCURVE",
"403 -85 CURVE SMOOTH",
"495 -42 OFFCURVE",
"552 39 OFFCURVE",
"552 128 CURVE",
"552 138 OFFCURVE",
"551 148 OFFCURVE",
"551 158 CURVE",
"617 143 OFFCURVE",
"680 135 OFFCURVE",
"741 135 CURVE SMOOTH",
"801 135 OFFCURVE",
"858 145 OFFCURVE",
"914 165 CURVE SMOOTH",
"1025 204 OFFCURVE",
"1081 274 OFFCURVE",
"1081 361 CURVE SMOOTH",
"1081 380 OFFCURVE",
"1069 404 OFFCURVE",
"1045 432 CURVE SMOOTH",
"997 489 OFFCURVE",
"927 535 OFFCURVE",
"878 535 CURVE SMOOTH",
"800 535 OFFCURVE",
"694 447 OFFCURVE",
"561 270 CURVE",
"534 279 LINE",
"521 352 OFFCURVE",
"513 403 OFFCURVE",
"513 405 CURVE",
"444 371 OFFCURVE",
"412 329 OFFCURVE",
"412 279 CURVE SMOOTH",
"412 241 OFFCURVE",
"450 178 OFFCURVE",
"497 90 CURVE",
"426 26 OFFCURVE",
"359 1 OFFCURVE",
"254 1 CURVE SMOOTH",
"165 1 OFFCURVE",
"123 47 OFFCURVE",
"123 142 CURVE SMOOTH",
"123 165 OFFCURVE",
"128 192 OFFCURVE",
"137 222 CURVE",
"93 233 LINE",
"76 170 OFFCURVE",
"68 122 OFFCURVE",
"68 88 CURVE SMOOTH",
"68 -45 OFFCURVE",
"132 -117 OFFCURVE",
"251 -117 CURVE SMOOTH"
);
},
{
closed = 1;
nodes = (
"717 245 OFFCURVE",
"675 249 OFFCURVE",
"626 255 CURVE",
"693 332 OFFCURVE",
"783 417 OFFCURVE",
"854 417 CURVE SMOOTH",
"906 417 OFFCURVE",
"963 383 OFFCURVE",
"1022 314 CURVE",
"925 267 OFFCURVE",
"847 245 OFFCURVE",
"751 245 CURVE SMOOTH"
);
}
);
width = 1131;
}
);
unicode = "0635,FEB9";
},
{
glyphname = uniFEBA;
lastChange = "2019-12-19 08:47:14 +0000";
layers = (
{
anchors = (
{
name = bottom;
position = "{801, 83}";
},
{
name = top;
position = "{729, 541}";
}
);
layerId = master01;
paths = (
{
closed = 1;
nodes = (
"297 -127 OFFCURVE",
"344 -115 OFFCURVE",
"389 -91 CURVE SMOOTH",
"480 -44 OFFCURVE",
"535 36 OFFCURVE",
"535 118 CURVE SMOOTH",
"535 132 OFFCURVE",
"534 145 OFFCURVE",
"533 159 CURVE",
"592 143 OFFCURVE",
"656 135 OFFCURVE",
"723 135 CURVE SMOOTH",
"810 135 OFFCURVE",
"899 159 OFFCURVE",
"957 195 CURVE",
"989 161 OFFCURVE",
"1051 135 OFFCURVE",
"1108 135 CURVE SMOOTH",
"1113 135 OFFCURVE",
"1116 138 OFFCURVE",
"1116 143 CURVE SMOOTH",
"1116 203 LINE SMOOTH",
"1116 208 OFFCURVE",
"1113 211 OFFCURVE",
"1108 211 CURVE SMOOTH",
"1068 211 OFFCURVE",
"1034 220 OFFCURVE",
"1004 237 CURVE",
"1031 267 OFFCURVE",
"1044 304 OFFCURVE",
"1044 346 CURVE SMOOTH",
"1044 364 OFFCURVE",
"1034 384 OFFCURVE",
"1014 407 CURVE SMOOTH",
"974 454 OFFCURVE",
"909 492 OFFCURVE",
"868 492 CURVE SMOOTH",
"780 492 OFFCURVE",
"675 413 OFFCURVE",
"541 238 CURVE",
"518 246 LINE",
"510 291 OFFCURVE",
"502 327 OFFCURVE",
"498 361 CURVE",
"450 332 OFFCURVE",
"433 306 OFFCURVE",
"433 272 CURVE SMOOTH",
"433 240 OFFCURVE",
"454 176 OFFCURVE",
"498 81 CURVE",
"465 10 OFFCURVE",
"350 -44 OFFCURVE",
"251 -44 CURVE SMOOTH",
"164 -44 OFFCURVE",
"113 13 OFFCURVE",
"113 111 CURVE SMOOTH",
"113 129 OFFCURVE",
"117 153 OFFCURVE",
"124 182 CURVE",
"87 191 LINE",
"71 125 OFFCURVE",
"68 100 OFFCURVE",
"68 61 CURVE SMOOTH",
"68 -59 OFFCURVE",
"135 -127 OFFCURVE",
"249 -127 CURVE SMOOTH"
);
},
{
closed = 1;
nodes = (
"691 211 OFFCURVE",
"643 216 OFFCURVE",
"588 225 CURVE",
"619 262 OFFCURVE",
"650 295 OFFCURVE",
"680 322 CURVE SMOOTH",
"742 377 OFFCURVE",
"799 408 OFFCURVE",
"843 408 CURVE SMOOTH",
"898 408 OFFCURVE",
"959 367 OFFCURVE",
"1000 297 CURVE",
"908 240 OFFCURVE",
"819 211 OFFCURVE",
"732 211 CURVE SMOOTH"
);
}
);
width = 1099;
},
{
anchors = (
{
name = bottom;
position = "{815, 59}";
},
{
name = top;
position = "{670, 608}";
}
);
layerId = "26E2967D-790C-4793-AF2A-2D0AD74EDC69";
paths = (
{
closed = 1;
nodes = (
"306 -117 OFFCURVE",
"357 -107 OFFCURVE",
"403 -85 CURVE SMOOTH",
"495 -42 OFFCURVE",
"552 39 OFFCURVE",
"552 128 CURVE",
"552 138 OFFCURVE",
"551 148 OFFCURVE",
"551 158 CURVE",
"617 143 OFFCURVE",
"680 135 OFFCURVE",
"741 135 CURVE SMOOTH",
"847 135 OFFCURVE",
"955 169 OFFCURVE",
"1020 225 CURVE",
"1066 174 OFFCURVE",
"1132 144 OFFCURVE",
"1195 144 CURVE SMOOTH",
"1201 144 OFFCURVE",
"1204 147 OFFCURVE",
"1204 152 CURVE SMOOTH",
"1204 254 LINE SMOOTH",
"1204 260 OFFCURVE",
"1201 262 OFFCURVE",
"1195 262 CURVE SMOOTH",
"1146 262 OFFCURVE",
"1122 271 OFFCURVE",
"1071 301 CURVE",
"1077 319 OFFCURVE",
"1081 339 OFFCURVE",
"1081 361 CURVE SMOOTH",
"1081 380 OFFCURVE",
"1069 404 OFFCURVE",
"1045 432 CURVE SMOOTH",
"997 489 OFFCURVE",
"927 535 OFFCURVE",
"878 535 CURVE SMOOTH",
"800 535 OFFCURVE",
"694 447 OFFCURVE",
"561 270 CURVE",
"534 279 LINE",
"527 321 OFFCURVE",
"520 363 OFFCURVE",
"513 405 CURVE",
"444 371 OFFCURVE",
"412 329 OFFCURVE",
"412 273 CURVE SMOOTH",
"412 254 OFFCURVE",
"417 242 OFFCURVE",
"497 90 CURVE",
"426 26 OFFCURVE",
"359 1 OFFCURVE",
"254 1 CURVE SMOOTH",
"165 1 OFFCURVE",
"123 47 OFFCURVE",
"123 142 CURVE SMOOTH",
"123 165 OFFCURVE",
"128 192 OFFCURVE",
"137 222 CURVE",
"93 233 LINE",
"76 170 OFFCURVE",
"68 122 OFFCURVE",
"68 88 CURVE SMOOTH",
"68 -45 OFFCURVE",
"132 -117 OFFCURVE",
"251 -117 CURVE SMOOTH"
);
},
{
closed = 1;
nodes = (
"717 245 OFFCURVE",
"675 249 OFFCURVE",
"626 255 CURVE",
"654 287 OFFCURVE",
"682 316 OFFCURVE",
"710 341 CURVE SMOOTH",
"767 392 OFFCURVE",
"814 417 OFFCURVE",
"854 417 CURVE SMOOTH",
"906 417 OFFCURVE",
"963 383 OFFCURVE",
"1022 314 CURVE",
"925 267 OFFCURVE",
"847 245 OFFCURVE",
"751 245 CURVE SMOOTH"
);
}
);
width = 1187;
}
);
unicode = FEBA;
},
{
glyphname = uniFEBC;
lastChange = "2019-12-19 08:47:14 +0000";
layers = (
{
anchors = (
{
name = bottom;
position = "{486, 83}";
},
{
name = top;
position = "{406, 541}";
}
);
layerId = master01;
paths = (
{
closed = 1;
nodes = (
"428 135 OFFCURVE",
"460 138 OFFCURVE",
"491 144 CURVE SMOOTH",
"545 155 OFFCURVE",
"596 173 OFFCURVE",
"633 197 CURVE",
"669 160 OFFCURVE",
"729 135 OFFCURVE",
"786 135 CURVE SMOOTH",
"792 135 OFFCURVE",
"795 138 OFFCURVE",
"795 143 CURVE SMOOTH",
"795 203 LINE SMOOTH",
"795 208 OFFCURVE",
"792 211 OFFCURVE",
"786 211 CURVE SMOOTH",
"745 211 OFFCURVE",
"710 220 OFFCURVE",
"680 239 CURVE",
"705 270 OFFCURVE",
"718 306 OFFCURVE",
"718 346 CURVE SMOOTH",
"718 365 OFFCURVE",
"707 386 OFFCURVE",
"686 410 CURVE SMOOTH",
"642 458 OFFCURVE",
"579 492 OFFCURVE",
"542 492 CURVE SMOOTH",
"497 492 OFFCURVE",
"448 471 OFFCURVE",
"395 430 CURVE SMOOTH",
"340 387 OFFCURVE",
"280 323 OFFCURVE",
"215 238 CURVE",
"198 243 OFFCURVE",
"182 250 OFFCURVE",
"166 258 CURVE",
"171 270 OFFCURVE",
"181 293 OFFCURVE",
"195 327 CURVE",
"189 333 OFFCURVE",
"181 336 OFFCURVE",
"172 336 CURVE SMOOTH",
"158 336 OFFCURVE",
"147 330 OFFCURVE",
"140 319 CURVE SMOOTH",
"135 309 OFFCURVE",
"130 300 OFFCURVE",
"125 291 CURVE SMOOTH",
"89 228 OFFCURVE",
"60 211 OFFCURVE",
"0 211 CURVE SMOOTH",
"-6 211 OFFCURVE",
"-8 208 OFFCURVE",
"-8 203 CURVE SMOOTH",
"-8 143 LINE SMOOTH",
"-8 138 OFFCURVE",
"-6 135 OFFCURVE",
"0 135 CURVE SMOOTH",
"51 135 OFFCURVE",
"87 147 OFFCURVE",
"109 172 CURVE SMOOTH",
"115 178 OFFCURVE",
"121 185 OFFCURVE",
"126 191 CURVE",
"186 158 OFFCURVE",
"300 135 OFFCURVE",
"396 135 CURVE SMOOTH"
);
},
{
closed = 1;
nodes = (
"362 211 OFFCURVE",
"314 216 OFFCURVE",
"262 226 CURVE",
"364 346 OFFCURVE",
"453 408 OFFCURVE",
"517 408 CURVE SMOOTH",
"572 408 OFFCURVE",
"633 367 OFFCURVE",
"673 297 CURVE",
"582 240 OFFCURVE",
"493 211 OFFCURVE",
"406 211 CURVE SMOOTH"
);
}
);
width = 778;
},
{
anchors = (
{
name = bottom;
position = "{481, 77}";
},
{
name = top;
position = "{342, 608}";
}
);
layerId = "26E2967D-790C-4793-AF2A-2D0AD74EDC69";
paths = (
{
closed = 1;
nodes = (
"439 135 OFFCURVE",
"473 139 OFFCURVE",
"509 146 CURVE SMOOTH",
"581 161 OFFCURVE",
"649 192 OFFCURVE",
"681 223 CURVE",
"729 171 OFFCURVE",
"793 144 OFFCURVE",
"854 144 CURVE SMOOTH",
"860 144 OFFCURVE",
"863 147 OFFCURVE",
"863 152 CURVE SMOOTH",
"863 254 LINE SMOOTH",
"863 260 OFFCURVE",
"860 262 OFFCURVE",
"854 262 CURVE SMOOTH",
"807 262 OFFCURVE",
"781 271 OFFCURVE",
"733 299 CURVE",
"740 317 OFFCURVE",
"744 338 OFFCURVE",
"744 361 CURVE SMOOTH",
"744 378 OFFCURVE",
"733 401 OFFCURVE",
"710 429 CURVE SMOOTH",
"666 485 OFFCURVE",
"591 535 OFFCURVE",
"542 535 CURVE SMOOTH",
"503 535 OFFCURVE",
"458 514 OFFCURVE",
"407 471 CURVE SMOOTH",
"355 429 OFFCURVE",
"294 362 OFFCURVE",
"225 270 CURVE",
"211 275 OFFCURVE",
"198 279 OFFCURVE",
"184 284 CURVE",
"197 316 OFFCURVE",
"210 348 OFFCURVE",
"223 381 CURVE",
"213 387 OFFCURVE",
"202 391 OFFCURVE",
"191 391 CURVE SMOOTH",
"172 391 OFFCURVE",
"156 382 OFFCURVE",
"146 364 CURVE SMOOTH",
"141 354 OFFCURVE",
"136 345 OFFCURVE",
"131 336 CURVE SMOOTH",
"97 274 OFFCURVE",
"79 262 OFFCURVE",
"0 262 CURVE SMOOTH",
"-6 262 OFFCURVE",
"-8 260 OFFCURVE",
"-8 254 CURVE SMOOTH",
"-8 152 LINE SMOOTH",
"-8 147 OFFCURVE",
"-6 144 OFFCURVE",
"0 144 CURVE SMOOTH",
"43 144 OFFCURVE",
"88 154 OFFCURVE",
"116 173 CURVE SMOOTH",
"123 177 OFFCURVE",
"129 182 OFFCURVE",
"133 188 CURVE",
"213 150 OFFCURVE",
"316 135 OFFCURVE",
"405 135 CURVE SMOOTH"
);
},
{
closed = 1;
nodes = (
"375 245 OFFCURVE",
"334 249 OFFCURVE",
"291 256 CURVE",
"378 358 OFFCURVE",
"458 417 OFFCURVE",
"517 417 CURVE SMOOTH",
"570 417 OFFCURVE",
"626 383 OFFCURVE",
"686 314 CURVE",
"588 267 OFFCURVE",
"511 245 OFFCURVE",
"415 245 CURVE SMOOTH"
);
}
);
width = 846;
}
);
unicode = FEBC;
},
{
glyphname = uniFEBB;
lastChange = "2019-12-19 08:47:14 +0000";
layers = (
{
anchors = (
{
name = bottom;
position = "{486, 83}";
},
{
name = top;
position = "{406, 541}";
}
);
layerId = master01;
paths = (
{
closed = 1;
nodes = (
"454 135 OFFCURVE",
"509 144 OFFCURVE",
"561 163 CURVE SMOOTH",
"666 200 OFFCURVE",
"718 264 OFFCURVE",
"718 346 CURVE SMOOTH",
"718 365 OFFCURVE",
"707 386 OFFCURVE",
"686 410 CURVE SMOOTH",
"642 458 OFFCURVE",
"579 492 OFFCURVE",
"542 492 CURVE SMOOTH",
"496 492 OFFCURVE",
"446 470 OFFCURVE",
"391 427 CURVE SMOOTH",
"337 385 OFFCURVE",
"278 322 OFFCURVE",
"215 238 CURVE",
"198 243 OFFCURVE",
"182 250 OFFCURVE",
"166 258 CURVE",
"171 270 OFFCURVE",
"181 293 OFFCURVE",
"195 327 CURVE",
"189 333 OFFCURVE",
"181 336 OFFCURVE",
"172 336 CURVE SMOOTH",
"158 336 OFFCURVE",
"147 330 OFFCURVE",
"140 319 CURVE SMOOTH",
"135 309 OFFCURVE",
"130 300 OFFCURVE",
"125 291 CURVE SMOOTH",
"89 228 OFFCURVE",
"60 211 OFFCURVE",
"0 211 CURVE SMOOTH",
"-6 211 OFFCURVE",
"-8 208 OFFCURVE",
"-8 203 CURVE SMOOTH",
"-8 143 LINE SMOOTH",
"-8 138 OFFCURVE",
"-6 135 OFFCURVE",
"0 135 CURVE SMOOTH",
"51 135 OFFCURVE",
"87 147 OFFCURVE",
"109 172 CURVE SMOOTH",
"115 178 OFFCURVE",
"121 185 OFFCURVE",
"126 191 CURVE",
"186 158 OFFCURVE",
"300 135 OFFCURVE",
"396 135 CURVE SMOOTH"
);
},
{
closed = 1;
nodes = (
"362 211 OFFCURVE",
"314 216 OFFCURVE",
"262 226 CURVE",
"364 346 OFFCURVE",
"453 408 OFFCURVE",
"517 408 CURVE SMOOTH",
"572 408 OFFCURVE",
"633 367 OFFCURVE",
"673 297 CURVE",
"582 240 OFFCURVE",
"493 211 OFFCURVE",
"406 211 CURVE SMOOTH"
);
}
);
width = 786;
},
{
anchors = (
{
name = bottom;
position = "{481, 77}";
},
{
name = top;
position = "{342, 608}";
}
);
layerId = "26E2967D-790C-4793-AF2A-2D0AD74EDC69";
paths = (
{
closed = 1;
nodes = (
"465 135 OFFCURVE",
"523 145 OFFCURVE",
"578 165 CURVE SMOOTH",
"689 206 OFFCURVE",
"744 273 OFFCURVE",
"744 361 CURVE SMOOTH",
"744 378 OFFCURVE",
"733 401 OFFCURVE",
"710 429 CURVE SMOOTH",
"666 485 OFFCURVE",
"591 535 OFFCURVE",
"542 535 CURVE SMOOTH",
"503 535 OFFCURVE",
"458 514 OFFCURVE",
"407 471 CURVE SMOOTH",
"355 429 OFFCURVE",
"294 362 OFFCURVE",
"225 270 CURVE",
"211 275 OFFCURVE",
"198 279 OFFCURVE",
"184 284 CURVE",
"197 316 OFFCURVE",
"210 348 OFFCURVE",
"223 381 CURVE",
"213 387 OFFCURVE",
"202 391 OFFCURVE",
"191 391 CURVE SMOOTH",
"172 391 OFFCURVE",
"156 382 OFFCURVE",
"146 364 CURVE SMOOTH",
"140 352 OFFCURVE",
"134 343 OFFCURVE",
"129 334 CURVE SMOOTH",
"92 270 OFFCURVE",
"76 262 OFFCURVE",
"0 262 CURVE SMOOTH",
"-6 262 OFFCURVE",
"-8 260 OFFCURVE",
"-8 254 CURVE SMOOTH",
"-8 152 LINE SMOOTH",
"-8 147 OFFCURVE",
"-6 144 OFFCURVE",
"0 144 CURVE SMOOTH",
"42 144 OFFCURVE",
"86 154 OFFCURVE",
"114 171 CURVE SMOOTH",
"122 176 OFFCURVE",
"128 182 OFFCURVE",
"133 188 CURVE",
"213 150 OFFCURVE",
"316 135 OFFCURVE",
"405 135 CURVE SMOOTH"
);
},
{
closed = 1;
nodes = (
"375 245 OFFCURVE",
"334 249 OFFCURVE",
"291 256 CURVE",
"378 358 OFFCURVE",
"458 417 OFFCURVE",
"517 417 CURVE SMOOTH",
"570 417 OFFCURVE",
"626 383 OFFCURVE",
"686 314 CURVE",
"588 267 OFFCURVE",
"511 245 OFFCURVE",
"415 245 CURVE SMOOTH"
);
}
);
width = 795;
}
);
unicode = FEBB;
},
{
glyphname = uni0637;
lastChange = "2019-12-19 08:47:14 +0000";
layers = (
{
anchors = (
{
name = bottom;
position = "{392, 83}";
},
{
name = top;
position = "{531, 570}";
}
);
layerId = master01;
paths = (
{
closed = 1;
nodes = (
"454 135 OFFCURVE",
"509 144 OFFCURVE",
"561 163 CURVE SMOOTH",
"666 200 OFFCURVE",
"718 264 OFFCURVE",
"718 346 CURVE SMOOTH",
"718 365 OFFCURVE",
"707 386 OFFCURVE",
"686 410 CURVE SMOOTH",
"642 458 OFFCURVE",
"579 492 OFFCURVE",
"542 492 CURVE SMOOTH",
"476 492 OFFCURVE",
"396 442 OFFCURVE",
"302 342 CURVE",
"301 367 OFFCURVE",
"300 393 OFFCURVE",
"298 421 CURVE SMOOTH",
"295 456 OFFCURVE",
"279 601 OFFCURVE",
"272 664 CURVE",
"299 687 LINE",
"281 743 OFFCURVE",
"271 774 OFFCURVE",
"264 806 CURVE",
"217 797 OFFCURVE",
"197 772 OFFCURVE",
"197 727 CURVE SMOOTH",
"197 675 OFFCURVE",
"219 531 OFFCURVE",
"262 297 CURVE",
"243 274 OFFCURVE",
"224 250 OFFCURVE",
"204 225 CURVE",
"152 233 OFFCURVE",
"102 244 OFFCURVE",
"53 256 CURVE",
"42 221 LINE",
"82 193 OFFCURVE",
"157 154 OFFCURVE",
"192 147 CURVE SMOOTH",
"226 141 OFFCURVE",
"315 135 OFFCURVE",
"396 135 CURVE SMOOTH"
);
},
{
closed = 1;
nodes = (
"356 211 OFFCURVE",
"306 213 OFFCURVE",
"255 218 CURVE",
"354 338 OFFCURVE",
"451 408 OFFCURVE",
"517 408 CURVE SMOOTH",
"572 408 OFFCURVE",
"633 367 OFFCURVE",
"673 297 CURVE",
"582 240 OFFCURVE",
"493 211 OFFCURVE",
"406 211 CURVE SMOOTH"
);
}
);
width = 769;
},
{
anchors = (
{
name = bottom;
position = "{401, 77}";
},
{
name = top;
position = "{526, 628}";
}
);
layerId = "26E2967D-790C-4793-AF2A-2D0AD74EDC69";
paths = (
{
closed = 1;
nodes = (
"463 135 OFFCURVE",
"520 145 OFFCURVE",
"576 165 CURVE SMOOTH",
"686 206 OFFCURVE",
"741 273 OFFCURVE",
"741 361 CURVE SMOOTH",
"741 379 OFFCURVE",
"729 403 OFFCURVE",
"706 432 CURVE SMOOTH",
"658 489 OFFCURVE",
"587 535 OFFCURVE",
"539 535 CURVE SMOOTH",
"478 535 OFFCURVE",
"399 481 OFFCURVE",
"304 373 CURVE",
"302 397 OFFCURVE",
"301 417 OFFCURVE",
"300 434 CURVE SMOOTH",
"288 596 OFFCURVE",
"296 487 OFFCURVE",
"282 668 CURVE",
"314 692 LINE",
"298 732 OFFCURVE",
"285 773 OFFCURVE",
"273 815 CURVE",
"217 815 OFFCURVE",
"172 772 OFFCURVE",
"172 717 CURVE SMOOTH",
"172 679 OFFCURVE",
"200 549 OFFCURVE",
"252 310 CURVE",
"239 293 OFFCURVE",
"226 275 OFFCURVE",
"212 258 CURVE",
"173 264 OFFCURVE",
"119 274 OFFCURVE",
"49 291 CURVE",
"34 248 LINE",
"86 202 OFFCURVE",
"148 159 OFFCURVE",
"175 151 CURVE SMOOTH",
"209 141 OFFCURVE",
"325 135 OFFCURVE",
"402 135 CURVE SMOOTH"
);
},
{
closed = 1;
nodes = (
"370 245 OFFCURVE",
"327 247 OFFCURVE",
"283 250 CURVE",
"385 366 OFFCURVE",
"458 417 OFFCURVE",
"514 417 CURVE SMOOTH",
"567 417 OFFCURVE",
"624 383 OFFCURVE",
"684 314 CURVE",
"589 268 OFFCURVE",
"510 245 OFFCURVE",
"412 245 CURVE SMOOTH"
);
}
);
width = 792;
}
);
unicode = "0637,FEC1";
},
{
glyphname = uniFEC2;
lastChange = "2019-12-19 08:47:14 +0000";
layers = (
{
anchors = (
{
name = bottom;
position = "{450, 73}";
},
{
name = top;
position = "{530, 570}";
}
);
layerId = master01;
paths = (
{
closed = 1;
nodes = (
"483 135 OFFCURVE",
"572 158 OFFCURVE",
"631 196 CURVE",
"666 161 OFFCURVE",
"727 135 OFFCURVE",
"784 135 CURVE SMOOTH",
"790 135 OFFCURVE",
"792 138 OFFCURVE",
"792 143 CURVE SMOOTH",
"792 203 LINE SMOOTH",
"792 208 OFFCURVE",
"790 211 OFFCURVE",
"784 211 CURVE SMOOTH",
"745 211 OFFCURVE",
"710 220 OFFCURVE",
"680 237 CURVE",
"704 267 OFFCURVE",
"718 304 OFFCURVE",
"718 346 CURVE SMOOTH",
"718 365 OFFCURVE",
"707 386 OFFCURVE",
"686 410 CURVE SMOOTH",
"642 458 OFFCURVE",
"579 492 OFFCURVE",
"542 492 CURVE SMOOTH",
"476 492 OFFCURVE",
"396 442 OFFCURVE",
"303 343 CURVE",
"302 385 OFFCURVE",
"299 427 OFFCURVE",
"293 468 CURVE SMOOTH",
"292 481 OFFCURVE",
"285 545 OFFCURVE",
"272 664 CURVE",
"299 687 LINE",
"281 741 OFFCURVE",
"272 774 OFFCURVE",
"264 806 CURVE",
"215 795 OFFCURVE",
"198 770 OFFCURVE",
"198 725 CURVE SMOOTH",
"198 718 OFFCURVE",
"198 710 OFFCURVE",
"199 699 CURVE SMOOTH",
"204 643 OFFCURVE",
"219 539 OFFCURVE",
"233 468 CURVE SMOOTH",
"243 411 OFFCURVE",
"252 354 OFFCURVE",
"262 297 CURVE",
"243 274 OFFCURVE",
"224 250 OFFCURVE",
"204 225 CURVE",
"63 252 OFFCURVE",
"219 220 OFFCURVE",
"53 256 CURVE",
"42 221 LINE",
"82 193 OFFCURVE",
"157 154 OFFCURVE",
"192 147 CURVE SMOOTH",
"226 141 OFFCURVE",
"315 135 OFFCURVE",
"396 135 CURVE SMOOTH"
);
},
{
closed = 1;
nodes = (
"356 211 OFFCURVE",
"306 213 OFFCURVE",
"255 218 CURVE",
"354 338 OFFCURVE",
"451 408 OFFCURVE",
"517 408 CURVE SMOOTH",
"572 408 OFFCURVE",
"633 367 OFFCURVE",
"673 297 CURVE",
"582 240 OFFCURVE",
"493 211 OFFCURVE",
"406 211 CURVE SMOOTH"
);
}
);
width = 775;
},
{
anchors = (
{
name = bottom;
position = "{436, 77}";
},
{
name = top;
position = "{560, 628}";
}
);
layerId = "26E2967D-790C-4793-AF2A-2D0AD74EDC69";
paths = (
{
closed = 1;
nodes = (
"538 135 OFFCURVE",
"648 168 OFFCURVE",
"711 222 CURVE",
"757 172 OFFCURVE",
"821 144 OFFCURVE",
"883 144 CURVE SMOOTH",
"889 144 OFFCURVE",
"892 147 OFFCURVE",
"892 152 CURVE SMOOTH",
"892 254 LINE SMOOTH",
"892 260 OFFCURVE",
"889 262 OFFCURVE",
"883 262 CURVE SMOOTH",
"840 262 OFFCURVE",
"800 274 OFFCURVE",
"765 297 CURVE",
"772 316 OFFCURVE",
"775 337 OFFCURVE",
"775 361 CURVE SMOOTH",
"775 379 OFFCURVE",
"764 403 OFFCURVE",
"740 432 CURVE SMOOTH",
"692 489 OFFCURVE",
"622 535 OFFCURVE",
"573 535 CURVE SMOOTH",
"512 535 OFFCURVE",
"434 481 OFFCURVE",
"338 373 CURVE",
"336 411 OFFCURVE",
"333 449 OFFCURVE",
"330 487 CURVE SMOOTH",
"326 548 OFFCURVE",
"321 608 OFFCURVE",
"316 668 CURVE",
"348 692 LINE",
"333 729 OFFCURVE",
"320 770 OFFCURVE",
"308 815 CURVE",
"251 815 OFFCURVE",
"206 772 OFFCURVE",
"206 717 CURVE SMOOTH",
"206 710 OFFCURVE",
"207 702 OFFCURVE",
"208 694 CURVE SMOOTH",
"221 628 OFFCURVE",
"235 555 OFFCURVE",
"251 477 CURVE SMOOTH",
"262 424 OFFCURVE",
"273 368 OFFCURVE",
"286 309 CURVE",
"273 292 OFFCURVE",
"259 275 OFFCURVE",
"246 258 CURVE",
"200 265 OFFCURVE",
"146 276 OFFCURVE",
"83 291 CURVE",
"68 248 LINE",
"118 203 OFFCURVE",
"182 159 OFFCURVE",
"209 151 CURVE SMOOTH",
"244 141 OFFCURVE",
"361 135 OFFCURVE",
"436 135 CURVE SMOOTH"
);
},
{
closed = 1;
nodes = (
"404 245 OFFCURVE",
"361 247 OFFCURVE",
"317 250 CURVE",
"413 361 OFFCURVE",
"490 417 OFFCURVE",
"548 417 CURVE SMOOTH",
"601 417 OFFCURVE",
"658 383 OFFCURVE",
"718 314 CURVE",
"618 266 OFFCURVE",
"541 245 OFFCURVE",
"446 245 CURVE SMOOTH"
);
}
);
width = 875;
}
);
unicode = FEC2;
},
{
glyphname = uniFEC4;
lastChange = "2019-12-19 08:47:14 +0000";
layers = (
{
anchors = (
{
name = bottom;
position = "{357, 83}";
},
{
name = top;
position = "{423, 582}";
}
);
layerId = master01;
paths = (
{
closed = 1;
nodes = (
"228 135 OFFCURVE",
"390 159 OFFCURVE",
"481 201 CURVE",
"512 164 OFFCURVE",
"578 135 OFFCURVE",
"638 135 CURVE SMOOTH",
"643 135 OFFCURVE",
"646 138 OFFCURVE",
"646 143 CURVE SMOOTH",
"646 203 LINE SMOOTH",
"646 208 OFFCURVE",
"643 211 OFFCURVE",
"638 211 CURVE SMOOTH",
"601 211 OFFCURVE",
"568 219 OFFCURVE",
"539 234 CURVE",
"586 267 OFFCURVE",
"609 309 OFFCURVE",
"609 358 CURVE SMOOTH",
"609 376 OFFCURVE",
"598 398 OFFCURVE",
"577 422 CURVE SMOOTH",
"533 470 OFFCURVE",
"470 504 OFFCURVE",
"433 504 CURVE SMOOTH",
"371 504 OFFCURVE",
"285 447 OFFCURVE",
"191 343 CURVE",
"190 358 OFFCURVE",
"188 401 OFFCURVE",
"181 468 CURVE SMOOTH",
"179 491 OFFCURVE",
"164 620 OFFCURVE",
"161 665 CURVE",
"187 687 LINE",
"166 754 OFFCURVE",
"158 780 OFFCURVE",
"151 806 CURVE",
"104 795 OFFCURVE",
"85 771 OFFCURVE",
"85 727 CURVE SMOOTH",
"86 672 OFFCURVE",
"107 535 OFFCURVE",
"150 296 CURVE",
"128 269 OFFCURVE",
"107 241 OFFCURVE",
"86 212 CURVE",
"57 212 OFFCURVE",
"29 212 OFFCURVE",
"0 211 CURVE SMOOTH",
"-6 211 OFFCURVE",
"-8 208 OFFCURVE",
"-8 203 CURVE SMOOTH",
"-8 143 LINE SMOOTH",
"-8 138 OFFCURVE",
"-6 135 OFFCURVE",
"0 135 CURVE SMOOTH"
);
},
{
closed = 1;
nodes = (
"250 344 OFFCURVE",
"348 421 OFFCURVE",
"408 421 CURVE SMOOTH",
"467 421 OFFCURVE",
"524 381 OFFCURVE",
"563 314 CURVE",
"506 285 OFFCURVE",
"462 264 OFFCURVE",
"431 253 CURVE SMOOTH",
"369 230 OFFCURVE",
"274 218 OFFCURVE",
"142 213 CURVE"
);
}
);
width = 629;
},
{
anchors = (
{
name = bottom;
position = "{357, 77}";
},
{
name = top;
position = "{428, 645}";
}
);
layerId = "26E2967D-790C-4793-AF2A-2D0AD74EDC69";
paths = (
{
closed = 1;
nodes = (
"273 144 OFFCURVE",
"435 175 OFFCURVE",
"535 229 CURVE",
"581 176 OFFCURVE",
"648 144 OFFCURVE",
"714 144 CURVE SMOOTH",
"720 144 OFFCURVE",
"723 147 OFFCURVE",
"723 152 CURVE SMOOTH",
"723 254 LINE SMOOTH",
"723 260 OFFCURVE",
"720 262 OFFCURVE",
"714 262 CURVE SMOOTH",
"675 262 OFFCURVE",
"640 271 OFFCURVE",
"607 289 CURVE",
"630 320 OFFCURVE",
"642 353 OFFCURVE",
"642 389 CURVE SMOOTH",
"642 406 OFFCURVE",
"629 430 OFFCURVE",
"605 459 CURVE SMOOTH",
"557 517 OFFCURVE",
"493 552 OFFCURVE",
"438 552 CURVE SMOOTH",
"372 552 OFFCURVE",
"292 497 OFFCURVE",
"197 386 CURVE",
"195 421 OFFCURVE",
"192 455 OFFCURVE",
"189 490 CURVE SMOOTH",
"185 549 OFFCURVE",
"180 609 OFFCURVE",
"176 668 CURVE",
"208 692 LINE",
"193 729 OFFCURVE",
"180 770 OFFCURVE",
"167 815 CURVE",
"110 815 OFFCURVE",
"65 772 OFFCURVE",
"65 717 CURVE SMOOTH",
"65 695 OFFCURVE",
"79 631 OFFCURVE",
"144 320 CURVE",
"130 302 OFFCURVE",
"117 283 OFFCURVE",
"103 263 CURVE",
"69 263 OFFCURVE",
"34 263 OFFCURVE",
"0 262 CURVE SMOOTH",
"-6 262 OFFCURVE",
"-8 260 OFFCURVE",
"-8 254 CURVE SMOOTH",
"-8 152 LINE SMOOTH",
"-8 147 OFFCURVE",
"-6 144 OFFCURVE",
"0 144 CURVE SMOOTH"
);
},
{
closed = 1;
nodes = (
"275 375 OFFCURVE",
"353 430 OFFCURVE",
"414 430 CURVE SMOOTH",
"471 430 OFFCURVE",
"508 407 OFFCURVE",
"577 331 CURVE",
"450 295 OFFCURVE",
"409 287 OFFCURVE",
"358 278 CURVE SMOOTH",
"306 269 OFFCURVE",
"194 265 OFFCURVE",
"181 265 CURVE"
);
}
);
width = 706;
}
);
unicode = FEC4;
},
{
glyphname = uniFEC3;
lastChange = "2019-12-19 08:47:14 +0000";
layers = (
{
anchors = (
{
name = bottom;
position = "{357, 83}";
},
{
name = top;
position = "{421, 582}";
}
);
layerId = master01;
paths = (
{
closed = 1;
nodes = (
"139 135 OFFCURVE",
"253 144 OFFCURVE",
"342 161 CURVE SMOOTH",
"520 195 OFFCURVE",
"609 262 OFFCURVE",
"609 358 CURVE SMOOTH",
"609 376 OFFCURVE",
"598 398 OFFCURVE",
"577 422 CURVE SMOOTH",
"533 470 OFFCURVE",
"470 504 OFFCURVE",
"433 504 CURVE SMOOTH",
"371 504 OFFCURVE",
"285 447 OFFCURVE",
"191 343 CURVE",
"190 358 OFFCURVE",
"188 416 OFFCURVE",
"181 468 CURVE SMOOTH",
"177 497 OFFCURVE",
"163 635 OFFCURVE",
"161 665 CURVE",
"187 687 LINE",
"171 738 OFFCURVE",
"163 760 OFFCURVE",
"151 806 CURVE",
"104 795 OFFCURVE",
"85 771 OFFCURVE",
"85 727 CURVE SMOOTH",
"86 672 OFFCURVE",
"107 535 OFFCURVE",
"150 296 CURVE",
"128 269 OFFCURVE",
"107 241 OFFCURVE",
"86 212 CURVE",
"83 212 LINE",
"0 211 LINE SMOOTH",
"-6 211 OFFCURVE",
"-8 208 OFFCURVE",
"-8 203 CURVE SMOOTH",
"-8 143 LINE SMOOTH",
"-8 138 OFFCURVE",
"-6 135 OFFCURVE",
"0 135 CURVE SMOOTH"
);
},
{
closed = 1;
nodes = (
"250 344 OFFCURVE",
"348 421 OFFCURVE",
"408 421 CURVE SMOOTH",
"467 421 OFFCURVE",
"524 381 OFFCURVE",
"563 314 CURVE",
"506 285 OFFCURVE",
"462 264 OFFCURVE",
"431 253 CURVE SMOOTH",
"369 230 OFFCURVE",
"274 218 OFFCURVE",
"142 213 CURVE"
);
}
);
width = 660;
},
{
anchors = (
{
name = bottom;
position = "{357, 77}";
},
{
name = top;
position = "{428, 645}";
}
);
layerId = "26E2967D-790C-4793-AF2A-2D0AD74EDC69";
paths = (
{
closed = 1;
nodes = (
"153 144 OFFCURVE",
"276 154 OFFCURVE",
"369 173 CURVE SMOOTH",
"555 212 OFFCURVE",
"642 285 OFFCURVE",
"642 389 CURVE SMOOTH",
"642 406 OFFCURVE",
"629 430 OFFCURVE",
"605 459 CURVE SMOOTH",
"557 517 OFFCURVE",
"493 552 OFFCURVE",
"438 552 CURVE SMOOTH",
"372 552 OFFCURVE",
"292 497 OFFCURVE",
"197 386 CURVE",
"195 418 OFFCURVE",
"192 448 OFFCURVE",
"190 480 CURVE SMOOTH",
"185 542 OFFCURVE",
"181 605 OFFCURVE",
"176 668 CURVE",
"208 692 LINE",
"193 729 OFFCURVE",
"180 770 OFFCURVE",
"167 815 CURVE",
"110 815 OFFCURVE",
"65 772 OFFCURVE",
"65 717 CURVE SMOOTH",
"65 696 OFFCURVE",
"78 637 OFFCURVE",
"144 320 CURVE",
"130 302 OFFCURVE",
"117 283 OFFCURVE",
"103 263 CURVE",
"83 263 LINE",
"0 262 LINE SMOOTH",
"-6 262 OFFCURVE",
"-8 260 OFFCURVE",
"-8 254 CURVE SMOOTH",
"-8 152 LINE SMOOTH",
"-8 147 OFFCURVE",
"-6 144 OFFCURVE",
"0 144 CURVE SMOOTH"
);
},
{
closed = 1;
nodes = (
"275 375 OFFCURVE",
"353 430 OFFCURVE",
"414 430 CURVE SMOOTH",
"471 430 OFFCURVE",
"508 407 OFFCURVE",
"577 331 CURVE",
"450 295 OFFCURVE",
"409 287 OFFCURVE",
"358 278 CURVE SMOOTH",
"306 269 OFFCURVE",
"194 265 OFFCURVE",
"181 265 CURVE"
);
}
);
width = 693;
}
);
unicode = FEC3;
},
{
glyphname = uni0639;
lastChange = "2019-12-19 13:45:34 +0000";
layers = (
{
anchors = (
{
name = bottom;
position = "{85, -164}";
},
{
name = top;
position = "{224, 648}";
}
);
layerId = master01;
paths = (
{
closed = 1;
nodes = (
"451 -151 OFFCURVE",
"537 -125 OFFCURVE",
"629 -74 CURVE",
"618 -40 LINE",
"567 -52 OFFCURVE",
"520 -60 OFFCURVE",
"468 -64 CURVE SMOOTH",
"439 -67 OFFCURVE",
"408 -68 OFFCURVE",
"375 -68 CURVE SMOOTH",
"227 -68 OFFCURVE",
"150 -14 OFFCURVE",
"150 81 CURVE SMOOTH",
"150 110 OFFCURVE",
"159 137 OFFCURVE",
"175 164 CURVE SMOOTH",
"205 211 OFFCURVE",
"260 252 OFFCURVE",
"360 295 CURVE SMOOTH",
"395 308 OFFCURVE",
"425 321 OFFCURVE",
"444 335 CURVE SMOOTH",
"464 349 OFFCURVE",
"471 364 OFFCURVE",
"471 381 CURVE SMOOTH",
"471 392 OFFCURVE",
"467 402 OFFCURVE",
"460 412 CURVE",
"392 390 OFFCURVE",
"334 364 OFFCURVE",
"285 334 CURVE",
"187 350 OFFCURVE",
"130 404 OFFCURVE",
"130 483 CURVE",
"174 507 OFFCURVE",
"217 519 OFFCURVE",
"258 519 CURVE SMOOTH",
"282 519 OFFCURVE",
"313 513 OFFCURVE",
"353 501 CURVE",
"370 533 LINE",
"311 581 OFFCURVE",
"280 599 OFFCURVE",
"233 599 CURVE SMOOTH",
"206 599 OFFCURVE",
"180 590 OFFCURVE",
"156 570 CURVE SMOOTH",
"106 532 OFFCURVE",
"73 463 OFFCURVE",
"73 406 CURVE SMOOTH",
"73 384 OFFCURVE",
"78 364 OFFCURVE",
"90 345 CURVE SMOOTH",
"113 307 OFFCURVE",
"154 276 OFFCURVE",
"195 264 CURVE",
"141 206 OFFCURVE",
"114 140 OFFCURVE",
"114 65 CURVE SMOOTH",
"114 -66 OFFCURVE",
"216 -151 OFFCURVE",
"372 -151 CURVE SMOOTH"
);
}
);
width = 604;
},
{
anchors = (
{
name = bottom;
position = "{85, -184}";
},
{
name = top;
position = "{239, 683}";
}
);
layerId = "26E2967D-790C-4793-AF2A-2D0AD74EDC69";
paths = (
{
closed = 1;
nodes = (
"408 -166 OFFCURVE",
"498 -128 OFFCURVE",
"613 -57 CURVE",
"600 -15 LINE",
"530 -31 OFFCURVE",
"481 -41 OFFCURVE",
"453 -45 CURVE SMOOTH",
"424 -49 OFFCURVE",
"396 -51 OFFCURVE",
"369 -51 CURVE SMOOTH",
"236 -51 OFFCURVE",
"164 -6 OFFCURVE",
"164 70 CURVE SMOOTH",
"164 94 OFFCURVE",
"171 118 OFFCURVE",
"185 140 CURVE SMOOTH",
"213 184 OFFCURVE",
"263 217 OFFCURVE",
"379 263 CURVE SMOOTH",
"415 278 OFFCURVE",
"439 289 OFFCURVE",
"450 297 CURVE SMOOTH",
"475 314 OFFCURVE",
"486 336 OFFCURVE",
"486 364 CURVE SMOOTH",
"486 388 OFFCURVE",
"482 405 OFFCURVE",
"475 415 CURVE",
"403 391 OFFCURVE",
"339 362 OFFCURVE",
"281 328 CURVE",
"205 346 OFFCURVE",
"158 396 OFFCURVE",
"154 468 CURVE",
"197 491 OFFCURVE",
"229 500 OFFCURVE",
"276 500 CURVE SMOOTH",
"306 500 OFFCURVE",
"341 493 OFFCURVE",
"381 477 CURVE",
"402 517 LINE",
"347 579 OFFCURVE",
"296 610 OFFCURVE",
"250 610 CURVE SMOOTH",
"223 610 OFFCURVE",
"197 600 OFFCURVE",
"172 579 CURVE SMOOTH",
"121 537 OFFCURVE",
"83 456 OFFCURVE",
"83 396 CURVE SMOOTH",
"83 379 OFFCURVE",
"87 362 OFFCURVE",
"95 344 CURVE SMOOTH",
"111 308 OFFCURVE",
"145 273 OFFCURVE",
"188 253 CURVE",
"138 199 OFFCURVE",
"113 136 OFFCURVE",
"113 64 CURVE SMOOTH",
"113 -77 OFFCURVE",
"210 -166 OFFCURVE",
"367 -166 CURVE SMOOTH"
);
}
);
width = 604;
}
);
unicode = "0639,FEC9";
},
{
glyphname = uniFECA;
lastChange = "2019-12-19 13:39:31 +0000";
layers = (
{
anchors = (
{
name = bottom;
position = "{59, -155}";
},
{
name = top;
position = "{247, 558}";
}
);
layerId = master01;
paths = (
{
closed = 1;
nodes = (
"393 -151 OFFCURVE",
"443 -133 OFFCURVE",
"542 -72 CURVE",
"527 -38 LINE",
"432 -67 OFFCURVE",
"405 -71 OFFCURVE",
"341 -71 CURVE SMOOTH",
"204 -71 OFFCURVE",
"145 -34 OFFCURVE",
"145 42 CURVE SMOOTH",
"145 99 OFFCURVE",
"177 140 OFFCURVE",
"254 192 CURVE",
"317 147 OFFCURVE",
"369 135 OFFCURVE",
"483 135 CURVE SMOOTH",
"490 135 OFFCURVE",
"493 138 OFFCURVE",
"493 144 CURVE SMOOTH",
"493 202 LINE SMOOTH",
"493 208 OFFCURVE",
"490 211 OFFCURVE",
"483 211 CURVE SMOOTH",
"399 211 OFFCURVE",
"354 216 OFFCURVE",
"316 232 CURVE",
"385 280 OFFCURVE",
"414 327 OFFCURVE",
"414 384 CURVE SMOOTH",
"414 455 OFFCURVE",
"350 509 OFFCURVE",
"264 509 CURVE SMOOTH",
"237 509 OFFCURVE",
"210 505 OFFCURVE",
"183 497 CURVE SMOOTH",
"128 481 OFFCURVE",
"68 450 OFFCURVE",
"68 403 CURVE SMOOTH",
"68 386 OFFCURVE",
"75 371 OFFCURVE",
"87 358 CURVE",
"103 368 LINE",
"113 360 OFFCURVE",
"125 348 OFFCURVE",
"136 334 CURVE SMOOTH",
"148 321 OFFCURVE",
"167 295 OFFCURVE",
"193 258 CURVE SMOOTH",
"200 247 OFFCURVE",
"209 237 OFFCURVE",
"218 227 CURVE",
"136 158 OFFCURVE",
"109 118 OFFCURVE",
"109 41 CURVE SMOOTH",
"109 7 OFFCURVE",
"117 -24 OFFCURVE",
"132 -50 CURVE SMOOTH",
"166 -113 OFFCURVE",
"238 -151 OFFCURVE",
"332 -151 CURVE SMOOTH"
);
},
{
closed = 1;
nodes = (
"245 294 LINE SMOOTH",
"219 326 OFFCURVE",
"200 348 OFFCURVE",
"186 363 CURVE SMOOTH",
"173 377 OFFCURVE",
"160 388 OFFCURVE",
"149 397 CURVE",
"186 417 OFFCURVE",
"225 427 OFFCURVE",
"267 427 CURVE SMOOTH",
"312 427 OFFCURVE",
"342 400 OFFCURVE",
"342 363 CURVE SMOOTH",
"342 349 OFFCURVE",
"337 335 OFFCURVE",
"327 321 CURVE SMOOTH",
"317 307 OFFCURVE",
"298 288 OFFCURVE",
"270 266 CURVE"
);
}
);
width = 477;
},
{
anchors = (
{
name = bottom;
position = "{95, -140}";
},
{
name = top;
position = "{267, 625}";
}
);
layerId = "26E2967D-790C-4793-AF2A-2D0AD74EDC69";
paths = (
{
closed = 1;
nodes = (
"401 -166 OFFCURVE",
"452 -140 OFFCURVE",
"574 -67 CURVE",
"561 -24 LINE",
"481 -42 OFFCURVE",
"415 -51 OFFCURVE",
"363 -51 CURVE SMOOTH",
"231 -51 OFFCURVE",
"160 -10 OFFCURVE",
"160 63 CURVE SMOOTH",
"160 113 OFFCURVE",
"196 162 OFFCURVE",
"270 209 CURVE",
"326 162 OFFCURVE",
"393 144 OFFCURVE",
"483 144 CURVE SMOOTH",
"490 144 OFFCURVE",
"494 147 OFFCURVE",
"494 153 CURVE SMOOTH",
"494 253 LINE SMOOTH",
"494 259 OFFCURVE",
"490 262 OFFCURVE",
"483 262 CURVE SMOOTH",
"432 262 OFFCURVE",
"394 264 OFFCURVE",
"363 269 CURVE",
"418 314 OFFCURVE",
"446 361 OFFCURVE",
"446 410 CURVE SMOOTH",
"446 487 OFFCURVE",
"369 552 OFFCURVE",
"280 552 CURVE SMOOTH",
"248 552 OFFCURVE",
"215 546 OFFCURVE",
"180 533 CURVE SMOOTH",
"110 509 OFFCURVE",
"69 476 OFFCURVE",
"69 431 CURVE SMOOTH",
"69 407 OFFCURVE",
"78 386 OFFCURVE",
"95 367 CURVE",
"114 380 LINE",
"125 370 OFFCURVE",
"136 360 OFFCURVE",
"148 349 CURVE SMOOTH",
"170 326 OFFCURVE",
"193 298 OFFCURVE",
"208 279 CURVE SMOOTH",
"215 269 OFFCURVE",
"222 260 OFFCURVE",
"224 257 CURVE",
"143 192 OFFCURVE",
"108 124 OFFCURVE",
"108 43 CURVE SMOOTH",
"108 2 OFFCURVE",
"119 -35 OFFCURVE",
"140 -67 CURVE SMOOTH",
"183 -130 OFFCURVE",
"264 -166 OFFCURVE",
"367 -166 CURVE SMOOTH"
);
},
{
closed = 1;
nodes = (
"264 330 LINE SMOOTH",
"243 354 OFFCURVE",
"224 375 OFFCURVE",
"207 391 CURVE SMOOTH",
"196 401 OFFCURVE",
"187 409 OFFCURVE",
"178 417 CURVE",
"221 436 OFFCURVE",
"249 441 OFFCURVE",
"283 441 CURVE SMOOTH",
"318 441 OFFCURVE",
"346 421 OFFCURVE",
"346 387 CURVE SMOOTH",
"346 374 OFFCURVE",
"343 363 OFFCURVE",
"336 351 CURVE SMOOTH",
"327 336 OFFCURVE",
"312 321 OFFCURVE",
"289 304 CURVE"
);
}
);
width = 477;
}
);
unicode = FECA;
},
{
glyphname = uniFECC;
lastChange = "2019-12-19 08:47:14 +0000";
layers = (
{
anchors = (
{
name = bottom;
position = "{221, 83}";
},
{
name = top;
position = "{211, 558}";
}
);
layerId = master01;
paths = (
{
closed = 1;
nodes = (
"82 135 OFFCURVE",
"146 152 OFFCURVE",
"219 189 CURVE",
"271 152 OFFCURVE",
"330 135 OFFCURVE",
"421 135 CURVE SMOOTH",
"427 135 OFFCURVE",
"431 138 OFFCURVE",
"431 144 CURVE SMOOTH",
"431 202 LINE SMOOTH",
"431 208 OFFCURVE",
"427 211 OFFCURVE",
"421 211 CURVE SMOOTH",
"359 211 OFFCURVE",
"314 217 OFFCURVE",
"286 229 CURVE",
"339 272 OFFCURVE",
"375 321 OFFCURVE",
"375 384 CURVE SMOOTH",
"375 408 OFFCURVE",
"368 430 OFFCURVE",
"355 448 CURVE SMOOTH",
"330 485 OFFCURVE",
"283 509 OFFCURVE",
"226 509 CURVE SMOOTH",
"197 509 OFFCURVE",
"169 505 OFFCURVE",
"141 496 CURVE SMOOTH",
"86 479 OFFCURVE",
"30 449 OFFCURVE",
"30 402 CURVE SMOOTH",
"30 385 OFFCURVE",
"36 371 OFFCURVE",
"48 358 CURVE",
"64 368 LINE",
"74 361 OFFCURVE",
"85 350 OFFCURVE",
"97 335 CURVE SMOOTH",
"109 322 OFFCURVE",
"128 296 OFFCURVE",
"154 258 CURVE",
"172 235 LINE",
"127 219 OFFCURVE",
"70 211 OFFCURVE",
"1 211 CURVE SMOOTH",
"-5 211 OFFCURVE",
"-8 208 OFFCURVE",
"-8 202 CURVE SMOOTH",
"-8 144 LINE SMOOTH",
"-8 138 OFFCURVE",
"-5 135 OFFCURVE",
"1 135 CURVE SMOOTH"
);
},
{
closed = 1;
nodes = (
"222 276 OFFCURVE",
"214 285 OFFCURVE",
"207 294 CURVE SMOOTH",
"167 344 OFFCURVE",
"135 378 OFFCURVE",
"111 397 CURVE",
"149 417 OFFCURVE",
"188 427 OFFCURVE",
"229 427 CURVE SMOOTH",
"273 427 OFFCURVE",
"304 400 OFFCURVE",
"304 363 CURVE SMOOTH",
"304 332 OFFCURVE",
"276 297 OFFCURVE",
"231 267 CURVE"
);
}
);
width = 414;
},
{
anchors = (
{
name = bottom;
position = "{230, 77}";
},
{
name = top;
position = "{226, 625}";
}
);
layerId = "26E2967D-790C-4793-AF2A-2D0AD74EDC69";
paths = (
{
closed = 1;
nodes = (
"88 144 OFFCURVE",
"167 164 OFFCURVE",
"239 205 CURVE",
"284 166 OFFCURVE",
"361 144 OFFCURVE",
"455 144 CURVE SMOOTH",
"462 144 OFFCURVE",
"465 147 OFFCURVE",
"465 153 CURVE SMOOTH",
"465 253 LINE SMOOTH",
"465 259 OFFCURVE",
"462 262 OFFCURVE",
"455 262 CURVE SMOOTH",
"407 262 OFFCURVE",
"367 264 OFFCURVE",
"331 269 CURVE",
"381 315 OFFCURVE",
"409 362 OFFCURVE",
"409 410 CURVE SMOOTH",
"409 435 OFFCURVE",
"401 458 OFFCURVE",
"386 480 CURVE SMOOTH",
"356 525 OFFCURVE",
"300 552 OFFCURVE",
"242 552 CURVE SMOOTH",
"211 552 OFFCURVE",
"177 546 OFFCURVE",
"143 534 CURVE SMOOTH",
"73 509 OFFCURVE",
"31 476 OFFCURVE",
"31 431 CURVE SMOOTH",
"31 407 OFFCURVE",
"40 386 OFFCURVE",
"58 367 CURVE",
"76 380 LINE",
"86 371 OFFCURVE",
"97 362 OFFCURVE",
"108 351 CURVE SMOOTH",
"122 337 OFFCURVE",
"137 321 OFFCURVE",
"156 296 CURVE",
"176 271 LINE",
"130 263 OFFCURVE",
"71 262 OFFCURVE",
"1 262 CURVE SMOOTH",
"-5 262 OFFCURVE",
"-8 259 OFFCURVE",
"-8 253 CURVE SMOOTH",
"-8 153 LINE SMOOTH",
"-8 147 OFFCURVE",
"-5 144 OFFCURVE",
"1 144 CURVE SMOOTH"
);
},
{
closed = 1;
nodes = (
"245 311 OFFCURVE",
"236 321 OFFCURVE",
"228 330 CURVE SMOOTH",
"186 375 OFFCURVE",
"156 404 OFFCURVE",
"141 417 CURVE",
"184 436 OFFCURVE",
"211 441 OFFCURVE",
"246 441 CURVE SMOOTH",
"282 441 OFFCURVE",
"309 420 OFFCURVE",
"309 387 CURVE SMOOTH",
"309 355 OFFCURVE",
"289 324 OFFCURVE",
"254 301 CURVE"
);
}
);
width = 448;
}
);
unicode = FECC;
},
{
glyphname = uniFECB;
lastChange = "2019-12-19 08:47:14 +0000";
layers = (
{
anchors = (
{
name = bottom;
position = "{278, 83}";
},
{
name = top;
position = "{214, 558}";
}
);
layerId = master01;
paths = (
{
closed = 1;
nodes = (
"137 135 OFFCURVE",
"248 151 OFFCURVE",
"386 186 CURVE SMOOTH",
"419 194 OFFCURVE",
"451 202 OFFCURVE",
"457 205 CURVE SMOOTH",
"472 214 OFFCURVE",
"479 227 OFFCURVE",
"479 251 CURVE SMOOTH",
"479 266 OFFCURVE",
"475 279 OFFCURVE",
"466 287 CURVE",
"382 254 OFFCURVE",
"347 243 OFFCURVE",
"296 233 CURVE",
"260 235 OFFCURVE",
"229 243 OFFCURVE",
"203 257 CURVE SMOOTH",
"150 286 OFFCURVE",
"122 335 OFFCURVE",
"122 392 CURVE",
"166 417 OFFCURVE",
"209 429 OFFCURVE",
"250 429 CURVE SMOOTH",
"279 429 OFFCURVE",
"294 426 OFFCURVE",
"347 406 CURVE",
"365 438 LINE",
"309 487 OFFCURVE",
"271 509 OFFCURVE",
"225 509 CURVE SMOOTH",
"198 509 OFFCURVE",
"172 499 OFFCURVE",
"148 480 CURVE SMOOTH",
"99 442 OFFCURVE",
"65 372 OFFCURVE",
"65 315 CURVE SMOOTH",
"65 274 OFFCURVE",
"93 235 OFFCURVE",
"125 214 CURVE",
"84 212 OFFCURVE",
"43 211 OFFCURVE",
"0 211 CURVE SMOOTH",
"-6 211 OFFCURVE",
"-8 208 OFFCURVE",
"-8 203 CURVE SMOOTH",
"-8 143 LINE SMOOTH",
"-8 138 OFFCURVE",
"-6 135 OFFCURVE",
"0 135 CURVE SMOOTH"
);
}
);
width = 505;
},
{
anchors = (
{
name = bottom;
position = "{273, 77}";
},
{
name = top;
position = "{209, 611}";
}
);
layerId = "26E2967D-790C-4793-AF2A-2D0AD74EDC69";
paths = (
{
closed = 1;
nodes = (
"146 144 OFFCURVE",
"250 152 OFFCURVE",
"353 174 CURVE SMOOTH",
"404 184 OFFCURVE",
"437 193 OFFCURVE",
"449 199 CURVE SMOOTH",
"475 212 OFFCURVE",
"491 241 OFFCURVE",
"491 273 CURVE SMOOTH",
"491 289 OFFCURVE",
"486 312 OFFCURVE",
"475 322 CURVE",
"391 288 OFFCURVE",
"314 272 OFFCURVE",
"209 266 CURVE",
"201 270 OFFCURVE",
"193 275 OFFCURVE",
"186 280 CURVE SMOOTH",
"149 307 OFFCURVE",
"131 347 OFFCURVE",
"128 396 CURVE",
"169 418 OFFCURVE",
"203 428 OFFCURVE",
"250 428 CURVE SMOOTH",
"279 428 OFFCURVE",
"314 421 OFFCURVE",
"355 405 CURVE",
"376 446 LINE",
"321 507 OFFCURVE",
"271 538 OFFCURVE",
"225 538 CURVE SMOOTH",
"199 538 OFFCURVE",
"173 528 OFFCURVE",
"148 508 CURVE SMOOTH",
"97 468 OFFCURVE",
"57 386 OFFCURVE",
"57 324 CURVE SMOOTH",
"57 303 OFFCURVE",
"64 282 OFFCURVE",
"78 262 CURVE",
"52 262 OFFCURVE",
"26 262 OFFCURVE",
"0 262 CURVE SMOOTH",
"-6 262 OFFCURVE",
"-8 260 OFFCURVE",
"-8 254 CURVE SMOOTH",
"-8 152 LINE SMOOTH",
"-8 147 OFFCURVE",
"-6 144 OFFCURVE",
"0 144 CURVE SMOOTH"
);
}
);
width = 517;
}
);
unicode = FECB;
},
{
glyphname = uni06A1.fina;
lastChange = "2019-12-19 08:47:14 +0000";
layers = (
{
anchors = (
{
name = bottom;
position = "{619, 83}";
},
{
name = top;
position = "{620, 575}";
}
);
layerId = master01;
paths = (
{
closed = 1;
nodes = (
"446 135 OFFCURVE",
"555 151 OFFCURVE",
"621 175 CURVE",
"675 148 OFFCURVE",
"744 135 OFFCURVE",
"826 135 CURVE SMOOTH",
"832 135 OFFCURVE",
"834 138 OFFCURVE",
"834 143 CURVE SMOOTH",
"834 203 LINE SMOOTH",
"834 208 OFFCURVE",
"832 211 OFFCURVE",
"826 211 CURVE SMOOTH",
"784 211 OFFCURVE",
"743 215 OFFCURVE",
"704 222 CURVE",
"743 256 OFFCURVE",
"762 298 OFFCURVE",
"762 346 CURVE SMOOTH",
"762 375 OFFCURVE",
"757 403 OFFCURVE",
"747 432 CURVE SMOOTH",
"727 488 OFFCURVE",
"692 526 OFFCURVE",
"657 526 CURVE SMOOTH",
"592 526 OFFCURVE",
"534 486 OFFCURVE",
"499 422 CURVE SMOOTH",
"491 408 OFFCURVE",
"481 347 OFFCURVE",
"481 318 CURVE SMOOTH",
"481 288 OFFCURVE",
"496 254 OFFCURVE",
"521 228 CURVE",
"465 217 OFFCURVE",
"406 211 OFFCURVE",
"342 211 CURVE SMOOTH",
"287 211 OFFCURVE",
"243 217 OFFCURVE",
"209 227 CURVE SMOOTH",
"142 249 OFFCURVE",
"114 285 OFFCURVE",
"114 366 CURVE SMOOTH",
"114 382 OFFCURVE",
"115 399 OFFCURVE",
"118 415 CURVE",
"82 415 LINE",
"72 383 OFFCURVE",
"68 347 OFFCURVE",
"68 305 CURVE SMOOTH",
"68 192 OFFCURVE",
"152 135 OFFCURVE",
"320 135 CURVE SMOOTH"
);
},
{
closed = 1;
nodes = (
"576 271 OFFCURVE",
"546 296 OFFCURVE",
"519 327 CURVE",
"550 388 OFFCURVE",
"610 441 OFFCURVE",
"648 441 CURVE SMOOTH",
"655 441 OFFCURVE",
"665 434 OFFCURVE",
"677 419 CURVE SMOOTH",
"701 391 OFFCURVE",
"719 349 OFFCURVE",
"723 316 CURVE",
"695 292 OFFCURVE",
"658 272 OFFCURVE",
"611 254 CURVE"
);
}
);
width = 817;
},
{
anchors = (
{
name = bottom;
position = "{619, 83}";
},
{
name = top;
position = "{620, 585}";
}
);
layerId = "26E2967D-790C-4793-AF2A-2D0AD74EDC69";
paths = (
{
closed = 1;
nodes = (
"422 135 OFFCURVE",
"544 154 OFFCURVE",
"615 179 CURVE",
"671 156 OFFCURVE",
"744 144 OFFCURVE",
"834 144 CURVE SMOOTH",
"840 144 OFFCURVE",
"843 147 OFFCURVE",
"843 152 CURVE SMOOTH",
"843 254 LINE SMOOTH",
"843 260 OFFCURVE",
"840 262 OFFCURVE",
"834 262 CURVE SMOOTH",
"804 263 OFFCURVE",
"773 263 OFFCURVE",
"742 263 CURVE",
"762 290 OFFCURVE",
"772 315 OFFCURVE",
"772 339 CURVE SMOOTH",
"772 368 OFFCURVE",
"766 398 OFFCURVE",
"754 429 CURVE SMOOTH",
"731 492 OFFCURVE",
"692 535 OFFCURVE",
"655 535 CURVE SMOOTH",
"595 535 OFFCURVE",
"524 482 OFFCURVE",
"488 414 CURVE SMOOTH",
"479 398 OFFCURVE",
"470 344 OFFCURVE",
"470 309 CURVE SMOOTH",
"470 293 OFFCURVE",
"476 277 OFFCURVE",
"488 260 CURVE",
"401 253 OFFCURVE",
"378 253 OFFCURVE",
"343 253 CURVE SMOOTH",
"291 253 OFFCURVE",
"249 259 OFFCURVE",
"217 270 CURVE SMOOTH",
"154 291 OFFCURVE",
"124 330 OFFCURVE",
"124 408 CURVE SMOOTH",
"124 423 OFFCURVE",
"125 440 OFFCURVE",
"127 458 CURVE",
"83 458 LINE",
"69 412 OFFCURVE",
"63 376 OFFCURVE",
"63 348 CURVE SMOOTH",
"63 210 OFFCURVE",
"145 135 OFFCURVE",
"307 135 CURVE SMOOTH"
);
},
{
closed = 1;
nodes = (
"585 269 OFFCURVE",
"549 291 OFFCURVE",
"524 319 CURVE",
"569 381 OFFCURVE",
"609 412 OFFCURVE",
"645 412 CURVE SMOOTH",
"652 412 OFFCURVE",
"662 406 OFFCURVE",
"671 395 CURVE SMOOTH",
"688 376 OFFCURVE",
"706 343 OFFCURVE",
"715 308 CURVE",
"691 286 OFFCURVE",
"658 270 OFFCURVE",
"617 259 CURVE"
);
}
);
width = 832;
}
);
},
{
glyphname = uni066F;
lastChange = "2019-12-19 13:29:00 +0000";
layers = (
{
anchors = (
{
name = bottom;
position = "{4, -159}";
},
{
name = top;
position = "{394, 524}";
}
);
layerId = master01;
paths = (
{
closed = 1;
nodes = (
"344 -127 OFFCURVE",
"436 -91 OFFCURVE",
"499 -36 CURVE SMOOTH",
"562 19 OFFCURVE",
"596 92 OFFCURVE",
"596 176 CURVE SMOOTH",
"596 227 OFFCURVE",
"588 276 OFFCURVE",
"572 321 CURVE SMOOTH",
"539 413 OFFCURVE",
"476 475 OFFCURVE",
"413 475 CURVE SMOOTH",
"391 475 OFFCURVE",
"368 465 OFFCURVE",
"346 445 CURVE SMOOTH",
"302 404 OFFCURVE",
"272 332 OFFCURVE",
"272 264 CURVE SMOOTH",
"272 186 OFFCURVE",
"321 135 OFFCURVE",
"397 135 CURVE SMOOTH",
"448 135 OFFCURVE",
"491 155 OFFCURVE",
"534 195 CURVE",
"540 163 OFFCURVE",
"544 126 OFFCURVE",
"545 84 CURVE",
"529 59 OFFCURVE",
"506 36 OFFCURVE",
"476 17 CURVE SMOOTH",
"417 -22 OFFCURVE",
"338 -44 OFFCURVE",
"269 -44 CURVE SMOOTH",
"168 -44 OFFCURVE",
"113 10 OFFCURVE",
"113 111 CURVE SMOOTH",
"113 129 OFFCURVE",
"117 153 OFFCURVE",
"124 182 CURVE",
"87 191 LINE",
"71 125 OFFCURVE",
"68 100 OFFCURVE",
"68 61 CURVE SMOOTH",
"68 -58 OFFCURVE",
"141 -127 OFFCURVE",
"266 -127 CURVE SMOOTH"
);
},
{
closed = 1;
nodes = (
"351 217 OFFCURVE",
"311 244 OFFCURVE",
"311 292 CURVE SMOOTH",
"311 305 OFFCURVE",
"315 320 OFFCURVE",
"323 335 CURVE SMOOTH",
"341 366 OFFCURVE",
"370 390 OFFCURVE",
"397 390 CURVE SMOOTH",
"412 390 OFFCURVE",
"427 384 OFFCURVE",
"444 372 CURVE SMOOTH",
"476 349 OFFCURVE",
"505 299 OFFCURVE",
"523 240 CURVE",
"489 224 OFFCURVE",
"455 217 OFFCURVE",
"421 217 CURVE SMOOTH"
);
}
);
width = 647;
},
{
anchors = (
{
name = bottom;
position = "{24, -159}";
},
{
name = top;
position = "{398, 574}";
}
);
layerId = "26E2967D-790C-4793-AF2A-2D0AD74EDC69";
paths = (
{
closed = 1;
nodes = (
"334 -117 OFFCURVE",
"434 -81 OFFCURVE",
"499 -27 CURVE SMOOTH",
"564 27 OFFCURVE",
"601 100 OFFCURVE",
"601 185 CURVE SMOOTH",
"601 244 OFFCURVE",
"593 297 OFFCURVE",
"576 346 CURVE SMOOTH",
"542 443 OFFCURVE",
"478 501 OFFCURVE",
"411 501 CURVE SMOOTH",
"386 501 OFFCURVE",
"363 490 OFFCURVE",
"340 468 CURVE SMOOTH",
"294 425 OFFCURVE",
"264 348 OFFCURVE",
"264 273 CURVE SMOOTH",
"264 185 OFFCURVE",
"311 135 OFFCURVE",
"394 135 CURVE SMOOTH",
"437 135 OFFCURVE",
"479 155 OFFCURVE",
"521 196 CURVE",
"528 166 OFFCURVE",
"532 135 OFFCURVE",
"535 104 CURVE",
"512 86 OFFCURVE",
"488 71 OFFCURVE",
"465 58 CURVE SMOOTH",
"396 20 OFFCURVE",
"327 1 OFFCURVE",
"263 1 CURVE SMOOTH",
"170 1 OFFCURVE",
"123 49 OFFCURVE",
"123 142 CURVE SMOOTH",
"123 165 OFFCURVE",
"128 192 OFFCURVE",
"137 222 CURVE",
"93 233 LINE",
"76 170 OFFCURVE",
"68 122 OFFCURVE",
"68 88 CURVE SMOOTH",
"68 -45 OFFCURVE",
"132 -117 OFFCURVE",
"251 -117 CURVE SMOOTH"
);
},
{
closed = 1;
nodes = (
"353 245 OFFCURVE",
"318 266 OFFCURVE",
"318 306 CURVE SMOOTH",
"318 319 OFFCURVE",
"321 330 OFFCURVE",
"326 341 CURVE SMOOTH",
"338 364 OFFCURVE",
"363 381 OFFCURVE",
"393 381 CURVE SMOOTH",
"406 381 OFFCURVE",
"419 377 OFFCURVE",
"432 369 CURVE SMOOTH",
"459 352 OFFCURVE",
"483 316 OFFCURVE",
"503 260 CURVE",
"472 250 OFFCURVE",
"442 245 OFFCURVE",
"414 245 CURVE SMOOTH"
);
}
);
width = 652;
}
);
unicode = 066F;
},
{
glyphname = uni066F.fina;
lastChange = "2019-12-19 13:29:00 +0000";
layers = (
{
anchors = (
{
name = bottom;
position = "{24, -109}";
},
{
name = top;
position = "{374, 532}";
}
);
layerId = master01;
paths = (
{
closed = 1;
nodes = (
"315 -127 OFFCURVE",
"364 -115 OFFCURVE",
"414 -92 CURVE SMOOTH",
"514 -45 OFFCURVE",
"580 36 OFFCURVE",
"594 135 CURVE",
"650 135 LINE SMOOTH",
"656 135 OFFCURVE",
"659 138 OFFCURVE",
"659 143 CURVE SMOOTH",
"659 203 LINE SMOOTH",
"659 208 OFFCURVE",
"656 211 OFFCURVE",
"650 211 CURVE SMOOTH",
"595 211 LINE",
"591 257 OFFCURVE",
"580 301 OFFCURVE",
"562 343 CURVE SMOOTH",
"527 428 OFFCURVE",
"470 483 OFFCURVE",
"413 483 CURVE SMOOTH",
"391 483 OFFCURVE",
"368 473 OFFCURVE",
"346 453 CURVE SMOOTH",
"302 413 OFFCURVE",
"272 340 OFFCURVE",
"272 272 CURVE SMOOTH",
"272 219 OFFCURVE",
"291 186 OFFCURVE",
"334 165 CURVE SMOOTH",
"378 144 OFFCURVE",
"472 136 OFFCURVE",
"542 136 CURVE",
"545 84 LINE",
"492 5 OFFCURVE",
"386 -44 OFFCURVE",
"269 -44 CURVE SMOOTH",
"168 -44 OFFCURVE",
"113 10 OFFCURVE",
"113 111 CURVE SMOOTH",
"113 129 OFFCURVE",
"117 153 OFFCURVE",
"124 182 CURVE",
"87 191 LINE",
"71 125 OFFCURVE",
"68 100 OFFCURVE",
"68 61 CURVE SMOOTH",
"68 -58 OFFCURVE",
"141 -127 OFFCURVE",
"266 -127 CURVE SMOOTH"
);
},
{
closed = 1;
nodes = (
"472 214 OFFCURVE",
"431 217 OFFCURVE",
"409 222 CURVE SMOOTH",
"386 226 OFFCURVE",
"367 232 OFFCURVE",
"352 239 CURVE SMOOTH",
"322 254 OFFCURVE",
"311 273 OFFCURVE",
"311 301 CURVE SMOOTH",
"311 314 OFFCURVE",
"315 328 OFFCURVE",
"323 343 CURVE SMOOTH",
"340 374 OFFCURVE",
"370 398 OFFCURVE",
"397 398 CURVE SMOOTH",
"449 398 OFFCURVE",
"499 336 OFFCURVE",
"529 213 CURVE"
);
}
);
width = 642;
},
{
anchors = (
{
name = bottom;
position = "{24, -109}";
},
{
name = top;
position = "{403, 595}";
}
);
layerId = "26E2967D-790C-4793-AF2A-2D0AD74EDC69";
paths = (
{
closed = 1;
nodes = (
"303 -117 OFFCURVE",
"355 -105 OFFCURVE",
"408 -80 CURVE SMOOTH",
"514 -31 OFFCURVE",
"577 50 OFFCURVE",
"589 144 CURVE",
"641 144 LINE SMOOTH",
"646 144 OFFCURVE",
"649 147 OFFCURVE",
"649 152 CURVE SMOOTH",
"649 254 LINE SMOOTH",
"649 260 OFFCURVE",
"646 262 OFFCURVE",
"641 262 CURVE SMOOTH",
"586 262 LINE",
"580 303 OFFCURVE",
"569 341 OFFCURVE",
"556 374 CURVE SMOOTH",
"521 464 OFFCURVE",
"465 522 OFFCURVE",
"409 522 CURVE SMOOTH",
"385 522 OFFCURVE",
"362 511 OFFCURVE",
"340 489 CURVE SMOOTH",
"294 445 OFFCURVE",
"264 367 OFFCURVE",
"264 294 CURVE SMOOTH",
"264 222 OFFCURVE",
"286 186 OFFCURVE",
"357 164 CURVE SMOOTH",
"387 154 OFFCURVE",
"440 148 OFFCURVE",
"521 145 CURVE",
"526 104 LINE",
"437 35 OFFCURVE",
"349 1 OFFCURVE",
"263 1 CURVE SMOOTH",
"170 1 OFFCURVE",
"123 49 OFFCURVE",
"123 142 CURVE SMOOTH",
"123 165 OFFCURVE",
"128 192 OFFCURVE",
"137 222 CURVE",
"93 233 LINE",
"76 170 OFFCURVE",
"68 122 OFFCURVE",
"68 88 CURVE SMOOTH",
"68 -45 OFFCURVE",
"132 -117 OFFCURVE",
"251 -117 CURVE SMOOTH"
);
},
{
closed = 1;
nodes = (
"456 265 OFFCURVE",
"431 267 OFFCURVE",
"415 269 CURVE SMOOTH",
"384 273 OFFCURVE",
"361 280 OFFCURVE",
"345 290 CURVE SMOOTH",
"326 302 OFFCURVE",
"316 317 OFFCURVE",
"316 337 CURVE SMOOTH",
"316 347 OFFCURVE",
"319 358 OFFCURVE",
"325 367 CURVE SMOOTH",
"337 387 OFFCURVE",
"360 403 OFFCURVE",
"387 403 CURVE SMOOTH",
"432 403 OFFCURVE",
"468 356 OFFCURVE",
"496 263 CURVE"
);
}
);
width = 632;
}
);
},
{
glyphname = uni066F.medi;
lastChange = "2019-12-19 08:47:14 +0000";
layers = (
{
anchors = (
{
name = bottom;
position = "{194, 83}";
},
{
name = top;
position = "{200, 558}";
}
);
layerId = master01;
paths = (
{
closed = 1;
nodes = (
"86 135 OFFCURVE",
"144 144 OFFCURVE",
"190 167 CURVE",
"246 145 OFFCURVE",
"312 135 OFFCURVE",
"395 135 CURVE SMOOTH",
"401 135 OFFCURVE",
"404 138 OFFCURVE",
"404 143 CURVE SMOOTH",
"404 203 LINE SMOOTH",
"404 208 OFFCURVE",
"401 211 OFFCURVE",
"395 211 CURVE SMOOTH",
"345 211 OFFCURVE",
"309 213 OFFCURVE",
"288 216 CURVE",
"316 249 OFFCURVE",
"331 287 OFFCURVE",
"331 330 CURVE SMOOTH",
"331 358 OFFCURVE",
"326 387 OFFCURVE",
"315 416 CURVE SMOOTH",
"295 473 OFFCURVE",
"261 509 OFFCURVE",
"226 509 CURVE SMOOTH",
"162 509 OFFCURVE",
"102 468 OFFCURVE",
"68 405 CURVE SMOOTH",
"60 391 OFFCURVE",
"50 335 OFFCURVE",
"50 301 CURVE SMOOTH",
"50 272 OFFCURVE",
"62 243 OFFCURVE",
"87 215 CURVE",
"66 212 OFFCURVE",
"38 211 OFFCURVE",
"1 211 CURVE SMOOTH",
"-5 211 OFFCURVE",
"-8 208 OFFCURVE",
"-8 202 CURVE SMOOTH",
"-8 144 LINE SMOOTH",
"-8 138 OFFCURVE",
"-5 135 OFFCURVE",
"1 135 CURVE SMOOTH"
);
},
{
closed = 1;
nodes = (
"149 254 OFFCURVE",
"115 278 OFFCURVE",
"87 310 CURVE",
"119 372 OFFCURVE",
"179 424 OFFCURVE",
"217 424 CURVE SMOOTH",
"224 424 OFFCURVE",
"233 417 OFFCURVE",
"245 404 CURVE SMOOTH",
"267 377 OFFCURVE",
"288 332 OFFCURVE",
"292 299 CURVE",
"261 272 OFFCURVE",
"227 252 OFFCURVE",
"190 238 CURVE"
);
}
);
width = 387;
},
{
anchors = (
{
name = bottom;
position = "{204, 77}";
},
{
name = top;
position = "{209, 609}";
}
);
layerId = "26E2967D-790C-4793-AF2A-2D0AD74EDC69";
paths = (
{
closed = 1;
nodes = (
"84 144 OFFCURVE",
"146 152 OFFCURVE",
"207 177 CURVE",
"265 155 OFFCURVE",
"336 144 OFFCURVE",
"421 144 CURVE SMOOTH",
"426 144 OFFCURVE",
"429 147 OFFCURVE",
"429 152 CURVE SMOOTH",
"429 254 LINE SMOOTH",
"429 260 OFFCURVE",
"426 262 OFFCURVE",
"421 262 CURVE SMOOTH",
"393 262 OFFCURVE",
"364 263 OFFCURVE",
"336 263 CURVE",
"351 288 OFFCURVE",
"358 313 OFFCURVE",
"358 339 CURVE SMOOTH",
"358 367 OFFCURVE",
"352 397 OFFCURVE",
"341 428 CURVE SMOOTH",
"318 490 OFFCURVE",
"278 535 OFFCURVE",
"242 535 CURVE SMOOTH",
"182 535 OFFCURVE",
"111 482 OFFCURVE",
"74 414 CURVE SMOOTH",
"65 398 OFFCURVE",
"56 335 OFFCURVE",
"56 309 CURVE SMOOTH",
"56 294 OFFCURVE",
"61 279 OFFCURVE",
"71 263 CURVE",
"47 263 OFFCURVE",
"24 262 OFFCURVE",
"1 262 CURVE SMOOTH",
"-5 262 OFFCURVE",
"-8 259 OFFCURVE",
"-8 253 CURVE SMOOTH",
"-8 153 LINE SMOOTH",
"-8 147 OFFCURVE",
"-5 144 OFFCURVE",
"1 144 CURVE SMOOTH"
);
},
{
closed = 1;
nodes = (
"170 269 OFFCURVE",
"134 291 OFFCURVE",
"110 319 CURVE",
"156 381 OFFCURVE",
"196 412 OFFCURVE",
"231 412 CURVE SMOOTH",
"237 412 OFFCURVE",
"245 408 OFFCURVE",
"252 400 CURVE SMOOTH",
"271 382 OFFCURVE",
"292 344 OFFCURVE",
"302 308 CURVE",
"276 286 OFFCURVE",
"243 270 OFFCURVE",
"203 259 CURVE"
);
}
);
width = 412;
}
);
},
{
glyphname = uni066F.init;
lastChange = "2019-12-19 08:47:14 +0000";
layers = (
{
anchors = (
{
name = bottom;
position = "{227, 83}";
},
{
name = top;
position = "{196, 648}";
}
);
layerId = master01;
paths = (
{
closed = 1;
nodes = (
"164 135 OFFCURVE",
"253 157 OFFCURVE",
"334 207 CURVE",
"357 252 OFFCURVE",
"369 286 OFFCURVE",
"369 309 CURVE SMOOTH",
"369 362 OFFCURVE",
"361 411 OFFCURVE",
"346 456 CURVE SMOOTH",
"314 547 OFFCURVE",
"259 599 OFFCURVE",
"190 599 CURVE SMOOTH",
"168 599 OFFCURVE",
"147 589 OFFCURVE",
"128 572 CURVE SMOOTH",
"92 537 OFFCURVE",
"66 473 OFFCURVE",
"66 405 CURVE SMOOTH",
"66 338 OFFCURVE",
"107 288 OFFCURVE",
"166 288 CURVE SMOOTH",
"215 288 OFFCURVE",
"267 309 OFFCURVE",
"308 343 CURVE",
"313 318 OFFCURVE",
"318 292 OFFCURVE",
"321 265 CURVE",
"237 228 OFFCURVE",
"145 211 OFFCURVE",
"1 211 CURVE SMOOTH",
"-5 211 OFFCURVE",
"-8 208 OFFCURVE",
"-8 202 CURVE SMOOTH",
"-8 144 LINE SMOOTH",
"-8 138 OFFCURVE",
"-5 135 OFFCURVE",
"1 135 CURVE SMOOTH"
);
},
{
closed = 1;
nodes = (
"130 364 OFFCURVE",
"104 383 OFFCURVE",
"104 425 CURVE SMOOTH",
"104 470 OFFCURVE",
"135 514 OFFCURVE",
"175 514 CURVE SMOOTH",
"227 514 OFFCURVE",
"269 470 OFFCURVE",
"295 389 CURVE",
"257 372 OFFCURVE",
"222 364 OFFCURVE",
"189 364 CURVE SMOOTH"
);
}
);
width = 420;
},
{
anchors = (
{
name = bottom;
position = "{217, 77}";
},
{
name = top;
position = "{187, 670}";
}
);
layerId = "26E2967D-790C-4793-AF2A-2D0AD74EDC69";
paths = (
{
closed = 1;
nodes = (
"168 144 OFFCURVE",
"244 159 OFFCURVE",
"342 197 CURVE",
"365 243 OFFCURVE",
"376 277 OFFCURVE",
"376 298 CURVE SMOOTH",
"376 343 OFFCURVE",
"370 387 OFFCURVE",
"357 427 CURVE SMOOTH",
"329 520 OFFCURVE",
"273 588 OFFCURVE",
"218 588 CURVE SMOOTH",
"192 588 OFFCURVE",
"168 577 OFFCURVE",
"147 560 CURVE SMOOTH",
"106 528 OFFCURVE",
"79 468 OFFCURVE",
"79 402 CURVE SMOOTH",
"79 342 OFFCURVE",
"116 297 OFFCURVE",
"192 297 CURVE SMOOTH",
"239 297 OFFCURVE",
"277 312 OFFCURVE",
"309 340 CURVE",
"315 324 OFFCURVE",
"319 312 OFFCURVE",
"322 303 CURVE",
"243 267 OFFCURVE",
"147 262 OFFCURVE",
"1 262 CURVE SMOOTH",
"-5 262 OFFCURVE",
"-8 260 OFFCURVE",
"-8 254 CURVE SMOOTH",
"-8 153 LINE SMOOTH",
"-8 147 OFFCURVE",
"-5 144 OFFCURVE",
"1 144 CURVE SMOOTH"
);
},
{
closed = 1;
nodes = (
"152 370 OFFCURVE",
"130 386 OFFCURVE",
"130 418 CURVE SMOOTH",
"130 443 OFFCURVE",
"155 468 OFFCURVE",
"196 468 CURVE SMOOTH",
"237 468 OFFCURVE",
"264 442 OFFCURVE",
"290 384 CURVE",
"261 375 OFFCURVE",
"233 370 OFFCURVE",
"206 370 CURVE SMOOTH"
);
}
);
width = 427;
}
);
},
{
glyphname = uni0643;
lastChange = "2019-12-19 08:47:14 +0000";
layers = (
{
anchors = (
{
name = bottom;
position = "{262, 83}";
},
{
name = top;
position = "{231, 553}";
}
);
layerId = master01;
paths = (
{
closed = 1;
nodes = (
"309 135 OFFCURVE",
"388 141 OFFCURVE",
"462 152 CURVE",
"483 179 OFFCURVE",
"498 206 OFFCURVE",
"498 243 CURVE SMOOTH",
"498 282 OFFCURVE",
"485 422 OFFCURVE",
"459 665 CURVE",
"485 687 LINE",
"473 727 OFFCURVE",
"456 781 OFFCURVE",
"450 806 CURVE",
"402 795 OFFCURVE",
"384 771 OFFCURVE",
"384 727 CURVE SMOOTH",
"384 687 OFFCURVE",
"402 554 OFFCURVE",
"419 468 CURVE SMOOTH",
"433 389 OFFCURVE",
"447 310 OFFCURVE",
"460 231 CURVE",
"388 218 OFFCURVE",
"316 211 OFFCURVE",
"245 211 CURVE SMOOTH",
"173 211 OFFCURVE",
"85 220 OFFCURVE",
"33 232 CURVE",
"25 219 OFFCURVE",
"17 178 OFFCURVE",
"17 155 CURVE SMOOTH",
"17 149 OFFCURVE",
"41 145 OFFCURVE",
"90 141 CURVE SMOOTH",
"138 137 OFFCURVE",
"184 135 OFFCURVE",
"226 135 CURVE SMOOTH"
);
},
{
closed = 1;
nodes = (
"228 329 OFFCURVE",
"296 382 OFFCURVE",
"296 409 CURVE SMOOTH",
"296 417 OFFCURVE",
"294 423 OFFCURVE",
"287 428 CURVE SMOOTH",
"270 440 OFFCURVE",
"227 439 OFFCURVE",
"205 450 CURVE",
"209 471 OFFCURVE",
"240 499 OFFCURVE",
"256 499 CURVE SMOOTH",
"261 499 OFFCURVE",
"265 497 OFFCURVE",
"268 494 CURVE",
"284 501 LINE",
"279 519 OFFCURVE",
"268 529 OFFCURVE",
"250 529 CURVE SMOOTH",
"213 529 OFFCURVE",
"172 483 OFFCURVE",
"172 451 CURVE SMOOTH",
"172 411 OFFCURVE",
"208 404 OFFCURVE",
"271 403 CURVE",
"267 395 OFFCURVE",
"259 388 OFFCURVE",
"249 381 CURVE SMOOTH",
"226 365 OFFCURVE",
"192 352 OFFCURVE",
"157 349 CURVE",
"157 338 OFFCURVE",
"163 329 OFFCURVE",
"180 329 CURVE SMOOTH"
);
}
);
width = 558;
},
{
anchors = (
{
name = bottom;
position = "{267, 77}";
},
{
name = top;
position = "{257, 593}";
}
);
layerId = "26E2967D-790C-4793-AF2A-2D0AD74EDC69";
paths = (
{
closed = 1;
nodes = (
"358 136 OFFCURVE",
"443 141 OFFCURVE",
"520 152 CURVE",
"543 181 OFFCURVE",
"559 231 OFFCURVE",
"559 265 CURVE SMOOTH",
"559 322 OFFCURVE",
"548 456 OFFCURVE",
"527 668 CURVE",
"559 692 LINE",
"544 729 OFFCURVE",
"531 770 OFFCURVE",
"519 815 CURVE",
"459 815 OFFCURVE",
"411 769 OFFCURVE",
"411 712 CURVE SMOOTH",
"411 682 OFFCURVE",
"437 559 OFFCURVE",
"452 501 CURVE SMOOTH",
"458 474 OFFCURVE",
"476 402 OFFCURVE",
"508 274 CURVE",
"435 261 OFFCURVE",
"360 254 OFFCURVE",
"283 254 CURVE SMOOTH",
"212 254 OFFCURVE",
"112 263 OFFCURVE",
"60 275 CURVE",
"46 247 OFFCURVE",
"34 194 OFFCURVE",
"34 155 CURVE SMOOTH",
"34 150 OFFCURVE",
"62 145 OFFCURVE",
"116 142 CURVE SMOOTH",
"171 138 OFFCURVE",
"220 136 OFFCURVE",
"264 136 CURVE SMOOTH"
);
},
{
closed = 1;
nodes = (
"262 360 OFFCURVE",
"331 413 OFFCURVE",
"331 441 CURVE SMOOTH",
"331 448 OFFCURVE",
"328 455 OFFCURVE",
"321 459 CURVE SMOOTH",
"304 472 OFFCURVE",
"261 471 OFFCURVE",
"239 481 CURVE",
"244 503 OFFCURVE",
"275 530 OFFCURVE",
"291 530 CURVE SMOOTH",
"295 530 OFFCURVE",
"299 528 OFFCURVE",
"302 525 CURVE",
"318 532 LINE",
"314 551 OFFCURVE",
"303 560 OFFCURVE",
"285 560 CURVE SMOOTH",
"248 560 OFFCURVE",
"206 515 OFFCURVE",
"206 483 CURVE SMOOTH",
"206 443 OFFCURVE",
"242 435 OFFCURVE",
"305 434 CURVE",
"301 427 OFFCURVE",
"294 420 OFFCURVE",
"283 412 CURVE SMOOTH",
"260 397 OFFCURVE",
"226 383 OFFCURVE",
"191 380 CURVE",
"191 369 OFFCURVE",
"198 360 OFFCURVE",
"214 360 CURVE SMOOTH"
);
}
);
width = 618;
}
);
unicode = "0643,FED9";
},
{
glyphname = uniFEDA;
lastChange = "2019-12-19 08:47:14 +0000";
layers = (
{
anchors = (
{
name = bottom;
position = "{373, 83}";
},
{
name = top;
position = "{358, 553}";
}
);
layerId = master01;
paths = (
{
closed = 1;
nodes = (
"420 135 OFFCURVE",
"511 151 OFFCURVE",
"615 187 CURVE",
"643 153 OFFCURVE",
"683 135 OFFCURVE",
"745 135 CURVE SMOOTH",
"750 135 OFFCURVE",
"753 138 OFFCURVE",
"753 143 CURVE SMOOTH",
"753 203 LINE SMOOTH",
"753 208 OFFCURVE",
"750 211 OFFCURVE",
"745 211 CURVE SMOOTH",
"705 211 OFFCURVE",
"670 220 OFFCURVE",
"640 238 CURVE",
"637 377 OFFCURVE",
"633 550 OFFCURVE",
"626 806 CURVE",
"601 788 OFFCURVE",
"579 770 OFFCURVE",
"560 750 CURVE",
"578 491 OFFCURVE",
"586 374 OFFCURVE",
"600 242 CURVE",
"516 221 OFFCURVE",
"433 211 OFFCURVE",
"329 211 CURVE SMOOTH",
"201 211 OFFCURVE",
"114 221 OFFCURVE",
"114 319 CURVE SMOOTH",
"114 333 OFFCURVE",
"115 346 OFFCURVE",
"117 357 CURVE",
"82 357 LINE",
"72 331 OFFCURVE",
"68 306 OFFCURVE",
"68 281 CURVE SMOOTH",
"68 248 OFFCURVE",
"76 221 OFFCURVE",
"92 199 CURVE SMOOTH",
"124 155 OFFCURVE",
"185 135 OFFCURVE",
"308 135 CURVE SMOOTH"
);
},
{
closed = 1;
nodes = (
"355 329 OFFCURVE",
"423 382 OFFCURVE",
"423 409 CURVE SMOOTH",
"423 417 OFFCURVE",
"421 423 OFFCURVE",
"414 428 CURVE SMOOTH",
"397 440 OFFCURVE",
"354 439 OFFCURVE",
"332 450 CURVE",
"336 471 OFFCURVE",
"367 499 OFFCURVE",
"383 499 CURVE SMOOTH",
"388 499 OFFCURVE",
"392 497 OFFCURVE",
"395 494 CURVE",
"411 501 LINE",
"406 519 OFFCURVE",
"395 529 OFFCURVE",
"377 529 CURVE SMOOTH",
"340 529 OFFCURVE",
"299 483 OFFCURVE",
"299 451 CURVE SMOOTH",
"299 411 OFFCURVE",
"335 404 OFFCURVE",
"398 403 CURVE",
"394 395 OFFCURVE",
"386 388 OFFCURVE",
"376 381 CURVE SMOOTH",
"353 365 OFFCURVE",
"319 352 OFFCURVE",
"284 349 CURVE",
"284 338 OFFCURVE",
"290 329 OFFCURVE",
"307 329 CURVE SMOOTH"
);
}
);
width = 736;
},
{
anchors = (
{
name = bottom;
position = "{354, 77}";
},
{
name = top;
position = "{350, 593}";
}
);
layerId = "26E2967D-790C-4793-AF2A-2D0AD74EDC69";
paths = (
{
closed = 1;
nodes = (
"400 135 OFFCURVE",
"500 156 OFFCURVE",
"615 197 CURVE",
"644 160 OFFCURVE",
"683 144 OFFCURVE",
"753 144 CURVE SMOOTH",
"759 144 OFFCURVE",
"762 147 OFFCURVE",
"762 152 CURVE SMOOTH",
"762 254 LINE SMOOTH",
"762 260 OFFCURVE",
"759 262 OFFCURVE",
"753 262 CURVE SMOOTH",
"708 262 OFFCURVE",
"674 269 OFFCURVE",
"643 290 CURVE",
"643 382 OFFCURVE",
"645 516 OFFCURVE",
"652 832 CURVE",
"609 813 OFFCURVE",
"568 792 OFFCURVE",
"533 766 CURVE",
"556 551 OFFCURVE",
"576 389 OFFCURVE",
"593 281 CURVE",
"516 265 OFFCURVE",
"442 254 OFFCURVE",
"337 254 CURVE SMOOTH",
"166 254 OFFCURVE",
"123 263 OFFCURVE",
"123 362 CURVE SMOOTH",
"123 375 OFFCURVE",
"125 387 OFFCURVE",
"126 400 CURVE",
"82 401 LINE",
"78 389 OFFCURVE",
"68 324 OFFCURVE",
"68 296 CURVE SMOOTH",
"68 257 OFFCURVE",
"76 226 OFFCURVE",
"93 202 CURVE SMOOTH",
"126 156 OFFCURVE",
"185 135 OFFCURVE",
"316 135 CURVE SMOOTH"
);
},
{
closed = 1;
nodes = (
"355 360 OFFCURVE",
"423 413 OFFCURVE",
"423 441 CURVE SMOOTH",
"423 448 OFFCURVE",
"421 455 OFFCURVE",
"414 459 CURVE SMOOTH",
"397 472 OFFCURVE",
"354 471 OFFCURVE",
"332 481 CURVE",
"336 503 OFFCURVE",
"367 530 OFFCURVE",
"383 530 CURVE SMOOTH",
"388 530 OFFCURVE",
"392 528 OFFCURVE",
"395 525 CURVE",
"411 532 LINE",
"406 551 OFFCURVE",
"395 560 OFFCURVE",
"377 560 CURVE SMOOTH",
"340 560 OFFCURVE",
"299 515 OFFCURVE",
"299 483 CURVE SMOOTH",
"299 443 OFFCURVE",
"335 435 OFFCURVE",
"398 434 CURVE",
"394 427 OFFCURVE",
"386 420 OFFCURVE",
"376 412 CURVE SMOOTH",
"353 397 OFFCURVE",
"319 383 OFFCURVE",
"284 380 CURVE",
"284 369 OFFCURVE",
"290 360 OFFCURVE",
"307 360 CURVE SMOOTH"
);
}
);
width = 745;
}
);
unicode = FEDA;
},
{
glyphname = uniFEDC;
lastChange = "2019-12-19 08:47:14 +0000";
layers = (
{
anchors = (
{
name = bottom;
position = "{198, 83}";
},
{
name = top;
position = "{50, 702}";
}
);
layerId = master01;
paths = (
{
closed = 1;
nodes = (
"119 135 OFFCURVE",
"207 151 OFFCURVE",
"262 182 CURVE SMOOTH",
"275 190 OFFCURVE",
"287 198 OFFCURVE",
"297 208 CURVE",
"343 157 OFFCURVE",
"403 135 OFFCURVE",
"467 135 CURVE SMOOTH",
"473 135 OFFCURVE",
"476 138 OFFCURVE",
"476 143 CURVE SMOOTH",
"476 203 LINE SMOOTH",
"476 208 OFFCURVE",
"473 211 OFFCURVE",
"467 211 CURVE SMOOTH",
"416 211 OFFCURVE",
"369 227 OFFCURVE",
"329 259 CURVE",
"333 271 OFFCURVE",
"335 285 OFFCURVE",
"335 299 CURVE SMOOTH",
"335 330 OFFCURVE",
"321 363 OFFCURVE",
"293 399 CURVE SMOOTH",
"241 468 OFFCURVE",
"145 527 OFFCURVE",
"48 552 CURVE",
"162 598 OFFCURVE",
"274 646 OFFCURVE",
"388 693 CURVE SMOOTH",
"417 705 OFFCURVE",
"430 720 OFFCURVE",
"430 751 CURVE SMOOTH",
"430 765 OFFCURVE",
"424 780 OFFCURVE",
"415 789 CURVE",
"166 687 OFFCURVE",
"50 635 OFFCURVE",
"21 606 CURVE SMOOTH",
"7 592 OFFCURVE",
"1 575 OFFCURVE",
"1 550 CURVE SMOOTH",
"1 515 OFFCURVE",
"28 494 OFFCURVE",
"86 466 CURVE SMOOTH",
"136 442 OFFCURVE",
"177 416 OFFCURVE",
"210 388 CURVE SMOOTH",
"253 352 OFFCURVE",
"281 313 OFFCURVE",
"295 270 CURVE",
"266 255 OFFCURVE",
"239 244 OFFCURVE",
"213 237 CURVE SMOOTH",
"154 220 OFFCURVE",
"83 211 OFFCURVE",
"0 211 CURVE SMOOTH",
"-6 211 OFFCURVE",
"-8 208 OFFCURVE",
"-8 203 CURVE SMOOTH",
"-8 143 LINE SMOOTH",
"-8 138 OFFCURVE",
"-6 135 OFFCURVE",
"0 135 CURVE SMOOTH"
);
}
);
width = 459;
},
{
anchors = (
{
name = bottom;
position = "{208, 77}";
},
{
name = top;
position = "{50, 739}";
}
);
layerId = "26E2967D-790C-4793-AF2A-2D0AD74EDC69";
paths = (
{
closed = 1;
nodes = (
"117 144 OFFCURVE",
"206 158 OFFCURVE",
"266 186 CURVE SMOOTH",
"286 196 OFFCURVE",
"303 207 OFFCURVE",
"315 218 CURVE",
"362 169 OFFCURVE",
"416 144 OFFCURVE",
"476 144 CURVE SMOOTH",
"482 144 OFFCURVE",
"485 147 OFFCURVE",
"485 152 CURVE SMOOTH",
"485 254 LINE SMOOTH",
"485 260 OFFCURVE",
"482 262 OFFCURVE",
"476 262 CURVE SMOOTH",
"432 262 OFFCURVE",
"392 274 OFFCURVE",
"355 297 CURVE",
"356 299 OFFCURVE",
"356 303 OFFCURVE",
"356 308 CURVE SMOOTH",
"356 341 OFFCURVE",
"343 375 OFFCURVE",
"317 412 CURVE SMOOTH",
"267 482 OFFCURVE",
"181 540 OFFCURVE",
"88 563 CURVE",
"254 620 OFFCURVE",
"319 646 OFFCURVE",
"396 684 CURVE SMOOTH",
"427 699 OFFCURVE",
"450 731 OFFCURVE",
"450 765 CURVE SMOOTH",
"450 785 OFFCURVE",
"443 802 OFFCURVE",
"429 815 CURVE",
"322 771 OFFCURVE",
"65 662 OFFCURVE",
"42 641 CURVE SMOOTH",
"23 624 OFFCURVE",
"10 596 OFFCURVE",
"10 569 CURVE SMOOTH",
"10 538 OFFCURVE",
"44 502 OFFCURVE",
"113 463 CURVE SMOOTH",
"155 438 OFFCURVE",
"188 416 OFFCURVE",
"213 398 CURVE SMOOTH",
"257 363 OFFCURVE",
"290 327 OFFCURVE",
"305 296 CURVE",
"282 284 OFFCURVE",
"248 276 OFFCURVE",
"202 271 CURVE SMOOTH",
"154 265 OFFCURVE",
"87 262 OFFCURVE",
"0 262 CURVE SMOOTH",
"-6 262 OFFCURVE",
"-8 260 OFFCURVE",
"-8 254 CURVE SMOOTH",
"-8 152 LINE SMOOTH",
"-8 147 OFFCURVE",
"-6 144 OFFCURVE",
"0 144 CURVE SMOOTH"
);
}
);
width = 467;
}
);
unicode = FEDC;
},
{
glyphname = uniFEDB;
lastChange = "2019-12-19 08:47:14 +0000";
layers = (
{
anchors = (
{
name = bottom;
position = "{196, 83}";
},
{
name = top;
position = "{49, 711}";
}
);
layerId = master01;
paths = (
{
closed = 1;
nodes = (
"110 135 OFFCURVE",
"192 149 OFFCURVE",
"248 175 CURVE SMOOTH",
"306 203 OFFCURVE",
"335 244 OFFCURVE",
"335 299 CURVE SMOOTH",
"335 330 OFFCURVE",
"321 363 OFFCURVE",
"293 398 CURVE SMOOTH",
"238 469 OFFCURVE",
"138 530 OFFCURVE",
"37 555 CURVE",
"112 590 OFFCURVE",
"218 636 OFFCURVE",
"354 693 CURVE SMOOTH",
"385 705 OFFCURVE",
"397 720 OFFCURVE",
"397 751 CURVE SMOOTH",
"397 768 OFFCURVE",
"392 781 OFFCURVE",
"382 789 CURVE",
"275 746 OFFCURVE",
"204 715 OFFCURVE",
"26 623 CURVE SMOOTH",
"19 619 OFFCURVE",
"0 557 OFFCURVE",
"0 528 CURVE SMOOTH",
"0 490 OFFCURVE",
"26 463 OFFCURVE",
"61 463 CURVE SMOOTH",
"70 463 OFFCURVE",
"78 464 OFFCURVE",
"86 466 CURVE",
"146 437 OFFCURVE",
"191 406 OFFCURVE",
"226 374 CURVE SMOOTH",
"260 342 OFFCURVE",
"283 307 OFFCURVE",
"295 270 CURVE",
"267 255 OFFCURVE",
"239 244 OFFCURVE",
"213 237 CURVE SMOOTH",
"160 222 OFFCURVE",
"92 211 OFFCURVE",
"0 211 CURVE SMOOTH",
"-6 211 OFFCURVE",
"-8 208 OFFCURVE",
"-8 203 CURVE SMOOTH",
"-8 143 LINE SMOOTH",
"-8 138 OFFCURVE",
"-6 135 OFFCURVE",
"0 135 CURVE SMOOTH"
);
}
);
width = 415;
},
{
anchors = (
{
name = bottom;
position = "{196, 77}";
},
{
name = top;
position = "{49, 737}";
}
);
layerId = "26E2967D-790C-4793-AF2A-2D0AD74EDC69";
paths = (
{
closed = 1;
nodes = (
"117 144 OFFCURVE",
"205 158 OFFCURVE",
"266 186 CURVE SMOOTH",
"326 214 OFFCURVE",
"356 255 OFFCURVE",
"356 308 CURVE SMOOTH",
"356 341 OFFCURVE",
"343 376 OFFCURVE",
"317 412 CURVE SMOOTH",
"265 484 OFFCURVE",
"173 545 OFFCURVE",
"74 570 CURVE",
"203 606 OFFCURVE",
"276 635 OFFCURVE",
"371 681 CURVE SMOOTH",
"408 699 OFFCURVE",
"425 717 OFFCURVE",
"425 764 CURVE SMOOTH",
"425 784 OFFCURVE",
"419 801 OFFCURVE",
"405 815 CURVE",
"273 761 OFFCURVE",
"213 734 OFFCURVE",
"44 649 CURVE SMOOTH",
"37 646 OFFCURVE",
"18 553 OFFCURVE",
"18 524 CURVE SMOOTH",
"18 488 OFFCURVE",
"50 459 OFFCURVE",
"87 459 CURVE SMOOTH",
"97 459 OFFCURVE",
"105 460 OFFCURVE",
"113 463 CURVE",
"157 437 OFFCURVE",
"190 415 OFFCURVE",
"213 397 CURVE SMOOTH",
"258 363 OFFCURVE",
"290 326 OFFCURVE",
"305 296 CURVE",
"282 285 OFFCURVE",
"248 276 OFFCURVE",
"202 271 CURVE SMOOTH",
"155 265 OFFCURVE",
"88 262 OFFCURVE",
"0 262 CURVE SMOOTH",
"-6 262 OFFCURVE",
"-8 260 OFFCURVE",
"-8 254 CURVE SMOOTH",
"-8 152 LINE SMOOTH",
"-8 147 OFFCURVE",
"-6 144 OFFCURVE",
"0 144 CURVE SMOOTH"
);
}
);
width = 443;
}
);
unicode = FEDB;
},
{
glyphname = uni06A9;
lastChange = "2019-12-19 08:47:14 +0000";
layers = (
{
anchors = (
{
name = bottom;
position = "{450, 83}";
},
{
name = top;
position = "{355, 710}";
}
);
layerId = master01;
paths = (
{
closed = 1;
nodes = (
"532 135 OFFCURVE",
"643 192 OFFCURVE",
"643 299 CURVE SMOOTH",
"643 329 OFFCURVE",
"629 362 OFFCURVE",
"602 397 CURVE SMOOTH",
"547 466 OFFCURVE",
"447 530 OFFCURVE",
"343 555 CURVE",
"419 590 OFFCURVE",
"525 636 OFFCURVE",
"661 693 CURVE SMOOTH",
"690 704 OFFCURVE",
"704 725 OFFCURVE",
"704 757 CURVE SMOOTH",
"704 772 OFFCURVE",
"698 781 OFFCURVE",
"688 789 CURVE",
"573 742 OFFCURVE",
"513 716 OFFCURVE",
"333 623 CURVE SMOOTH",
"326 619 OFFCURVE",
"307 557 OFFCURVE",
"307 528 CURVE SMOOTH",
"307 491 OFFCURVE",
"332 463 OFFCURVE",
"368 463 CURVE SMOOTH",
"376 463 OFFCURVE",
"384 464 OFFCURVE",
"393 466 CURVE",
"440 443 OFFCURVE",
"479 419 OFFCURVE",
"510 394 CURVE SMOOTH",
"558 356 OFFCURVE",
"587 315 OFFCURVE",
"603 270 CURVE",
"518 224 OFFCURVE",
"431 211 OFFCURVE",
"316 211 CURVE SMOOTH",
"243 211 OFFCURVE",
"190 218 OFFCURVE",
"159 232 CURVE SMOOTH",
"128 245 OFFCURVE",
"113 268 OFFCURVE",
"113 299 CURVE SMOOTH",
"113 314 OFFCURVE",
"114 328 OFFCURVE",
"117 340 CURVE",
"81 340 LINE",
"72 319 OFFCURVE",
"68 298 OFFCURVE",
"68 276 CURVE SMOOTH",
"68 247 OFFCURVE",
"75 223 OFFCURVE",
"89 203 CURVE SMOOTH",
"122 158 OFFCURVE",
"192 135 OFFCURVE",
"308 135 CURVE SMOOTH"
);
}
);
width = 722;
},
{
anchors = (
{
name = bottom;
position = "{412, 77}";
},
{
name = top;
position = "{355, 737}";
}
);
layerId = "26E2967D-790C-4793-AF2A-2D0AD74EDC69";
paths = (
{
closed = 1;
nodes = (
"520 135 OFFCURVE",
"654 198 OFFCURVE",
"654 308 CURVE SMOOTH",
"654 341 OFFCURVE",
"641 376 OFFCURVE",
"615 412 CURVE SMOOTH",
"563 484 OFFCURVE",
"472 545 OFFCURVE",
"373 570 CURVE",
"496 604 OFFCURVE",
"572 633 OFFCURVE",
"669 681 CURVE SMOOTH",
"703 698 OFFCURVE",
"724 731 OFFCURVE",
"724 765 CURVE SMOOTH",
"724 785 OFFCURVE",
"717 802 OFFCURVE",
"704 815 CURVE",
"573 761 OFFCURVE",
"501 729 OFFCURVE",
"342 649 CURVE SMOOTH",
"335 646 OFFCURVE",
"316 553 OFFCURVE",
"316 524 CURVE SMOOTH",
"316 488 OFFCURVE",
"349 459 OFFCURVE",
"385 459 CURVE SMOOTH",
"395 459 OFFCURVE",
"404 460 OFFCURVE",
"412 463 CURVE",
"455 437 OFFCURVE",
"488 415 OFFCURVE",
"510 397 CURVE SMOOTH",
"555 363 OFFCURVE",
"588 326 OFFCURVE",
"604 295 CURVE",
"522 266 OFFCURVE",
"459 254 OFFCURVE",
"337 254 CURVE SMOOTH",
"281 254 OFFCURVE",
"238 257 OFFCURVE",
"208 264 CURVE SMOOTH",
"146 278 OFFCURVE",
"124 307 OFFCURVE",
"123 362 CURVE SMOOTH",
"123 375 OFFCURVE",
"125 387 OFFCURVE",
"126 400 CURVE",
"82 401 LINE",
"78 389 OFFCURVE",
"68 324 OFFCURVE",
"68 296 CURVE SMOOTH",
"68 256 OFFCURVE",
"75 224 OFFCURVE",
"90 201 CURVE SMOOTH",
"120 155 OFFCURVE",
"174 135 OFFCURVE",
"301 135 CURVE SMOOTH"
);
}
);
width = 741;
}
);
unicode = "06A9,FB8E";
},
{
glyphname = uniFB8F;
lastChange = "2019-12-19 08:47:14 +0000";
layers = (
{
anchors = (
{
name = bottom;
position = "{473, 83}";
},
{
name = top;
position = "{367, 711}";
}
);
layerId = master01;
paths = (
{
closed = 1;
nodes = (
"455 135 OFFCURVE",
"554 159 OFFCURVE",
"604 208 CURVE",
"650 157 OFFCURVE",
"710 135 OFFCURVE",
"774 135 CURVE SMOOTH",
"780 135 OFFCURVE",
"783 138 OFFCURVE",
"783 143 CURVE SMOOTH",
"783 203 LINE SMOOTH",
"783 208 OFFCURVE",
"780 211 OFFCURVE",
"774 211 CURVE SMOOTH",
"722 211 OFFCURVE",
"676 227 OFFCURVE",
"636 259 CURVE",
"640 272 OFFCURVE",
"642 285 OFFCURVE",
"642 299 CURVE SMOOTH",
"642 330 OFFCURVE",
"628 363 OFFCURVE",
"600 399 CURVE SMOOTH",
"547 468 OFFCURVE",
"451 527 OFFCURVE",
"355 552 CURVE",
"468 598 OFFCURVE",
"581 646 OFFCURVE",
"694 693 CURVE SMOOTH",
"724 705 OFFCURVE",
"733 721 OFFCURVE",
"737 751 CURVE SMOOTH",
"737 764 OFFCURVE",
"731 780 OFFCURVE",
"721 789 CURVE",
"549 718 OFFCURVE",
"521 708 OFFCURVE",
"449 674 CURVE SMOOTH",
"378 639 OFFCURVE",
"338 616 OFFCURVE",
"328 606 CURVE SMOOTH",
"313 592 OFFCURVE",
"308 575 OFFCURVE",
"308 550 CURVE SMOOTH",
"308 515 OFFCURVE",
"335 494 OFFCURVE",
"393 466 CURVE SMOOTH",
"443 442 OFFCURVE",
"483 416 OFFCURVE",
"517 389 CURVE SMOOTH",
"560 353 OFFCURVE",
"587 313 OFFCURVE",
"602 270 CURVE",
"516 223 OFFCURVE",
"428 211 OFFCURVE",
"315 211 CURVE SMOOTH",
"242 211 OFFCURVE",
"189 218 OFFCURVE",
"158 232 CURVE SMOOTH",
"127 245 OFFCURVE",
"112 268 OFFCURVE",
"112 299 CURVE SMOOTH",
"112 314 OFFCURVE",
"113 327 OFFCURVE",
"116 340 CURVE",
"80 340 LINE",
"71 319 OFFCURVE",
"67 298 OFFCURVE",
"67 276 CURVE SMOOTH",
"67 183 OFFCURVE",
"143 135 OFFCURVE",
"307 135 CURVE SMOOTH"
);
}
);
width = 776;
},
{
anchors = (
{
name = bottom;
position = "{444, 77}";
},
{
name = top;
position = "{367, 739}";
}
);
layerId = "26E2967D-790C-4793-AF2A-2D0AD74EDC69";
paths = (
{
closed = 1;
nodes = (
"449 135 OFFCURVE",
"559 164 OFFCURVE",
"614 218 CURVE",
"661 168 OFFCURVE",
"715 144 OFFCURVE",
"775 144 CURVE SMOOTH",
"781 144 OFFCURVE",
"784 147 OFFCURVE",
"784 152 CURVE SMOOTH",
"784 254 LINE SMOOTH",
"784 260 OFFCURVE",
"781 262 OFFCURVE",
"775 262 CURVE SMOOTH",
"731 262 OFFCURVE",
"691 274 OFFCURVE",
"654 297 CURVE",
"654 301 OFFCURVE",
"655 304 OFFCURVE",
"655 308 CURVE SMOOTH",
"655 341 OFFCURVE",
"642 375 OFFCURVE",
"616 412 CURVE SMOOTH",
"566 482 OFFCURVE",
"480 540 OFFCURVE",
"387 563 CURVE",
"553 620 OFFCURVE",
"618 646 OFFCURVE",
"695 684 CURVE SMOOTH",
"725 699 OFFCURVE",
"749 731 OFFCURVE",
"749 765 CURVE SMOOTH",
"749 785 OFFCURVE",
"742 802 OFFCURVE",
"728 815 CURVE",
"625 773 OFFCURVE",
"532 734 OFFCURVE",
"447 695 CURVE SMOOTH",
"391 670 OFFCURVE",
"356 654 OFFCURVE",
"344 643 CURVE SMOOTH",
"323 626 OFFCURVE",
"309 597 OFFCURVE",
"309 569 CURVE SMOOTH",
"309 538 OFFCURVE",
"343 502 OFFCURVE",
"412 463 CURVE SMOOTH",
"453 438 OFFCURVE",
"487 416 OFFCURVE",
"512 398 CURVE SMOOTH",
"556 363 OFFCURVE",
"588 328 OFFCURVE",
"604 295 CURVE",
"521 260 OFFCURVE",
"475 254 OFFCURVE",
"337 254 CURVE SMOOTH",
"281 254 OFFCURVE",
"237 258 OFFCURVE",
"207 264 CURVE SMOOTH",
"146 277 OFFCURVE",
"123 305 OFFCURVE",
"123 362 CURVE SMOOTH",
"124 375 OFFCURVE",
"125 387 OFFCURVE",
"126 400 CURVE",
"81 401 LINE",
"77 387 OFFCURVE",
"67 322 OFFCURVE",
"67 296 CURVE SMOOTH",
"67 159 OFFCURVE",
"151 135 OFFCURVE",
"300 135 CURVE SMOOTH"
);
}
);
width = 768;
}
);
unicode = FB8F;
},
{
glyphname = uni06AA;
lastChange = "2019-12-19 12:00:21 +0000";
layers = (
{
anchors = (
{
name = bottom;
position = "{774, 83}";
},
{
name = top;
position = "{387, 693}";
}
);
layerId = master01;
paths = (
{
closed = 1;
nodes = (
"502 135 OFFCURVE",
"766 152 OFFCURVE",
"942 179 CURVE",
"957 211 OFFCURVE",
"964 238 OFFCURVE",
"964 260 CURVE SMOOTH",
"964 289 OFFCURVE",
"956 313 OFFCURVE",
"940 334 CURVE SMOOTH",
"909 376 OFFCURVE",
"850 399 OFFCURVE",
"784 399 CURVE SMOOTH",
"743 399 OFFCURVE",
"677 397 OFFCURVE",
"584 392 CURVE SMOOTH",
"492 387 OFFCURVE",
"427 385 OFFCURVE",
"389 385 CURVE SMOOTH",
"341 385 OFFCURVE",
"280 401 OFFCURVE",
"280 418 CURVE SMOOTH",
"280 427 OFFCURVE",
"289 440 OFFCURVE",
"307 455 CURVE SMOOTH",
"343 485 OFFCURVE",
"427 533 OFFCURVE",
"483 556 CURVE SMOOTH",
"514 568 OFFCURVE",
"529 593 OFFCURVE",
"529 629 CURVE SMOOTH",
"529 637 OFFCURVE",
"528 645 OFFCURVE",
"526 654 CURVE",
"452 634 OFFCURVE",
"374 593 OFFCURVE",
"322 546 CURVE SMOOTH",
"269 500 OFFCURVE",
"244 451 OFFCURVE",
"244 400 CURVE SMOOTH",
"244 333 OFFCURVE",
"281 307 OFFCURVE",
"371 307 CURVE SMOOTH",
"419 307 OFFCURVE",
"490 310 OFFCURVE",
"583 316 CURVE SMOOTH",
"676 321 OFFCURVE",
"744 323 OFFCURVE",
"786 323 CURVE SMOOTH",
"862 323 OFFCURVE",
"906 299 OFFCURVE",
"926 241 CURVE",
"775 223 OFFCURVE",
"520 211 OFFCURVE",
"271 211 CURVE SMOOTH",
"173 211 OFFCURVE",
"86 219 OFFCURVE",
"10 235 CURVE",
"9 174 OFFCURVE",
"21 158 OFFCURVE",
"85 145 CURVE SMOOTH",
"118 137 OFFCURVE",
"174 135 OFFCURVE",
"286 135 CURVE SMOOTH"
);
}
);
width = 1015;
},
{
anchors = (
{
name = bottom;
position = "{760, 77}";
},
{
name = top;
position = "{392, 723}";
}
);
layerId = "26E2967D-790C-4793-AF2A-2D0AD74EDC69";
paths = (
{
closed = 1;
nodes = (
"510 144 OFFCURVE",
"782 161 OFFCURVE",
"956 188 CURVE",
"970 220 OFFCURVE",
"977 247 OFFCURVE",
"977 269 CURVE SMOOTH",
"977 384 OFFCURVE",
"903 459 OFFCURVE",
"791 459 CURVE SMOOTH",
"755 459 OFFCURVE",
"687 456 OFFCURVE",
"586 451 CURVE SMOOTH",
"499 447 OFFCURVE",
"433 445 OFFCURVE",
"389 445 CURVE SMOOTH",
"364 445 OFFCURVE",
"341 448 OFFCURVE",
"319 455 CURVE SMOOTH",
"298 461 OFFCURVE",
"287 469 OFFCURVE",
"287 477 CURVE SMOOTH",
"287 486 OFFCURVE",
"299 497 OFFCURVE",
"324 511 CURVE SMOOTH",
"352 527 OFFCURVE",
"396 545 OFFCURVE",
"483 579 CURVE SMOOTH",
"518 593 OFFCURVE",
"538 627 OFFCURVE",
"539 675 CURVE SMOOTH",
"539 690 OFFCURVE",
"537 706 OFFCURVE",
"534 723 CURVE",
"461 704 OFFCURVE",
"376 663 OFFCURVE",
"319 612 CURVE SMOOTH",
"263 561 OFFCURVE",
"235 509 OFFCURVE",
"235 460 CURVE SMOOTH",
"235 374 OFFCURVE",
"275 333 OFFCURVE",
"371 333 CURVE SMOOTH",
"419 333 OFFCURVE",
"491 336 OFFCURVE",
"585 342 CURVE SMOOTH",
"679 347 OFFCURVE",
"748 349 OFFCURVE",
"791 349 CURVE SMOOTH",
"867 349 OFFCURVE",
"901 336 OFFCURVE",
"923 292 CURVE",
"766 273 OFFCURVE",
"500 262 OFFCURVE",
"271 262 CURVE SMOOTH",
"173 262 OFFCURVE",
"86 270 OFFCURVE",
"10 286 CURVE",
"9 206 OFFCURVE",
"40 161 OFFCURVE",
"96 151 CURVE SMOOTH",
"127 146 OFFCURVE",
"182 144 OFFCURVE",
"286 144 CURVE SMOOTH"
);
}
);
width = 1015;
}
);
unicode = 06AA;
},
{
glyphname = uni06AA.fina;
lastChange = "2019-12-19 12:00:27 +0000";
layers = (
{
anchors = (
{
name = bottom;
position = "{792, 83}";
},
{
name = top;
position = "{389, 702}";
}
);
layerId = master01;
paths = (
{
closed = 1;
nodes = (
"501 135 OFFCURVE",
"741 150 OFFCURVE",
"941 178 CURVE",
"946 176 LINE SMOOTH",
"985 149 OFFCURVE",
"1028 135 OFFCURVE",
"1074 135 CURVE SMOOTH",
"1079 135 OFFCURVE",
"1082 138 OFFCURVE",
"1082 143 CURVE SMOOTH",
"1082 203 LINE SMOOTH",
"1082 208 OFFCURVE",
"1079 211 OFFCURVE",
"1074 211 CURVE SMOOTH",
"1033 211 OFFCURVE",
"999 220 OFFCURVE",
"962 241 CURVE",
"964 260 LINE",
"964 289 OFFCURVE",
"956 313 OFFCURVE",
"940 334 CURVE SMOOTH",
"909 376 OFFCURVE",
"850 399 OFFCURVE",
"784 399 CURVE SMOOTH",
"679 399 OFFCURVE",
"491 385 OFFCURVE",
"389 385 CURVE SMOOTH",
"363 385 OFFCURVE",
"333 389 OFFCURVE",
"312 397 CURVE SMOOTH",
"293 403 OFFCURVE",
"280 410 OFFCURVE",
"280 418 CURVE SMOOTH",
"280 427 OFFCURVE",
"289 440 OFFCURVE",
"307 455 CURVE SMOOTH",
"343 485 OFFCURVE",
"427 533 OFFCURVE",
"483 556 CURVE SMOOTH",
"514 568 OFFCURVE",
"529 593 OFFCURVE",
"529 629 CURVE SMOOTH",
"529 637 OFFCURVE",
"528 645 OFFCURVE",
"526 654 CURVE",
"452 634 OFFCURVE",
"374 593 OFFCURVE",
"322 546 CURVE SMOOTH",
"269 500 OFFCURVE",
"244 451 OFFCURVE",
"244 400 CURVE SMOOTH",
"244 333 OFFCURVE",
"281 307 OFFCURVE",
"371 307 CURVE SMOOTH",
"478 307 OFFCURVE",
"682 323 OFFCURVE",
"786 323 CURVE SMOOTH",
"862 323 OFFCURVE",
"906 299 OFFCURVE",
"926 241 CURVE",
"775 223 OFFCURVE",
"520 211 OFFCURVE",
"271 211 CURVE SMOOTH",
"173 211 OFFCURVE",
"86 219 OFFCURVE",
"10 235 CURVE",
"9 218 LINE",
"10 174 OFFCURVE",
"29 157 OFFCURVE",
"85 145 CURVE SMOOTH",
"114 138 OFFCURVE",
"167 135 OFFCURVE",
"246 135 CURVE SMOOTH"
);
}
);
width = 1065;
},
{
anchors = (
{
name = bottom;
position = "{792, 77}";
},
{
name = top;
position = "{389, 721}";
}
);
layerId = "26E2967D-790C-4793-AF2A-2D0AD74EDC69";
paths = (
{
closed = 1;
nodes = (
"507 144 OFFCURVE",
"768 159 OFFCURVE",
"943 186 CURVE",
"946 184 LINE SMOOTH",
"985 157 OFFCURVE",
"1028 144 OFFCURVE",
"1074 144 CURVE SMOOTH",
"1079 144 OFFCURVE",
"1082 147 OFFCURVE",
"1082 152 CURVE SMOOTH",
"1082 254 LINE SMOOTH",
"1082 260 OFFCURVE",
"1079 262 OFFCURVE",
"1074 262 CURVE SMOOTH",
"1038 262 OFFCURVE",
"1004 270 OFFCURVE",
"975 284 CURVE",
"975 291 LINE",
"969 337 OFFCURVE",
"957 369 OFFCURVE",
"937 395 CURVE SMOOTH",
"904 435 OFFCURVE",
"853 459 OFFCURVE",
"791 459 CURVE SMOOTH",
"704 459 OFFCURVE",
"482 445 OFFCURVE",
"389 445 CURVE SMOOTH",
"364 445 OFFCURVE",
"341 448 OFFCURVE",
"319 455 CURVE SMOOTH",
"298 461 OFFCURVE",
"287 469 OFFCURVE",
"287 477 CURVE SMOOTH",
"287 486 OFFCURVE",
"299 497 OFFCURVE",
"324 511 CURVE SMOOTH",
"351 526 OFFCURVE",
"394 545 OFFCURVE",
"483 579 CURVE SMOOTH",
"518 593 OFFCURVE",
"538 627 OFFCURVE",
"539 675 CURVE SMOOTH",
"539 690 OFFCURVE",
"537 706 OFFCURVE",
"534 723 CURVE",
"461 704 OFFCURVE",
"376 663 OFFCURVE",
"319 612 CURVE SMOOTH",
"263 561 OFFCURVE",
"235 509 OFFCURVE",
"235 460 CURVE SMOOTH",
"235 374 OFFCURVE",
"275 333 OFFCURVE",
"371 333 CURVE SMOOTH",
"478 333 OFFCURVE",
"686 349 OFFCURVE",
"791 349 CURVE SMOOTH",
"867 349 OFFCURVE",
"901 336 OFFCURVE",
"923 292 CURVE",
"766 273 OFFCURVE",
"500 262 OFFCURVE",
"271 262 CURVE SMOOTH",
"173 262 OFFCURVE",
"86 270 OFFCURVE",
"10 286 CURVE",
"9 267 LINE",
"9 208 OFFCURVE",
"45 160 OFFCURVE",
"96 151 CURVE SMOOTH",
"123 146 OFFCURVE",
"173 144 OFFCURVE",
"246 144 CURVE SMOOTH"
);
}
);
width = 1065;
}
);
},
{
glyphname = uni06AA.medi;
lastChange = "2019-12-19 12:00:30 +0000";
layers = (
{
anchors = (
{
name = bottom;
position = "{680, 83}";
},
{
name = top;
position = "{264, 702}";
}
);
layerId = master01;
paths = (
{
closed = 1;
nodes = (
"307 135 OFFCURVE",
"655 151 OFFCURVE",
"814 179 CURVE",
"856 150 OFFCURVE",
"901 135 OFFCURVE",
"947 135 CURVE SMOOTH",
"953 135 OFFCURVE",
"956 138 OFFCURVE",
"956 143 CURVE SMOOTH",
"956 203 LINE SMOOTH",
"956 208 OFFCURVE",
"953 211 OFFCURVE",
"947 211 CURVE SMOOTH",
"904 211 OFFCURVE",
"867 221 OFFCURVE",
"835 241 CURVE",
"836 260 LINE",
"836 289 OFFCURVE",
"829 313 OFFCURVE",
"813 334 CURVE SMOOTH",
"782 376 OFFCURVE",
"723 399 OFFCURVE",
"656 399 CURVE SMOOTH",
"553 399 OFFCURVE",
"362 385 OFFCURVE",
"261 385 CURVE SMOOTH",
"214 385 OFFCURVE",
"152 401 OFFCURVE",
"152 418 CURVE SMOOTH",
"152 427 OFFCURVE",
"161 440 OFFCURVE",
"179 455 CURVE SMOOTH",
"216 485 OFFCURVE",
"300 533 OFFCURVE",
"356 556 CURVE SMOOTH",
"395 573 OFFCURVE",
"401 606 OFFCURVE",
"401 630 CURVE SMOOTH",
"401 637 OFFCURVE",
"401 645 OFFCURVE",
"399 654 CURVE",
"352 642 OFFCURVE",
"305 621 OFFCURVE",
"258 593 CURVE SMOOTH",
"163 536 OFFCURVE",
"117 470 OFFCURVE",
"117 400 CURVE SMOOTH",
"117 333 OFFCURVE",
"154 307 OFFCURVE",
"243 307 CURVE SMOOTH",
"351 307 OFFCURVE",
"555 323 OFFCURVE",
"659 323 CURVE SMOOTH",
"735 323 OFFCURVE",
"779 299 OFFCURVE",
"799 241 CURVE",
"632 215 OFFCURVE",
"283 211 OFFCURVE",
"0 211 CURVE SMOOTH",
"-6 211 OFFCURVE",
"-8 208 OFFCURVE",
"-8 203 CURVE SMOOTH",
"-8 143 LINE SMOOTH",
"-8 138 OFFCURVE",
"-6 135 OFFCURVE",
"0 135 CURVE SMOOTH"
);
}
);
width = 938;
},
{
anchors = (
{
name = bottom;
position = "{675, 77}";
},
{
name = top;
position = "{259, 715}";
}
);
layerId = "26E2967D-790C-4793-AF2A-2D0AD74EDC69";
paths = (
{
closed = 1;
nodes = (
"243 144 OFFCURVE",
"639 162 OFFCURVE",
"816 186 CURVE",
"859 158 OFFCURVE",
"902 144 OFFCURVE",
"947 144 CURVE SMOOTH",
"953 144 OFFCURVE",
"956 147 OFFCURVE",
"956 152 CURVE SMOOTH",
"956 254 LINE SMOOTH",
"956 260 OFFCURVE",
"953 262 OFFCURVE",
"947 262 CURVE SMOOTH",
"909 262 OFFCURVE",
"875 271 OFFCURVE",
"845 287 CURVE",
"845 292 LINE",
"842 324 OFFCURVE",
"833 353 OFFCURVE",
"818 378 CURVE SMOOTH",
"787 428 OFFCURVE",
"731 459 OFFCURVE",
"660 459 CURVE SMOOTH",
"573 459 OFFCURVE",
"352 445 OFFCURVE",
"258 445 CURVE SMOOTH",
"222 445 OFFCURVE",
"156 456 OFFCURVE",
"156 477 CURVE SMOOTH",
"156 486 OFFCURVE",
"169 497 OFFCURVE",
"193 511 CURVE SMOOTH",
"220 526 OFFCURVE",
"263 545 OFFCURVE",
"353 579 CURVE SMOOTH",
"388 593 OFFCURVE",
"408 629 OFFCURVE",
"408 675 CURVE SMOOTH",
"408 690 OFFCURVE",
"406 706 OFFCURVE",
"403 723 CURVE",
"358 712 OFFCURVE",
"311 693 OFFCURVE",
"264 666 CURVE SMOOTH",
"169 614 OFFCURVE",
"104 533 OFFCURVE",
"104 460 CURVE SMOOTH",
"104 374 OFFCURVE",
"143 333 OFFCURVE",
"240 333 CURVE SMOOTH",
"347 333 OFFCURVE",
"555 349 OFFCURVE",
"660 349 CURVE SMOOTH",
"735 349 OFFCURVE",
"768 337 OFFCURVE",
"792 292 CURVE",
"644 275 OFFCURVE",
"273 262 OFFCURVE",
"0 262 CURVE SMOOTH",
"-6 262 OFFCURVE",
"-8 260 OFFCURVE",
"-8 254 CURVE SMOOTH",
"-8 152 LINE SMOOTH",
"-8 147 OFFCURVE",
"-6 144 OFFCURVE",
"0 144 CURVE SMOOTH"
);
}
);
width = 938;
}
);
},
{
glyphname = uni06AA.init;
lastChange = "2019-12-19 12:00:33 +0000";
layers = (
{
anchors = (
{
name = bottom;
position = "{657, 83}";
},
{
name = top;
position = "{259, 702}";
}
);
layerId = master01;
paths = (
{
closed = 1;
nodes = (
"304 135 OFFCURVE",
"655 151 OFFCURVE",
"815 179 CURVE",
"829 211 OFFCURVE",
"836 238 OFFCURVE",
"836 260 CURVE SMOOTH",
"836 289 OFFCURVE",
"829 313 OFFCURVE",
"813 334 CURVE SMOOTH",
"782 376 OFFCURVE",
"723 399 OFFCURVE",
"656 399 CURVE SMOOTH",
"553 399 OFFCURVE",
"362 385 OFFCURVE",
"261 385 CURVE SMOOTH",
"214 385 OFFCURVE",
"152 401 OFFCURVE",
"152 418 CURVE SMOOTH",
"152 427 OFFCURVE",
"161 440 OFFCURVE",
"179 455 CURVE SMOOTH",
"216 485 OFFCURVE",
"300 533 OFFCURVE",
"356 556 CURVE SMOOTH",
"395 573 OFFCURVE",
"401 606 OFFCURVE",
"401 630 CURVE SMOOTH",
"401 637 OFFCURVE",
"401 645 OFFCURVE",
"399 654 CURVE",
"352 642 OFFCURVE",
"305 621 OFFCURVE",
"258 593 CURVE SMOOTH",
"163 536 OFFCURVE",
"117 470 OFFCURVE",
"117 400 CURVE SMOOTH",
"117 333 OFFCURVE",
"154 307 OFFCURVE",
"243 307 CURVE SMOOTH",
"351 307 OFFCURVE",
"555 323 OFFCURVE",
"659 323 CURVE SMOOTH",
"735 323 OFFCURVE",
"779 299 OFFCURVE",
"799 241 CURVE",
"632 215 OFFCURVE",
"283 211 OFFCURVE",
"0 211 CURVE SMOOTH",
"-6 211 OFFCURVE",
"-8 208 OFFCURVE",
"-8 203 CURVE SMOOTH",
"-8 143 LINE SMOOTH",
"-8 138 OFFCURVE",
"-6 135 OFFCURVE",
"0 135 CURVE SMOOTH"
);
}
);
width = 887;
},
{
anchors = (
{
name = bottom;
position = "{672, 77}";
},
{
name = top;
position = "{259, 724}";
}
);
layerId = "26E2967D-790C-4793-AF2A-2D0AD74EDC69";
paths = (
{
closed = 1;
nodes = (
"264 144 OFFCURVE",
"663 163 OFFCURVE",
"825 188 CURVE",
"839 220 OFFCURVE",
"846 247 OFFCURVE",
"846 269 CURVE SMOOTH",
"846 383 OFFCURVE",
"772 459 OFFCURVE",
"660 459 CURVE SMOOTH",
"573 459 OFFCURVE",
"352 445 OFFCURVE",
"258 445 CURVE SMOOTH",
"233 445 OFFCURVE",
"210 448 OFFCURVE",
"188 455 CURVE SMOOTH",
"167 461 OFFCURVE",
"156 469 OFFCURVE",
"156 477 CURVE SMOOTH",
"156 486 OFFCURVE",
"169 497 OFFCURVE",
"193 511 CURVE SMOOTH",
"220 526 OFFCURVE",
"263 545 OFFCURVE",
"353 579 CURVE SMOOTH",
"388 593 OFFCURVE",
"408 629 OFFCURVE",
"408 675 CURVE SMOOTH",
"408 690 OFFCURVE",
"406 706 OFFCURVE",
"403 723 CURVE",
"358 712 OFFCURVE",
"311 693 OFFCURVE",
"264 666 CURVE SMOOTH",
"169 614 OFFCURVE",
"104 533 OFFCURVE",
"104 460 CURVE SMOOTH",
"104 374 OFFCURVE",
"143 333 OFFCURVE",
"240 333 CURVE SMOOTH",
"347 333 OFFCURVE",
"555 349 OFFCURVE",
"660 349 CURVE SMOOTH",
"735 349 OFFCURVE",
"768 337 OFFCURVE",
"792 292 CURVE",
"644 275 OFFCURVE",
"273 262 OFFCURVE",
"0 262 CURVE SMOOTH",
"-6 262 OFFCURVE",
"-8 260 OFFCURVE",
"-8 254 CURVE SMOOTH",
"-8 152 LINE SMOOTH",
"-8 147 OFFCURVE",
"-6 144 OFFCURVE",
"0 144 CURVE SMOOTH"
);
}
);
width = 887;
}
);
},
{
glyphname = uni0644;
lastChange = "2019-12-19 13:30:58 +0000";
layers = (
{
anchors = (
{
name = bottom;
position = "{37, -128}";
},
{
name = top;
position = "{399, 826}";
}
);
layerId = master01;
paths = (
{
closed = 1;
nodes = (
"297 -127 OFFCURVE",
"343 -115 OFFCURVE",
"388 -91 CURVE SMOOTH",
"478 -44 OFFCURVE",
"533 36 OFFCURVE",
"533 118 CURVE SMOOTH",
"533 177 OFFCURVE",
"526 255 OFFCURVE",
"513 355 CURVE SMOOTH",
"479 667 LINE",
"502 687 LINE",
"490 726 OFFCURVE",
"475 776 OFFCURVE",
"466 806 CURVE",
"421 796 OFFCURVE",
"401 773 OFFCURVE",
"401 728 CURVE SMOOTH",
"401 662 OFFCURVE",
"442 413 OFFCURVE",
"470 242 CURVE SMOOTH",
"496 81 LINE",
"485 58 OFFCURVE",
"466 37 OFFCURVE",
"440 18 CURVE SMOOTH",
"388 -21 OFFCURVE",
"315 -44 OFFCURVE",
"251 -44 CURVE SMOOTH",
"164 -44 OFFCURVE",
"113 13 OFFCURVE",
"113 111 CURVE SMOOTH",
"113 129 OFFCURVE",
"117 153 OFFCURVE",
"124 182 CURVE",
"87 191 LINE",
"71 125 OFFCURVE",
"68 100 OFFCURVE",
"68 61 CURVE SMOOTH",
"68 -59 OFFCURVE",
"135 -127 OFFCURVE",
"249 -127 CURVE SMOOTH"
);
}
);
width = 595;
},
{
anchors = (
{
name = bottom;
position = "{37, -128}";
},
{
name = top;
position = "{430, 864}";
}
);
layerId = "26E2967D-790C-4793-AF2A-2D0AD74EDC69";
paths = (
{
closed = 1;
nodes = (
"305 -117 OFFCURVE",
"355 -107 OFFCURVE",
"401 -85 CURVE SMOOTH",
"492 -43 OFFCURVE",
"549 38 OFFCURVE",
"549 128 CURVE SMOOTH",
"549 201 OFFCURVE",
"542 258 OFFCURVE",
"532 356 CURVE SMOOTH",
"502 668 LINE",
"534 692 LINE",
"519 729 OFFCURVE",
"506 770 OFFCURVE",
"494 815 CURVE",
"435 815 OFFCURVE",
"386 769 OFFCURVE",
"386 713 CURVE SMOOTH",
"386 686 OFFCURVE",
"442 354 OFFCURVE",
"471 207 CURVE SMOOTH",
"493 90 LINE",
"472 71 OFFCURVE",
"451 54 OFFCURVE",
"430 42 CURVE SMOOTH",
"380 13 OFFCURVE",
"326 1 OFFCURVE",
"253 1 CURVE SMOOTH",
"165 1 OFFCURVE",
"123 47 OFFCURVE",
"123 142 CURVE SMOOTH",
"123 165 OFFCURVE",
"127 192 OFFCURVE",
"136 222 CURVE",
"92 233 LINE",
"76 170 OFFCURVE",
"67 122 OFFCURVE",
"67 88 CURVE SMOOTH",
"67 -45 OFFCURVE",
"131 -117 OFFCURVE",
"251 -117 CURVE SMOOTH"
);
}
);
width = 612;
}
);
unicode = "0644,FEDD";
},
{
glyphname = uniFEDE;
lastChange = "2019-12-19 13:40:44 +0000";
layers = (
{
anchors = (
{
name = bottom;
position = "{37, -128}";
},
{
name = top;
position = "{404, 829}";
}
);
layerId = master01;
paths = (
{
closed = 1;
nodes = (
"297 -127 OFFCURVE",
"343 -115 OFFCURVE",
"388 -91 CURVE SMOOTH",
"478 -44 OFFCURVE",
"533 36 OFFCURVE",
"533 118 CURVE SMOOTH",
"532 151 LINE",
"553 140 OFFCURVE",
"576 135 OFFCURVE",
"600 135 CURVE SMOOTH",
"606 135 OFFCURVE",
"608 138 OFFCURVE",
"608 143 CURVE SMOOTH",
"608 203 LINE SMOOTH",
"608 208 OFFCURVE",
"606 211 OFFCURVE",
"600 211 CURVE SMOOTH",
"573 211 OFFCURVE",
"548 217 OFFCURVE",
"527 228 CURVE",
"524 260 OFFCURVE",
"508 404 OFFCURVE",
"479 667 CURVE",
"502 687 LINE",
"487 728 OFFCURVE",
"473 776 OFFCURVE",
"466 806 CURVE",
"421 796 OFFCURVE",
"401 773 OFFCURVE",
"401 728 CURVE SMOOTH",
"401 707 OFFCURVE",
"405 663 OFFCURVE",
"414 596 CURVE SMOOTH",
"423 530 OFFCURVE",
"442 412 OFFCURVE",
"470 242 CURVE SMOOTH",
"496 81 LINE",
"485 58 OFFCURVE",
"466 37 OFFCURVE",
"440 18 CURVE SMOOTH",
"388 -21 OFFCURVE",
"315 -44 OFFCURVE",
"251 -44 CURVE SMOOTH",
"164 -44 OFFCURVE",
"113 13 OFFCURVE",
"113 111 CURVE SMOOTH",
"113 129 OFFCURVE",
"117 153 OFFCURVE",
"124 182 CURVE",
"87 191 LINE",
"71 125 OFFCURVE",
"68 100 OFFCURVE",
"68 61 CURVE SMOOTH",
"68 -59 OFFCURVE",
"135 -127 OFFCURVE",
"249 -127 CURVE SMOOTH"
);
}
);
width = 591;
},
{
anchors = (
{
name = bottom;
position = "{37, -128}";
},
{
name = top;
position = "{430, 864}";
}
);
layerId = "26E2967D-790C-4793-AF2A-2D0AD74EDC69";
paths = (
{
closed = 1;
nodes = (
"305 -117 OFFCURVE",
"355 -107 OFFCURVE",
"401 -85 CURVE SMOOTH",
"492 -43 OFFCURVE",
"549 38 OFFCURVE",
"549 128 CURVE SMOOTH",
"548 165 LINE",
"576 149 OFFCURVE",
"600 144 OFFCURVE",
"625 144 CURVE SMOOTH",
"631 144 OFFCURVE",
"634 147 OFFCURVE",
"634 152 CURVE SMOOTH",
"634 254 LINE SMOOTH",
"634 260 OFFCURVE",
"631 262 OFFCURVE",
"625 262 CURVE SMOOTH",
"595 262 OFFCURVE",
"566 271 OFFCURVE",
"539 287 CURVE",
"527 415 OFFCURVE",
"514 543 OFFCURVE",
"502 668 CURVE",
"534 692 LINE",
"519 729 OFFCURVE",
"506 770 OFFCURVE",
"494 815 CURVE",
"435 815 OFFCURVE",
"386 769 OFFCURVE",
"386 713 CURVE SMOOTH",
"386 684 OFFCURVE",
"413 545 OFFCURVE",
"426 461 CURVE SMOOTH",
"450 322 OFFCURVE",
"465 238 OFFCURVE",
"471 207 CURVE SMOOTH",
"493 90 LINE",
"474 72 OFFCURVE",
"455 57 OFFCURVE",
"435 45 CURVE SMOOTH",
"384 13 OFFCURVE",
"329 1 OFFCURVE",
"253 1 CURVE SMOOTH",
"165 1 OFFCURVE",
"123 47 OFFCURVE",
"123 142 CURVE SMOOTH",
"123 165 OFFCURVE",
"127 192 OFFCURVE",
"136 222 CURVE",
"92 233 LINE",
"76 170 OFFCURVE",
"67 122 OFFCURVE",
"67 88 CURVE SMOOTH",
"67 -45 OFFCURVE",
"131 -117 OFFCURVE",
"251 -117 CURVE SMOOTH"
);
}
);
width = 617;
}
);
unicode = FEDE;
},
{
glyphname = uniFEE0;
lastChange = "2019-12-19 12:03:42 +0000";
layers = (
{
anchors = (
{
name = bottom;
position = "{132, 83}";
},
{
name = top;
position = "{79, 828}";
}
);
layerId = master01;
paths = (
{
closed = 1;
nodes = (
"57 135 OFFCURVE",
"89 143 OFFCURVE",
"138 171 CURVE",
"166 147 OFFCURVE",
"204 135 OFFCURVE",
"253 135 CURVE SMOOTH",
"259 135 OFFCURVE",
"262 138 OFFCURVE",
"262 143 CURVE SMOOTH",
"262 203 LINE SMOOTH",
"262 208 OFFCURVE",
"259 211 OFFCURVE",
"253 211 CURVE SMOOTH",
"214 211 OFFCURVE",
"179 220 OFFCURVE",
"149 238 CURVE",
"148 283 OFFCURVE",
"146 329 OFFCURVE",
"146 375 CURVE SMOOTH",
"143 571 OFFCURVE",
"139 714 OFFCURVE",
"135 806 CURVE",
"110 789 OFFCURVE",
"88 771 OFFCURVE",
"68 750 CURVE",
"71 706 OFFCURVE",
"74 661 OFFCURVE",
"78 617 CURVE SMOOTH",
"90 434 OFFCURVE",
"101 307 OFFCURVE",
"109 237 CURVE",
"74 220 OFFCURVE",
"38 211 OFFCURVE",
"0 211 CURVE SMOOTH",
"-6 211 OFFCURVE",
"-8 208 OFFCURVE",
"-8 203 CURVE SMOOTH",
"-8 143 LINE SMOOTH",
"-8 138 OFFCURVE",
"-6 135 OFFCURVE",
"0 135 CURVE SMOOTH"
);
}
);
width = 245;
},
{
anchors = (
{
name = bottom;
position = "{123, 77}";
},
{
name = top;
position = "{79, 838}";
}
);
layerId = "26E2967D-790C-4793-AF2A-2D0AD74EDC69";
paths = (
{
closed = 1;
nodes = (
"52 144 OFFCURVE",
"100 160 OFFCURVE",
"130 179 CURVE",
"156 156 OFFCURVE",
"197 144 OFFCURVE",
"253 144 CURVE SMOOTH",
"259 144 OFFCURVE",
"262 147 OFFCURVE",
"262 152 CURVE SMOOTH",
"262 254 LINE SMOOTH",
"262 260 OFFCURVE",
"259 262 OFFCURVE",
"253 262 CURVE SMOOTH",
"207 262 OFFCURVE",
"174 270 OFFCURVE",
"144 290 CURVE",
"144 319 OFFCURVE",
"144 348 OFFCURVE",
"144 406 CURVE SMOOTH",
"145 569 OFFCURVE",
"150 740 OFFCURVE",
"152 815 CURVE",
"109 796 OFFCURVE",
"69 775 OFFCURVE",
"33 749 CURVE",
"38 701 OFFCURVE",
"43 656 OFFCURVE",
"48 613 CURVE SMOOTH",
"63 486 OFFCURVE",
"78 375 OFFCURVE",
"93 281 CURVE",
"63 269 OFFCURVE",
"32 262 OFFCURVE",
"0 262 CURVE SMOOTH",
"-6 262 OFFCURVE",
"-8 260 OFFCURVE",
"-8 254 CURVE SMOOTH",
"-8 152 LINE SMOOTH",
"-8 147 OFFCURVE",
"-6 144 OFFCURVE",
"0 144 CURVE SMOOTH"
);
}
);
width = 245;
}
);
unicode = FEE0;
},
{
glyphname = uniFEE0.rlig;
lastChange = "2019-12-19 12:04:25 +0000";
layers = (
{
anchors = (
{
name = bottom;
position = "{507, 83}";
},
{
name = top;
position = "{453, 821}";
}
);
layerId = master01;
paths = (
{
closed = 1;
nodes = (
"126 136 OFFCURVE",
"185 139 OFFCURVE",
"259 147 CURVE SMOOTH",
"303 153 OFFCURVE",
"340 176 OFFCURVE",
"369 218 CURVE SMOOTH",
"387 244 OFFCURVE",
"402 279 OFFCURVE",
"415 322 CURVE SMOOTH",
"429 370 OFFCURVE",
"444 481 OFFCURVE",
"450 540 CURVE",
"453 502 OFFCURVE",
"458 418 OFFCURVE",
"459 398 CURVE SMOOTH",
"463 343 OFFCURVE",
"469 287 OFFCURVE",
"477 222 CURVE SMOOTH",
"485 161 OFFCURVE",
"552 135 OFFCURVE",
"619 135 CURVE SMOOTH",
"624 135 OFFCURVE",
"627 138 OFFCURVE",
"627 143 CURVE SMOOTH",
"627 203 LINE SMOOTH",
"627 207 OFFCURVE",
"626 211 OFFCURVE",
"619 211 CURVE SMOOTH",
"594 211 OFFCURVE",
"573 214 OFFCURVE",
"555 220 CURVE SMOOTH",
"540 225 OFFCURVE",
"527 230 OFFCURVE",
"515 238 CURVE",
"512 329 OFFCURVE",
"511 389 OFFCURVE",
"509 518 CURVE SMOOTH",
"507 613 OFFCURVE",
"505 706 OFFCURVE",
"500 806 CURVE",
"478 790 OFFCURVE",
"458 776 OFFCURVE",
"433 750 CURVE",
"430 662 OFFCURVE",
"424 574 OFFCURVE",
"410 497 CURVE SMOOTH",
"397 420 OFFCURVE",
"376 354 OFFCURVE",
"344 310 CURVE SMOOTH",
"316 271 OFFCURVE",
"281 245 OFFCURVE",
"234 225 CURVE SMOOTH",
"187 204 OFFCURVE",
"128 189 OFFCURVE",
"53 170 CURVE",
"56 135 LINE"
);
}
);
width = 610;
},
{
anchors = (
{
name = bottom;
position = "{507, 83}";
},
{
name = top;
position = "{453, 819}";
}
);
layerId = "26E2967D-790C-4793-AF2A-2D0AD74EDC69";
paths = (
{
closed = 1;
nodes = (
"139 140 OFFCURVE",
"211 144 OFFCURVE",
"293 154 CURVE SMOOTH",
"329 158 OFFCURVE",
"356 174 OFFCURVE",
"379 203 CURVE SMOOTH",
"401 232 OFFCURVE",
"419 272 OFFCURVE",
"435 326 CURVE SMOOTH",
"448 373 OFFCURVE",
"445 379 OFFCURVE",
"462 522 CURVE",
"464 494 OFFCURVE",
"469 433 OFFCURVE",
"472 393 CURVE SMOOTH",
"476 337 OFFCURVE",
"479 281 OFFCURVE",
"487 234 CURVE SMOOTH",
"498 168 OFFCURVE",
"562 144 OFFCURVE",
"639 144 CURVE SMOOTH",
"645 144 OFFCURVE",
"648 147 OFFCURVE",
"648 152 CURVE SMOOTH",
"648 254 LINE SMOOTH",
"648 259 OFFCURVE",
"646 262 OFFCURVE",
"639 262 CURVE SMOOTH",
"614 262 OFFCURVE",
"593 265 OFFCURVE",
"575 269 CURVE SMOOTH",
"559 274 OFFCURVE",
"544 281 OFFCURVE",
"529 290 CURVE",
"529 311 OFFCURVE",
"527 422 OFFCURVE",
"527 464 CURVE SMOOTH",
"526 516 OFFCURVE",
"524 758 OFFCURVE",
"524 815 CURVE",
"482 791 OFFCURVE",
"457 770 OFFCURVE",
"418 748 CURVE",
"418 639 OFFCURVE",
"411 555 OFFCURVE",
"396 489 CURVE SMOOTH",
"382 422 OFFCURVE",
"361 372 OFFCURVE",
"333 330 CURVE SMOOTH",
"306 291 OFFCURVE",
"275 264 OFFCURVE",
"231 241 CURVE SMOOTH",
"187 219 OFFCURVE",
"133 202 OFFCURVE",
"59 183 CURVE",
"64 138 LINE"
);
}
);
width = 631;
}
);
},
{
glyphname = uniFEDF;
lastChange = "2019-12-19 12:04:37 +0000";
layers = (
{
anchors = (
{
name = bottom;
position = "{120, 83}";
},
{
name = top;
position = "{79, 809}";
}
);
layerId = master01;
paths = (
{
closed = 1;
nodes = (
"66 135 OFFCURVE",
"106 147 OFFCURVE",
"118 170 CURVE SMOOTH",
"138 205 OFFCURVE",
"153 247 OFFCURVE",
"153 270 CURVE SMOOTH",
"152 341 OFFCURVE",
"149 426 OFFCURVE",
"143 523 CURVE SMOOTH",
"135 640 OFFCURVE",
"130 734 OFFCURVE",
"126 806 CURVE",
"101 788 OFFCURVE",
"79 770 OFFCURVE",
"60 750 CURVE",
"74 632 OFFCURVE",
"86 511 OFFCURVE",
"98 386 CURVE SMOOTH",
"102 338 OFFCURVE",
"106 288 OFFCURVE",
"110 238 CURVE",
"76 220 OFFCURVE",
"39 211 OFFCURVE",
"-1 211 CURVE SMOOTH",
"-7 211 OFFCURVE",
"-10 208 OFFCURVE",
"-10 203 CURVE SMOOTH",
"-10 143 LINE SMOOTH",
"-10 138 OFFCURVE",
"-7 135 OFFCURVE",
"-1 135 CURVE SMOOTH"
);
}
);
width = 212;
},
{
anchors = (
{
name = bottom;
position = "{115, 77}";
},
{
name = top;
position = "{79, 815}";
}
);
layerId = "26E2967D-790C-4793-AF2A-2D0AD74EDC69";
paths = (
{
closed = 1;
nodes = (
"59 144 OFFCURVE",
"106 156 OFFCURVE",
"119 175 CURVE SMOOTH",
"145 214 OFFCURVE",
"158 257 OFFCURVE",
"158 302 CURVE SMOOTH",
"158 364 OFFCURVE",
"157 437 OFFCURVE",
"154 522 CURVE SMOOTH",
"151 607 OFFCURVE",
"148 705 OFFCURVE",
"146 815 CURVE",
"103 794 OFFCURVE",
"62 773 OFFCURVE",
"27 749 CURVE",
"62 556 OFFCURVE",
"83 440 OFFCURVE",
"89 402 CURVE SMOOTH",
"95 363 OFFCURVE",
"100 324 OFFCURVE",
"105 285 CURVE",
"65 270 OFFCURVE",
"30 262 OFFCURVE",
"0 262 CURVE SMOOTH",
"-6 262 OFFCURVE",
"-8 260 OFFCURVE",
"-8 254 CURVE SMOOTH",
"-8 152 LINE SMOOTH",
"-8 147 OFFCURVE",
"-6 144 OFFCURVE",
"0 144 CURVE SMOOTH"
);
}
);
width = 217;
}
);
unicode = FEDF;
},
{
glyphname = uniFEDF.rlig;
lastChange = "2019-12-19 12:04:52 +0000";
layers = (
{
anchors = (
{
name = bottom;
position = "{419, 83}";
},
{
name = top;
position = "{375, 847}";
}
);
layerId = master01;
paths = (
{
closed = 1;
nodes = (
"280 233 OFFCURVE",
"330 277 OFFCURVE",
"367 330 CURVE SMOOTH",
"404 383 OFFCURVE",
"429 446 OFFCURVE",
"429 517 CURVE SMOOTH",
"429 530 OFFCURVE",
"423 667 OFFCURVE",
"422 681 CURVE",
"449 704 LINE",
"432 751 OFFCURVE",
"424 781 OFFCURVE",
"413 823 CURVE",
"371 815 OFFCURVE",
"347 796 OFFCURVE",
"347 760 CURVE SMOOTH",
"347 727 OFFCURVE",
"379 548 OFFCURVE",
"379 497 CURVE SMOOTH",
"379 439 OFFCURVE",
"354 389 OFFCURVE",
"315 342 CURVE SMOOTH",
"276 295 OFFCURVE",
"222 251 OFFCURVE",
"164 206 CURVE",
"231 201 LINE"
);
}
);
width = 518;
},
{
anchors = (
{
name = bottom;
position = "{419, 83}";
},
{
name = top;
position = "{375, 842}";
}
);
layerId = "26E2967D-790C-4793-AF2A-2D0AD74EDC69";
paths = (
{
closed = 1;
nodes = (
"285 251 OFFCURVE",
"330 290 OFFCURVE",
"369 339 CURVE SMOOTH",
"421 406 OFFCURVE",
"453 486 OFFCURVE",
"453 571 CURVE SMOOTH",
"453 581 OFFCURVE",
"451 657 OFFCURVE",
"449 684 CURVE",
"482 709 LINE",
"465 751 OFFCURVE",
"455 782 OFFCURVE",
"442 832 CURVE",
"380 832 OFFCURVE",
"337 797 OFFCURVE",
"337 743 CURVE SMOOTH",
"337 705 OFFCURVE",
"368 562 OFFCURVE",
"368 522 CURVE SMOOTH",
"368 464 OFFCURVE",
"349 414 OFFCURVE",
"316 367 CURVE SMOOTH",
"283 321 OFFCURVE",
"235 277 OFFCURVE",
"177 232 CURVE",
"231 214 LINE"
);
}
);
width = 546;
}
);
},
{
glyphname = uni06B8.init;
lastChange = "2019-12-19 12:06:11 +0000";
layers = (
{
anchors = (
{
name = bottom;
position = "{137, -123}";
},
{
name = top;
position = "{201, 819}";
}
);
layerId = master01;
paths = (
{
closed = 1;
nodes = (
"77 135 OFFCURVE",
"234 144 OFFCURVE",
"247 170 CURVE SMOOTH",
"270 214 OFFCURVE",
"281 248 OFFCURVE",
"281 270 CURVE SMOOTH",
"280 426 OFFCURVE",
"262 644 OFFCURVE",
"255 806 CURVE",
"229 788 OFFCURVE",
"207 770 OFFCURVE",
"188 750 CURVE",
"209 571 OFFCURVE",
"226 400 OFFCURVE",
"238 239 CURVE",
"187 222 OFFCURVE",
"79 211 OFFCURVE",
"0 211 CURVE SMOOTH",
"-6 211 OFFCURVE",
"-8 208 OFFCURVE",
"-8 203 CURVE SMOOTH",
"-8 143 LINE SMOOTH",
"-8 138 OFFCURVE",
"-6 135 OFFCURVE",
"0 135 CURVE SMOOTH"
);
},
{
closed = 1;
nodes = (
"84 -21 OFFCURVE",
"102 -1 OFFCURVE",
"113 16 CURVE",
"85 44 OFFCURVE",
"66 62 OFFCURVE",
"59 71 CURVE",
"29 39 OFFCURVE",
"10 19 OFFCURVE",
"0 10 CURVE",
"16 -7 OFFCURVE",
"36 -26 OFFCURVE",
"60 -45 CURVE"
);
},
{
closed = 1;
nodes = (
"150 -104 OFFCURVE",
"167 -87 OFFCURVE",
"188 -64 CURVE",
"162 -40 OFFCURVE",
"143 -21 OFFCURVE",
"133 -8 CURVE",
"118 -27 OFFCURVE",
"100 -46 OFFCURVE",
"80 -64 CURVE",
"99 -86 OFFCURVE",
"118 -102 OFFCURVE",
"136 -114 CURVE"
);
},
{
closed = 1;
nodes = (
"227 -9 OFFCURVE",
"245 11 OFFCURVE",
"257 30 CURVE",
"234 46 OFFCURVE",
"217 64 OFFCURVE",
"202 83 CURVE",
"180 59 OFFCURVE",
"161 39 OFFCURVE",
"143 24 CURVE",
"158 5 OFFCURVE",
"178 -13 OFFCURVE",
"203 -32 CURVE"
);
}
);
width = 352;
},
{
anchors = (
{
name = bottom;
position = "{127, -82}";
},
{
name = top;
position = "{177, 821}";
}
);
layerId = "26E2967D-790C-4793-AF2A-2D0AD74EDC69";
paths = (
{
closed = 1;
nodes = (
"131 144 OFFCURVE",
"203 154 OFFCURVE",
"217 175 CURVE SMOOTH",
"247 223 OFFCURVE",
"256 258 OFFCURVE",
"256 302 CURVE SMOOTH",
"256 420 OFFCURVE",
"248 651 OFFCURVE",
"245 815 CURVE",
"205 796 OFFCURVE",
"165 774 OFFCURVE",
"125 749 CURVE",
"161 553 OFFCURVE",
"185 431 OFFCURVE",
"204 285 CURVE",
"158 269 OFFCURVE",
"111 262 OFFCURVE",
"0 262 CURVE SMOOTH",
"-6 262 OFFCURVE",
"-8 260 OFFCURVE",
"-8 254 CURVE SMOOTH",
"-8 152 LINE SMOOTH",
"-8 147 OFFCURVE",
"-6 144 OFFCURVE",
"0 144 CURVE SMOOTH"
);
},
{
closed = 1;
nodes = (
"90 -5 OFFCURVE",
"104 12 OFFCURVE",
"115 28 CURVE",
"96 46 OFFCURVE",
"81 60 OFFCURVE",
"71 72 CURVE",
"56 54 OFFCURVE",
"40 38 OFFCURVE",
"22 23 CURVE",
"34 10 OFFCURVE",
"50 -5 OFFCURVE",
"71 -22 CURVE"
);
},
{
closed = 1;
nodes = (
"138 -64 OFFCURVE",
"146 -54 OFFCURVE",
"166 -32 CURVE",
"149 -18 OFFCURVE",
"135 -5 OFFCURVE",
"125 8 CURVE",
"106 -11 OFFCURVE",
"96 -22 OFFCURVE",
"83 -32 CURVE",
"93 -43 OFFCURVE",
"107 -57 OFFCURVE",
"127 -73 CURVE"
);
},
{
closed = 1;
nodes = (
"188 5 OFFCURVE",
"202 22 OFFCURVE",
"213 38 CURVE",
"196 52 OFFCURVE",
"182 67 OFFCURVE",
"168 82 CURVE",
"153 64 OFFCURVE",
"137 48 OFFCURVE",
"121 33 CURVE",
"135 17 OFFCURVE",
"151 3 OFFCURVE",
"169 -11 CURVE"
);
}
);
width = 327;
}
);
},
{
glyphname = uni0645;
lastChange = "2019-12-19 08:47:14 +0000";
layers = (
{
anchors = (
{
name = bottom;
position = "{293, 85}";
},
{
name = top;
position = "{222, 533}";
}
);
layerId = master01;
paths = (
{
closed = 1;
nodes = (
"113 -160 OFFCURVE",
"135 -147 OFFCURVE",
"154 -133 CURVE",
"148 -84 OFFCURVE",
"139 -27 OFFCURVE",
"126 38 CURVE SMOOTH",
"119 77 OFFCURVE",
"113 115 OFFCURVE",
"106 155 CURVE",
"180 180 OFFCURVE",
"271 193 OFFCURVE",
"412 193 CURVE",
"450 295 LINE",
"415 321 OFFCURVE",
"382 359 OFFCURVE",
"339 419 CURVE SMOOTH",
"305 464 OFFCURVE",
"278 484 OFFCURVE",
"248 484 CURVE SMOOTH",
"192 484 OFFCURVE",
"139 433 OFFCURVE",
"104 343 CURVE",
"136 327 LINE",
"170 380 OFFCURVE",
"197 401 OFFCURVE",
"229 401 CURVE SMOOTH",
"259 401 OFFCURVE",
"295 366 OFFCURVE",
"337 297 CURVE",
"358 266 LINE",
"241 266 OFFCURVE",
"173 255 OFFCURVE",
"100 233 CURVE",
"83 198 OFFCURVE",
"68 165 OFFCURVE",
"68 140 CURVE SMOOTH",
"68 125 OFFCURVE",
"71 84 OFFCURVE",
"77 17 CURVE SMOOTH",
"83 -56 OFFCURVE",
"87 -119 OFFCURVE",
"87 -170 CURVE"
);
}
);
width = 489;
},
{
anchors = (
{
name = bottom;
position = "{303, 77}";
},
{
name = top;
position = "{227, 591}";
}
);
layerId = "26E2967D-790C-4793-AF2A-2D0AD74EDC69";
paths = (
{
closed = 1;
nodes = (
"107 -181 OFFCURVE",
"140 -162 OFFCURVE",
"175 -137 CURVE",
"163 -78 OFFCURVE",
"151 -20 OFFCURVE",
"139 38 CURVE SMOOTH",
"131 75 OFFCURVE",
"123 113 OFFCURVE",
"115 150 CURVE",
"162 167 OFFCURVE",
"312 186 OFFCURVE",
"422 186 CURVE",
"468 305 LINE",
"427 334 OFFCURVE",
"391 376 OFFCURVE",
"348 439 CURVE SMOOTH",
"308 496 OFFCURVE",
"282 518 OFFCURVE",
"250 518 CURVE SMOOTH",
"195 518 OFFCURVE",
"137 453 OFFCURVE",
"99 354 CURVE",
"140 333 LINE",
"172 378 OFFCURVE",
"200 401 OFFCURVE",
"231 401 CURVE SMOOTH",
"263 401 OFFCURVE",
"290 359 OFFCURVE",
"324 315 CURVE SMOOTH",
"343 294 LINE",
"289 294 OFFCURVE",
"102 271 OFFCURVE",
"93 253 CURVE SMOOTH",
"65 193 OFFCURVE",
"51 153 OFFCURVE",
"51 135 CURVE SMOOTH",
"51 111 OFFCURVE",
"55 65 OFFCURVE",
"62 -3 CURVE SMOOTH",
"70 -70 OFFCURVE",
"74 -133 OFFCURVE",
"74 -193 CURVE"
);
}
);
width = 502;
}
);
unicode = "0645,FEE1";
},
{
glyphname = uniFEE2;
lastChange = "2019-12-19 08:47:14 +0000";
layers = (
{
anchors = (
{
name = bottom;
position = "{337, 37}";
},
{
name = top;
position = "{276, 524}";
}
);
layerId = master01;
paths = (
{
closed = 1;
nodes = (
"124 -160 OFFCURVE",
"146 -147 OFFCURVE",
"166 -133 CURVE",
"158 -81 OFFCURVE",
"150 -29 OFFCURVE",
"143 23 CURVE SMOOTH",
"126 126 OFFCURVE",
"115 205 OFFCURVE",
"110 261 CURVE",
"135 280 OFFCURVE",
"163 300 OFFCURVE",
"194 321 CURVE",
"181 296 OFFCURVE",
"175 273 OFFCURVE",
"175 252 CURVE SMOOTH",
"175 183 OFFCURVE",
"295 135 OFFCURVE",
"433 135 CURVE",
"445 178 LINE",
"473 149 OFFCURVE",
"503 135 OFFCURVE",
"536 135 CURVE SMOOTH",
"544 135 OFFCURVE",
"547 139 OFFCURVE",
"547 146 CURVE SMOOTH",
"547 201 LINE SMOOTH",
"547 208 OFFCURVE",
"544 211 OFFCURVE",
"536 211 CURVE SMOOTH",
"520 211 OFFCURVE",
"505 222 OFFCURVE",
"490 243 CURVE SMOOTH",
"476 264 OFFCURVE",
"460 297 OFFCURVE",
"444 343 CURVE SMOOTH",
"427 390 OFFCURVE",
"412 423 OFFCURVE",
"399 444 CURVE SMOOTH",
"387 465 OFFCURVE",
"375 475 OFFCURVE",
"362 475 CURVE SMOOTH",
"334 475 OFFCURVE",
"288 455 OFFCURVE",
"230 421 CURVE SMOOTH",
"188 395 OFFCURVE",
"109 340 OFFCURVE",
"103 327 CURVE SMOOTH",
"87 293 OFFCURVE",
"77 270 OFFCURVE",
"73 258 CURVE SMOOTH",
"70 246 OFFCURVE",
"68 236 OFFCURVE",
"68 228 CURVE SMOOTH",
"68 184 OFFCURVE",
"72 129 OFFCURVE",
"79 65 CURVE SMOOTH",
"88 -16 OFFCURVE",
"94 -94 OFFCURVE",
"99 -170 CURVE"
);
},
{
closed = 1;
nodes = (
"337 213 OFFCURVE",
"271 236 OFFCURVE",
"228 273 CURVE",
"248 315 OFFCURVE",
"308 371 OFFCURVE",
"364 399 CURVE",
"371 327 OFFCURVE",
"396 251 OFFCURVE",
"426 204 CURVE"
);
}
);
width = 528;
},
{
anchors = (
{
name = bottom;
position = "{372, 59}";
},
{
name = top;
position = "{276, 574}";
}
);
layerId = "26E2967D-790C-4793-AF2A-2D0AD74EDC69";
paths = (
{
closed = 1;
nodes = (
"122 -160 OFFCURVE",
"155 -141 OFFCURVE",
"190 -115 CURVE",
"186 -83 OFFCURVE",
"178 -34 OFFCURVE",
"167 30 CURVE SMOOTH",
"149 135 OFFCURVE",
"138 200 OFFCURVE",
"128 270 CURVE",
"164 297 OFFCURVE",
"190 315 OFFCURVE",
"206 325 CURVE",
"198 302 OFFCURVE",
"194 279 OFFCURVE",
"194 256 CURVE SMOOTH",
"194 181 OFFCURVE",
"306 135 OFFCURVE",
"458 135 CURVE",
"471 182 LINE",
"498 157 OFFCURVE",
"528 144 OFFCURVE",
"561 144 CURVE SMOOTH",
"568 144 OFFCURVE",
"572 147 OFFCURVE",
"572 155 CURVE SMOOTH",
"572 253 LINE SMOOTH",
"572 259 OFFCURVE",
"568 262 OFFCURVE",
"561 262 CURVE SMOOTH",
"545 262 OFFCURVE",
"531 268 OFFCURVE",
"520 280 CURVE SMOOTH",
"498 303 OFFCURVE",
"480 341 OFFCURVE",
"466 382 CURVE SMOOTH",
"459 402 OFFCURVE",
"451 421 OFFCURVE",
"444 439 CURVE SMOOTH",
"428 474 OFFCURVE",
"411 501 OFFCURVE",
"387 501 CURVE SMOOTH",
"350 501 OFFCURVE",
"297 480 OFFCURVE",
"241 449 CURVE SMOOTH",
"186 417 OFFCURVE",
"116 364 OFFCURVE",
"110 354 CURVE SMOOTH",
"94 319 OFFCURVE",
"83 292 OFFCURVE",
"77 275 CURVE SMOOTH",
"71 257 OFFCURVE",
"68 245 OFFCURVE",
"68 237 CURVE SMOOTH",
"68 210 OFFCURVE",
"71 151 OFFCURVE",
"79 59 CURVE SMOOTH",
"85 -33 OFFCURVE",
"89 -110 OFFCURVE",
"89 -172 CURVE"
);
},
{
closed = 1;
nodes = (
"346 256 OFFCURVE",
"285 276 OFFCURVE",
"251 304 CURVE",
"284 343 OFFCURVE",
"328 373 OFFCURVE",
"384 395 CURVE",
"390 339 OFFCURVE",
"404 290 OFFCURVE",
"426 246 CURVE"
);
}
);
width = 555;
}
);
unicode = FEE2;
},
{
glyphname = uniFEE4;
lastChange = "2019-12-19 08:47:14 +0000";
layers = (
{
anchors = (
{
name = bottom;
position = "{242, 73}";
},
{
name = top;
position = "{195, 524}";
}
);
layerId = master01;
paths = (
{
closed = 1;
nodes = (
"328 179 LINE",
"355 150 OFFCURVE",
"385 135 OFFCURVE",
"419 135 CURVE SMOOTH",
"426 135 OFFCURVE",
"430 139 OFFCURVE",
"430 146 CURVE SMOOTH",
"430 201 LINE SMOOTH",
"430 208 OFFCURVE",
"426 211 OFFCURVE",
"419 211 CURVE SMOOTH",
"405 211 OFFCURVE",
"393 218 OFFCURVE",
"382 231 CURVE SMOOTH",
"361 257 OFFCURVE",
"342 297 OFFCURVE",
"326 343 CURVE SMOOTH",
"318 366 OFFCURVE",
"310 387 OFFCURVE",
"301 406 CURVE SMOOTH",
"284 446 OFFCURVE",
"267 475 OFFCURVE",
"245 475 CURVE SMOOTH",
"218 475 OFFCURVE",
"191 463 OFFCURVE",
"162 440 CURVE SMOOTH",
"104 393 OFFCURVE",
"58 308 OFFCURVE",
"58 252 CURVE SMOOTH",
"58 241 OFFCURVE",
"60 231 OFFCURVE",
"65 221 CURVE",
"44 215 OFFCURVE",
"22 211 OFFCURVE",
"0 211 CURVE SMOOTH",
"-6 211 OFFCURVE",
"-8 208 OFFCURVE",
"-8 203 CURVE SMOOTH",
"-8 143 LINE SMOOTH",
"-8 138 OFFCURVE",
"-6 135 OFFCURVE",
"0 135 CURVE SMOOTH",
"42 135 OFFCURVE",
"77 141 OFFCURVE",
"141 165 CURVE",
"194 145 OFFCURVE",
"251 135 OFFCURVE",
"315 135 CURVE"
);
},
{
closed = 1;
nodes = (
"220 213 OFFCURVE",
"154 236 OFFCURVE",
"110 272 CURVE",
"131 316 OFFCURVE",
"196 376 OFFCURVE",
"247 398 CURVE",
"255 321 OFFCURVE",
"280 247 OFFCURVE",
"309 204 CURVE"
);
}
);
width = 413;
},
{
anchors = (
{
name = bottom;
position = "{237, 77}";
},
{
name = top;
position = "{205, 574}";
}
);
layerId = "26E2967D-790C-4793-AF2A-2D0AD74EDC69";
paths = (
{
closed = 1;
nodes = (
"329 182 LINE",
"355 157 OFFCURVE",
"385 144 OFFCURVE",
"419 144 CURVE SMOOTH",
"426 144 OFFCURVE",
"430 147 OFFCURVE",
"430 155 CURVE SMOOTH",
"430 253 LINE SMOOTH",
"430 259 OFFCURVE",
"426 262 OFFCURVE",
"419 262 CURVE SMOOTH",
"402 262 OFFCURVE",
"388 270 OFFCURVE",
"374 285 CURVE SMOOTH",
"356 304 OFFCURVE",
"340 336 OFFCURVE",
"324 382 CURVE SMOOTH",
"308 426 OFFCURVE",
"294 457 OFFCURVE",
"283 475 CURVE SMOOTH",
"271 492 OFFCURVE",
"258 501 OFFCURVE",
"245 501 CURVE SMOOTH",
"216 501 OFFCURVE",
"187 490 OFFCURVE",
"159 468 CURVE SMOOTH",
"105 427 OFFCURVE",
"62 349 OFFCURVE",
"53 279 CURVE SMOOTH",
"53 275 OFFCURVE",
"52 272 OFFCURVE",
"52 269 CURVE",
"33 264 OFFCURVE",
"18 262 OFFCURVE",
"0 262 CURVE SMOOTH",
"-6 262 OFFCURVE",
"-8 260 OFFCURVE",
"-8 254 CURVE SMOOTH",
"-8 152 LINE SMOOTH",
"-8 147 OFFCURVE",
"-6 144 OFFCURVE",
"0 144 CURVE SMOOTH",
"39 144 OFFCURVE",
"70 152 OFFCURVE",
"107 177 CURVE",
"153 152 OFFCURVE",
"230 135 OFFCURVE",
"315 135 CURVE"
);
},
{
closed = 1;
nodes = (
"204 256 OFFCURVE",
"146 274 OFFCURVE",
"109 304 CURVE",
"139 342 OFFCURVE",
"184 372 OFFCURVE",
"242 395 CURVE",
"248 339 OFFCURVE",
"262 290 OFFCURVE",
"284 246 CURVE"
);
}
);
width = 413;
}
);
unicode = FEE4;
},
{
glyphname = uniFEE3;
lastChange = "2019-12-19 08:47:14 +0000";
layers = (
{
anchors = (
{
name = bottom;
position = "{231, 73}";
},
{
name = top;
position = "{247, 524}";
}
);
layerId = master01;
paths = (
{
closed = 1;
nodes = (
"396 166 OFFCURVE",
"409 198 OFFCURVE",
"409 239 CURVE SMOOTH",
"409 274 OFFCURVE",
"403 310 OFFCURVE",
"391 347 CURVE SMOOTH",
"367 422 OFFCURVE",
"325 475 OFFCURVE",
"286 475 CURVE SMOOTH",
"247 475 OFFCURVE",
"213 457 OFFCURVE",
"180 413 CURVE SMOOTH",
"152 376 OFFCURVE",
"145 350 OFFCURVE",
"109 285 CURVE SMOOTH",
"83 236 OFFCURVE",
"51 211 OFFCURVE",
"0 211 CURVE SMOOTH",
"-6 211 OFFCURVE",
"-8 208 OFFCURVE",
"-8 203 CURVE SMOOTH",
"-8 143 LINE SMOOTH",
"-8 138 OFFCURVE",
"-6 135 OFFCURVE",
"0 135 CURVE SMOOTH",
"51 135 OFFCURVE",
"86 152 OFFCURVE",
"117 195 CURVE",
"178 159 OFFCURVE",
"278 135 OFFCURVE",
"358 135 CURVE"
);
},
{
closed = 1;
nodes = (
"263 219 OFFCURVE",
"203 236 OFFCURVE",
"156 261 CURVE",
"175 299 OFFCURVE",
"190 325 OFFCURVE",
"201 341 CURVE SMOOTH",
"223 372 OFFCURVE",
"245 386 OFFCURVE",
"270 386 CURVE SMOOTH",
"277 386 OFFCURVE",
"286 380 OFFCURVE",
"293 369 CURVE SMOOTH",
"314 338 OFFCURVE",
"334 272 OFFCURVE",
"336 211 CURVE"
);
}
);
width = 456;
},
{
anchors = (
{
name = bottom;
position = "{261, 77}";
},
{
name = top;
position = "{247, 574}";
}
);
layerId = "26E2967D-790C-4793-AF2A-2D0AD74EDC69";
paths = (
{
closed = 1;
nodes = (
"397 160 OFFCURVE",
"426 213 OFFCURVE",
"426 248 CURVE SMOOTH",
"426 284 OFFCURVE",
"419 323 OFFCURVE",
"404 364 CURVE SMOOTH",
"375 446 OFFCURVE",
"325 501 OFFCURVE",
"277 501 CURVE SMOOTH",
"238 501 OFFCURVE",
"212 483 OFFCURVE",
"179 438 CURVE SMOOTH",
"164 418 OFFCURVE",
"145 384 OFFCURVE",
"121 336 CURVE SMOOTH",
"95 287 OFFCURVE",
"55 262 OFFCURVE",
"0 262 CURVE SMOOTH",
"-6 262 OFFCURVE",
"-8 260 OFFCURVE",
"-8 254 CURVE SMOOTH",
"-8 152 LINE SMOOTH",
"-8 147 OFFCURVE",
"-6 144 OFFCURVE",
"0 144 CURVE SMOOTH",
"53 144 OFFCURVE",
"86 157 OFFCURVE",
"118 191 CURVE",
"181 158 OFFCURVE",
"278 135 OFFCURVE",
"367 135 CURVE"
);
},
{
closed = 1;
nodes = (
"270 252 OFFCURVE",
"217 266 OFFCURVE",
"175 285 CURVE",
"196 326 OFFCURVE",
"212 353 OFFCURVE",
"223 365 CURVE SMOOTH",
"234 377 OFFCURVE",
"247 383 OFFCURVE",
"262 383 CURVE SMOOTH",
"271 383 OFFCURVE",
"280 377 OFFCURVE",
"291 364 CURVE SMOOTH",
"311 339 OFFCURVE",
"329 294 OFFCURVE",
"334 245 CURVE"
);
}
);
width = 473;
}
);
unicode = FEE3;
},
{
glyphname = uni06BA;
lastChange = "2019-12-19 13:32:13 +0000";
layers = (
{
anchors = (
{
name = bottom;
position = "{30, -123}";
},
{
name = top;
position = "{263, 361}";
}
);
layerId = master01;
paths = (
{
closed = 1;
nodes = (
"297 -127 OFFCURVE",
"344 -115 OFFCURVE",
"389 -91 CURVE SMOOTH",
"480 -44 OFFCURVE",
"535 36 OFFCURVE",
"535 118 CURVE SMOOTH",
"535 146 OFFCURVE",
"530 184 OFFCURVE",
"521 232 CURVE SMOOTH",
"509 295 OFFCURVE",
"501 338 OFFCURVE",
"498 361 CURVE",
"450 332 OFFCURVE",
"433 306 OFFCURVE",
"433 272 CURVE SMOOTH",
"433 240 OFFCURVE",
"454 176 OFFCURVE",
"498 81 CURVE",
"465 10 OFFCURVE",
"350 -44 OFFCURVE",
"251 -44 CURVE SMOOTH",
"164 -44 OFFCURVE",
"113 13 OFFCURVE",
"113 111 CURVE SMOOTH",
"113 129 OFFCURVE",
"117 153 OFFCURVE",
"124 182 CURVE",
"87 191 LINE",
"71 125 OFFCURVE",
"68 100 OFFCURVE",
"68 61 CURVE SMOOTH",
"68 -59 OFFCURVE",
"135 -127 OFFCURVE",
"249 -127 CURVE SMOOTH"
);
}
);
width = 586;
},
{
anchors = (
{
name = bottom;
position = "{30, -123}";
},
{
name = top;
position = "{272, 405}";
}
);
layerId = "26E2967D-790C-4793-AF2A-2D0AD74EDC69";
paths = (
{
closed = 1;
nodes = (
"306 -117 OFFCURVE",
"357 -107 OFFCURVE",
"403 -85 CURVE SMOOTH",
"495 -42 OFFCURVE",
"552 39 OFFCURVE",
"552 128 CURVE SMOOTH",
"552 164 OFFCURVE",
"545 210 OFFCURVE",
"537 258 CURVE SMOOTH",
"531 298 OFFCURVE",
"518 365 OFFCURVE",
"513 405 CURVE",
"444 371 OFFCURVE",
"412 329 OFFCURVE",
"412 273 CURVE SMOOTH",
"412 246 OFFCURVE",
"451 178 OFFCURVE",
"497 90 CURVE",
"426 26 OFFCURVE",
"359 1 OFFCURVE",
"254 1 CURVE SMOOTH",
"165 1 OFFCURVE",
"123 47 OFFCURVE",
"123 142 CURVE SMOOTH",
"123 165 OFFCURVE",
"128 192 OFFCURVE",
"137 222 CURVE",
"93 233 LINE",
"76 170 OFFCURVE",
"68 122 OFFCURVE",
"68 88 CURVE SMOOTH",
"68 -45 OFFCURVE",
"132 -117 OFFCURVE",
"251 -117 CURVE SMOOTH"
);
}
);
width = 604;
}
);
unicode = "06BA,FB9E";
},
{
glyphname = uniFB9F;
lastChange = "2019-12-19 13:47:35 +0000";
layers = (
{
anchors = (
{
name = bottom;
position = "{20, -123}";
},
{
name = top;
position = "{264, 337}";
}
);
layerId = master01;
paths = (
{
closed = 1;
nodes = (
"297 -127 OFFCURVE",
"344 -115 OFFCURVE",
"389 -91 CURVE SMOOTH",
"480 -44 OFFCURVE",
"535 36 OFFCURVE",
"535 118 CURVE SMOOTH",
"534 147 LINE",
"552 139 OFFCURVE",
"572 135 OFFCURVE",
"594 135 CURVE SMOOTH",
"600 135 OFFCURVE",
"603 138 OFFCURVE",
"603 143 CURVE SMOOTH",
"603 203 LINE SMOOTH",
"603 208 OFFCURVE",
"600 211 OFFCURVE",
"594 211 CURVE SMOOTH",
"568 211 OFFCURVE",
"544 217 OFFCURVE",
"521 228 CURVE",
"508 296 OFFCURVE",
"500 340 OFFCURVE",
"498 361 CURVE",
"450 332 OFFCURVE",
"433 306 OFFCURVE",
"433 272 CURVE SMOOTH",
"433 240 OFFCURVE",
"454 176 OFFCURVE",
"498 81 CURVE",
"465 10 OFFCURVE",
"350 -44 OFFCURVE",
"251 -44 CURVE SMOOTH",
"164 -44 OFFCURVE",
"113 13 OFFCURVE",
"113 111 CURVE SMOOTH",
"113 129 OFFCURVE",
"117 153 OFFCURVE",
"124 182 CURVE",
"87 191 LINE",
"71 125 OFFCURVE",
"68 100 OFFCURVE",
"68 61 CURVE SMOOTH",
"68 -59 OFFCURVE",
"135 -127 OFFCURVE",
"249 -127 CURVE SMOOTH"
);
}
);
width = 585;
},
{
anchors = (
{
name = bottom;
position = "{20, -123}";
},
{
name = top;
position = "{272, 405}";
}
);
layerId = "26E2967D-790C-4793-AF2A-2D0AD74EDC69";
paths = (
{
closed = 1;
nodes = (
"306 -117 OFFCURVE",
"357 -107 OFFCURVE",
"403 -85 CURVE SMOOTH",
"495 -42 OFFCURVE",
"552 39 OFFCURVE",
"552 128 CURVE SMOOTH",
"551 155 LINE",
"569 147 OFFCURVE",
"588 144 OFFCURVE",
"607 144 CURVE SMOOTH",
"613 144 OFFCURVE",
"616 147 OFFCURVE",
"616 152 CURVE SMOOTH",
"616 254 LINE SMOOTH",
"616 260 OFFCURVE",
"613 262 OFFCURVE",
"607 262 CURVE SMOOTH",
"580 262 OFFCURVE",
"555 268 OFFCURVE",
"533 280 CURVE",
"522 342 OFFCURVE",
"516 383 OFFCURVE",
"513 405 CURVE",
"444 371 OFFCURVE",
"412 329 OFFCURVE",
"412 273 CURVE SMOOTH",
"412 239 OFFCURVE",
"451 174 OFFCURVE",
"497 90 CURVE",
"426 26 OFFCURVE",
"359 1 OFFCURVE",
"254 1 CURVE SMOOTH",
"165 1 OFFCURVE",
"123 47 OFFCURVE",
"123 142 CURVE SMOOTH",
"123 165 OFFCURVE",
"128 192 OFFCURVE",
"137 222 CURVE",
"93 233 LINE",
"76 170 OFFCURVE",
"68 122 OFFCURVE",
"68 88 CURVE SMOOTH",
"68 -45 OFFCURVE",
"132 -117 OFFCURVE",
"251 -117 CURVE SMOOTH"
);
}
);
width = 599;
}
);
unicode = FB9F;
},
{
glyphname = uni0647;
lastChange = "2019-12-19 12:12:13 +0000";
layers = (
{
anchors = (
{
name = bottom;
position = "{215, 83}";
},
{
name = top;
position = "{169, 592}";
}
);
layerId = master01;
paths = (
{
closed = 1;
nodes = (
"228 135 OFFCURVE",
"261 144 OFFCURVE",
"289 163 CURVE SMOOTH",
"317 182 OFFCURVE",
"357 271 OFFCURVE",
"357 311 CURVE SMOOTH",
"357 338 OFFCURVE",
"347 369 OFFCURVE",
"328 402 CURVE SMOOTH",
"289 470 OFFCURVE",
"228 522 OFFCURVE",
"168 543 CURVE",
"153 537 OFFCURVE",
"142 516 OFFCURVE",
"142 495 CURVE SMOOTH",
"142 480 OFFCURVE",
"146 463 OFFCURVE",
"167 451 CURVE",
"98 386 OFFCURVE",
"68 323 OFFCURVE",
"68 261 CURVE SMOOTH",
"68 181 OFFCURVE",
"116 135 OFFCURVE",
"190 135 CURVE SMOOTH"
);
},
{
closed = 1;
nodes = (
"146 215 OFFCURVE",
"114 243 OFFCURVE",
"114 290 CURVE SMOOTH",
"114 329 OFFCURVE",
"145 383 OFFCURVE",
"195 429 CURVE",
"256 382 OFFCURVE",
"294 325 OFFCURVE",
"308 259 CURVE",
"286 239 OFFCURVE",
"237 215 OFFCURVE",
"201 215 CURVE SMOOTH"
);
}
);
width = 408;
},
{
anchors = (
{
name = bottom;
position = "{215, 77}";
},
{
name = top;
position = "{169, 603}";
}
);
layerId = "26E2967D-790C-4793-AF2A-2D0AD74EDC69";
paths = (
{
closed = 1;
nodes = (
"239 135 OFFCURVE",
"278 146 OFFCURVE",
"303 163 CURVE SMOOTH",
"332 181 OFFCURVE",
"374 282 OFFCURVE",
"374 320 CURVE SMOOTH",
"374 350 OFFCURVE",
"365 381 OFFCURVE",
"346 416 CURVE SMOOTH",
"308 484 OFFCURVE",
"239 541 OFFCURVE",
"163 565 CURVE",
"144 555 OFFCURVE",
"132 527 OFFCURVE",
"132 499 CURVE SMOOTH",
"132 479 OFFCURVE",
"137 458 OFFCURVE",
"159 445 CURVE",
"95 381 OFFCURVE",
"68 325 OFFCURVE",
"68 270 CURVE SMOOTH",
"68 192 OFFCURVE",
"123 135 OFFCURVE",
"199 135 CURVE SMOOTH"
);
},
{
closed = 1;
nodes = (
"172 240 OFFCURVE",
"143 266 OFFCURVE",
"143 303 CURVE SMOOTH",
"143 339 OFFCURVE",
"162 376 OFFCURVE",
"201 414 CURVE",
"256 373 OFFCURVE",
"289 327 OFFCURVE",
"309 268 CURVE",
"280 250 OFFCURVE",
"247 240 OFFCURVE",
"210 240 CURVE SMOOTH"
);
}
);
width = 425;
}
);
unicode = "0647,FEE9";
},
{
glyphname = uniFEEA;
lastChange = "2019-12-19 12:11:23 +0000";
layers = (
{
anchors = (
{
name = bottom;
position = "{286, 73}";
},
{
name = top;
position = "{231, 581}";
}
);
layerId = master01;
paths = (
{
closed = 1;
nodes = (
"466 135 OFFCURVE",
"469 138 OFFCURVE",
"469 143 CURVE SMOOTH",
"469 203 LINE SMOOTH",
"469 208 OFFCURVE",
"466 211 OFFCURVE",
"460 211 CURVE SMOOTH",
"421 211 OFFCURVE",
"387 220 OFFCURVE",
"356 238 CURVE",
"354 346 OFFCURVE",
"350 454 OFFCURVE",
"347 562 CURVE",
"322 548 OFFCURVE",
"298 531 OFFCURVE",
"274 510 CURVE",
"278 483 LINE",
"221 460 OFFCURVE",
"163 423 OFFCURVE",
"129 390 CURVE SMOOTH",
"118 379 OFFCURVE",
"109 368 OFFCURVE",
"104 359 CURVE SMOOTH",
"92 339 OFFCURVE",
"68 284 OFFCURVE",
"68 266 CURVE SMOOTH",
"68 241 OFFCURVE",
"125 211 OFFCURVE",
"161 197 CURVE SMOOTH",
"191 185 OFFCURVE",
"206 181 OFFCURVE",
"279 174 CURVE",
"315 243 LINE",
"319 222 LINE SMOOTH",
"327 167 OFFCURVE",
"380 135 OFFCURVE",
"460 135 CURVE SMOOTH"
);
},
{
closed = 1;
nodes = (
"289 256 OFFCURVE",
"265 257 OFFCURVE",
"242 260 CURVE SMOOTH",
"195 267 OFFCURVE",
"153 281 OFFCURVE",
"117 313 CURVE",
"151 356 OFFCURVE",
"207 391 OFFCURVE",
"287 418 CURVE",
"296 363 OFFCURVE",
"305 307 OFFCURVE",
"313 255 CURVE"
);
}
);
width = 452;
},
{
anchors = (
{
name = bottom;
position = "{305, 77}";
},
{
name = top;
position = "{231, 658}";
}
);
layerId = "26E2967D-790C-4793-AF2A-2D0AD74EDC69";
paths = (
{
closed = 1;
nodes = (
"480 144 OFFCURVE",
"483 147 OFFCURVE",
"483 152 CURVE SMOOTH",
"483 254 LINE SMOOTH",
"483 260 OFFCURVE",
"480 262 OFFCURVE",
"475 262 CURVE SMOOTH",
"436 262 OFFCURVE",
"400 271 OFFCURVE",
"368 289 CURVE",
"368 401 OFFCURVE",
"368 513 OFFCURVE",
"368 625 CURVE",
"334 604 OFFCURVE",
"315 592 OFFCURVE",
"264 552 CURVE",
"269 512 LINE",
"235 497 OFFCURVE",
"181 462 OFFCURVE",
"144 429 CURVE SMOOTH",
"125 413 OFFCURVE",
"112 398 OFFCURVE",
"106 385 CURVE SMOOTH",
"92 360 OFFCURVE",
"68 289 OFFCURVE",
"68 274 CURVE SMOOTH",
"68 251 OFFCURVE",
"127 210 OFFCURVE",
"177 192 CURVE SMOOTH",
"208 181 OFFCURVE",
"242 177 OFFCURVE",
"284 173 CURVE",
"324 255 LINE",
"333 218 LINE SMOOTH",
"342 171 OFFCURVE",
"394 144 OFFCURVE",
"475 144 CURVE SMOOTH"
);
},
{
closed = 1;
nodes = (
"292 293 OFFCURVE",
"273 295 OFFCURVE",
"255 298 CURVE SMOOTH",
"220 303 OFFCURVE",
"181 312 OFFCURVE",
"139 341 CURVE",
"174 374 OFFCURVE",
"222 401 OFFCURVE",
"285 422 CURVE",
"297 367 OFFCURVE",
"306 324 OFFCURVE",
"314 292 CURVE"
);
}
);
width = 466;
}
);
unicode = FEEA;
},
{
glyphname = uniFEEC;
lastChange = "2019-12-19 12:11:57 +0000";
layers = (
{
anchors = (
{
name = bottom;
position = "{253, -98}";
},
{
name = top;
position = "{229, 591}";
}
);
layerId = master01;
paths = (
{
closed = 1;
nodes = (
"288 -69 OFFCURVE",
"322 -56 OFFCURVE",
"339 -38 CURVE",
"348 -26 OFFCURVE",
"374 38 OFFCURVE",
"374 57 CURVE SMOOTH",
"374 83 OFFCURVE",
"349 114 OFFCURVE",
"317 128 CURVE",
"338 133 OFFCURVE",
"361 135 OFFCURVE",
"387 135 CURVE SMOOTH",
"394 135 OFFCURVE",
"398 139 OFFCURVE",
"398 146 CURVE SMOOTH",
"398 201 LINE SMOOTH",
"398 208 OFFCURVE",
"394 211 OFFCURVE",
"387 211 CURVE SMOOTH",
"333 211 OFFCURVE",
"292 209 OFFCURVE",
"237 204 CURVE",
"280 229 OFFCURVE",
"319 276 OFFCURVE",
"319 335 CURVE SMOOTH",
"319 354 OFFCURVE",
"315 385 OFFCURVE",
"306 430 CURVE SMOOTH",
"297 479 OFFCURVE",
"291 518 OFFCURVE",
"289 548 CURVE",
"253 558 LINE",
"142 453 OFFCURVE",
"79 338 OFFCURVE",
"65 214 CURVE",
"43 213 OFFCURVE",
"22 212 OFFCURVE",
"0 211 CURVE SMOOTH",
"-6 211 OFFCURVE",
"-8 208 OFFCURVE",
"-8 203 CURVE SMOOTH",
"-8 143 LINE SMOOTH",
"-8 138 OFFCURVE",
"-6 135 OFFCURVE",
"0 135 CURVE SMOOTH",
"18 136 LINE",
"28 92 LINE",
"66 108 LINE",
"84 -5 OFFCURVE",
"152 -69 OFFCURVE",
"255 -69 CURVE SMOOTH"
);
},
{
closed = 1;
nodes = (
"200 1 OFFCURVE",
"153 43 OFFCURVE",
"132 129 CURVE",
"152 133 OFFCURVE",
"165 135 OFFCURVE",
"171 135 CURVE SMOOTH",
"243 135 OFFCURVE",
"313 86 OFFCURVE",
"330 28 CURVE",
"315 11 OFFCURVE",
"286 1 OFFCURVE",
"264 1 CURVE SMOOTH"
);
},
{
closed = 1;
nodes = (
"131 285 OFFCURVE",
"157 354 OFFCURVE",
"230 458 CURVE",
"233 429 OFFCURVE",
"240 383 OFFCURVE",
"253 320 CURVE SMOOTH",
"261 269 LINE",
"223 237 OFFCURVE",
"174 215 OFFCURVE",
"126 210 CURVE"
);
}
);
width = 381;
},
{
anchors = (
{
name = bottom;
position = "{263, -89}";
},
{
name = top;
position = "{229, 622}";
}
);
layerId = "26E2967D-790C-4793-AF2A-2D0AD74EDC69";
paths = (
{
closed = 1;
nodes = (
"307 -60 OFFCURVE",
"337 -45 OFFCURVE",
"351 -29 CURVE SMOOTH",
"360 -17 OFFCURVE",
"385 47 OFFCURVE",
"385 66 CURVE SMOOTH",
"385 94 OFFCURVE",
"362 124 OFFCURVE",
"333 138 CURVE",
"357 142 OFFCURVE",
"381 144 OFFCURVE",
"404 144 CURVE SMOOTH",
"411 144 OFFCURVE",
"415 147 OFFCURVE",
"415 155 CURVE SMOOTH",
"415 253 LINE SMOOTH",
"415 259 OFFCURVE",
"411 262 OFFCURVE",
"404 262 CURVE SMOOTH",
"376 262 OFFCURVE",
"353 262 OFFCURVE",
"289 249 CURVE",
"320 278 OFFCURVE",
"336 309 OFFCURVE",
"336 343 CURVE SMOOTH",
"336 363 OFFCURVE",
"332 397 OFFCURVE",
"323 447 CURVE SMOOTH",
"313 505 OFFCURVE",
"307 547 OFFCURVE",
"305 574 CURVE",
"261 584 LINE",
"161 489 OFFCURVE",
"98 383 OFFCURVE",
"72 265 CURVE",
"50 263 OFFCURVE",
"26 262 OFFCURVE",
"0 262 CURVE SMOOTH",
"-6 262 OFFCURVE",
"-8 260 OFFCURVE",
"-8 254 CURVE SMOOTH",
"-8 152 LINE SMOOTH",
"-8 147 OFFCURVE",
"-6 144 OFFCURVE",
"0 144 CURVE",
"26 146 LINE",
"37 101 LINE",
"67 115 LINE",
"85 6 OFFCURVE",
"158 -60 OFFCURVE",
"264 -60 CURVE SMOOTH"
);
},
{
closed = 1;
nodes = (
"203 35 OFFCURVE",
"161 70 OFFCURVE",
"148 140 CURVE",
"159 143 OFFCURVE",
"167 144 OFFCURVE",
"171 144 CURVE SMOOTH",
"231 144 OFFCURVE",
"290 111 OFFCURVE",
"330 53 CURVE",
"309 40 OFFCURVE",
"295 35 OFFCURVE",
"272 35 CURVE SMOOTH"
);
},
{
closed = 1;
nodes = (
"151 308 OFFCURVE",
"173 365 OFFCURVE",
"231 447 CURVE",
"235 422 OFFCURVE",
"246 387 OFFCURVE",
"262 342 CURVE SMOOTH",
"275 303 LINE",
"242 277 OFFCURVE",
"200 261 OFFCURVE",
"146 253 CURVE"
);
}
);
width = 397;
}
);
unicode = FEEC;
},
{
glyphname = uniFEEB;
lastChange = "2019-12-19 08:47:14 +0000";
layers = (
{
anchors = (
{
name = bottom;
position = "{224, 64}";
},
{
name = top;
position = "{180, 617}";
}
);
layerId = master01;
paths = (
{
closed = 1;
nodes = (
"436 168 OFFCURVE",
"457 221 OFFCURVE",
"457 251 CURVE SMOOTH",
"457 296 OFFCURVE",
"444 340 OFFCURVE",
"419 383 CURVE SMOOTH",
"370 468 OFFCURVE",
"277 536 OFFCURVE",
"164 568 CURVE",
"141 503 LINE",
"91 478 OFFCURVE",
"53 403 OFFCURVE",
"53 342 CURVE SMOOTH",
"53 300 OFFCURVE",
"74 260 OFFCURVE",
"115 224 CURVE",
"86 215 OFFCURVE",
"47 211 OFFCURVE",
"0 211 CURVE SMOOTH",
"-6 211 OFFCURVE",
"-8 209 OFFCURVE",
"-8 204 CURVE SMOOTH",
"-8 143 LINE SMOOTH",
"-8 138 OFFCURVE",
"-6 135 OFFCURVE",
"0 135 CURVE SMOOTH",
"74 135 OFFCURVE",
"131 148 OFFCURVE",
"184 179 CURVE",
"244 148 OFFCURVE",
"318 127 OFFCURVE",
"405 117 CURVE"
);
},
{
closed = 1;
nodes = (
"153 282 OFFCURVE",
"119 310 OFFCURVE",
"88 343 CURVE",
"94 362 OFFCURVE",
"101 380 OFFCURVE",
"112 395 CURVE SMOOTH",
"133 426 OFFCURVE",
"160 444 OFFCURVE",
"181 444 CURVE SMOOTH",
"210 444 OFFCURVE",
"240 404 OFFCURVE",
"240 366 CURVE SMOOTH",
"240 321 OFFCURVE",
"223 286 OFFCURVE",
"189 260 CURVE"
);
},
{
closed = 1;
nodes = (
"345 198 OFFCURVE",
"293 211 OFFCURVE",
"248 231 CURVE",
"281 269 OFFCURVE",
"298 313 OFFCURVE",
"298 363 CURVE SMOOTH",
"298 390 OFFCURVE",
"291 417 OFFCURVE",
"276 444 CURVE",
"298 425 OFFCURVE",
"319 402 OFFCURVE",
"339 374 CURVE SMOOTH",
"379 317 OFFCURVE",
"403 249 OFFCURVE",
"403 190 CURVE"
);
}
);
width = 508;
},
{
anchors = (
{
name = bottom;
position = "{224, 77}";
},
{
name = top;
position = "{180, 687}";
}
);
layerId = "26E2967D-790C-4793-AF2A-2D0AD74EDC69";
paths = (
{
closed = 1;
nodes = (
"444 177 OFFCURVE",
"465 229 OFFCURVE",
"465 260 CURVE SMOOTH",
"465 309 OFFCURVE",
"451 359 OFFCURVE",
"422 409 CURVE SMOOTH",
"366 510 OFFCURVE",
"264 587 OFFCURVE",
"155 614 CURVE",
"126 510 LINE",
"81 479 OFFCURVE",
"44 405 OFFCURVE",
"44 351 CURVE SMOOTH",
"44 321 OFFCURVE",
"54 292 OFFCURVE",
"75 264 CURVE",
"50 263 OFFCURVE",
"25 263 OFFCURVE",
"0 262 CURVE SMOOTH",
"-6 262 OFFCURVE",
"-8 260 OFFCURVE",
"-8 256 CURVE SMOOTH",
"-8 152 LINE SMOOTH",
"-8 147 OFFCURVE",
"-6 144 OFFCURVE",
"0 144 CURVE SMOOTH",
"69 144 OFFCURVE",
"127 157 OFFCURVE",
"175 183 CURVE",
"238 149 OFFCURVE",
"325 128 OFFCURVE",
"414 126 CURVE"
);
},
{
closed = 1;
nodes = (
"150 304 OFFCURVE",
"120 325 OFFCURVE",
"95 352 CURVE",
"102 368 OFFCURVE",
"109 383 OFFCURVE",
"116 394 CURVE SMOOTH",
"134 422 OFFCURVE",
"154 436 OFFCURVE",
"179 436 CURVE SMOOTH",
"203 436 OFFCURVE",
"229 407 OFFCURVE",
"229 375 CURVE SMOOTH",
"229 336 OFFCURVE",
"210 301 OFFCURVE",
"183 288 CURVE"
);
},
{
closed = 1;
nodes = (
"347 243 OFFCURVE",
"298 251 OFFCURVE",
"263 260 CURVE",
"284 292 OFFCURVE",
"294 329 OFFCURVE",
"294 372 CURVE SMOOTH",
"294 392 OFFCURVE",
"291 412 OFFCURVE",
"284 430 CURVE",
"303 415 OFFCURVE",
"320 398 OFFCURVE",
"335 377 CURVE SMOOTH",
"363 341 OFFCURVE",
"386 295 OFFCURVE",
"409 235 CURVE"
);
}
);
width = 516;
}
);
unicode = FEEB;
},
{
glyphname = uniFBA7;
lastChange = "2019-12-19 08:47:14 +0000";
layers = (
{
anchors = (
{
name = bottom;
position = "{284, 83}";
},
{
name = top;
position = "{229, 371}";
}
);
layerId = master01;
paths = (
{
closed = 1;
nodes = (
"125 173 OFFCURVE",
"151 200 OFFCURVE",
"173 217 CURVE SMOOTH",
"195 234 OFFCURVE",
"214 242 OFFCURVE",
"230 242 CURVE SMOOTH",
"243 242 OFFCURVE",
"257 233 OFFCURVE",
"274 215 CURVE SMOOTH",
"297 190 OFFCURVE",
"314 173 OFFCURVE",
"327 164 CURVE SMOOTH",
"353 147 OFFCURVE",
"385 135 OFFCURVE",
"431 135 CURVE SMOOTH",
"438 135 OFFCURVE",
"442 139 OFFCURVE",
"442 146 CURVE SMOOTH",
"442 201 LINE SMOOTH",
"442 208 OFFCURVE",
"438 211 OFFCURVE",
"431 211 CURVE SMOOTH",
"400 211 OFFCURVE",
"370 230 OFFCURVE",
"342 267 CURVE SMOOTH",
"312 305 OFFCURVE",
"290 322 OFFCURVE",
"264 322 CURVE SMOOTH",
"239 322 OFFCURVE",
"212 311 OFFCURVE",
"183 289 CURVE SMOOTH",
"147 262 OFFCURVE",
"109 218 OFFCURVE",
"68 158 CURVE",
"94 135 LINE"
);
}
);
width = 425;
},
{
anchors = (
{
name = bottom;
position = "{284, 77}";
},
{
name = top;
position = "{229, 447}";
}
);
layerId = "26E2967D-790C-4793-AF2A-2D0AD74EDC69";
paths = (
{
closed = 1;
nodes = (
"122 171 OFFCURVE",
"142 192 OFFCURVE",
"161 208 CURVE SMOOTH",
"188 230 OFFCURVE",
"213 242 OFFCURVE",
"236 242 CURVE SMOOTH",
"244 242 OFFCURVE",
"251 240 OFFCURVE",
"258 235 CURVE SMOOTH",
"264 231 OFFCURVE",
"280 217 OFFCURVE",
"304 193 CURVE SMOOTH",
"336 161 OFFCURVE",
"382 144 OFFCURVE",
"437 144 CURVE SMOOTH",
"444 144 OFFCURVE",
"448 147 OFFCURVE",
"448 155 CURVE SMOOTH",
"448 253 LINE SMOOTH",
"448 259 OFFCURVE",
"444 262 OFFCURVE",
"437 262 CURVE SMOOTH",
"406 262 OFFCURVE",
"378 280 OFFCURVE",
"348 319 CURVE SMOOTH",
"316 358 OFFCURVE",
"296 374 OFFCURVE",
"270 374 CURVE SMOOTH",
"243 374 OFFCURVE",
"212 357 OFFCURVE",
"178 322 CURVE SMOOTH",
"144 288 OFFCURVE",
"107 237 OFFCURVE",
"68 171 CURVE",
"101 144 LINE"
);
}
);
width = 431;
}
);
unicode = FBA7;
},
{
glyphname = uniFBA9;
lastChange = "2019-12-19 08:47:14 +0000";
layers = (
{
anchors = (
{
name = bottom;
position = "{145, -133}";
},
{
name = top;
position = "{231, 319}";
}
);
layerId = master01;
paths = (
{
closed = 1;
nodes = (
"263 -38 LINE",
"263 23 OFFCURVE",
"265 78 OFFCURVE",
"285 121 CURVE",
"306 130 OFFCURVE",
"345 135 OFFCURVE",
"401 135 CURVE SMOOTH",
"409 135 OFFCURVE",
"412 139 OFFCURVE",
"412 146 CURVE SMOOTH",
"412 201 LINE SMOOTH",
"412 208 OFFCURVE",
"409 211 OFFCURVE",
"401 211 CURVE SMOOTH",
"370 211 OFFCURVE",
"341 205 OFFCURVE",
"317 193 CURVE SMOOTH",
"263 166 OFFCURVE",
"228 111 OFFCURVE",
"213 37 CURVE SMOOTH",
"208 7 LINE",
"155 63 OFFCURVE",
"126 130 OFFCURVE",
"126 194 CURVE SMOOTH",
"126 214 OFFCURVE",
"130 234 OFFCURVE",
"137 252 CURVE",
"128 264 OFFCURVE",
"117 270 OFFCURVE",
"105 270 CURVE SMOOTH",
"89 270 OFFCURVE",
"76 259 OFFCURVE",
"66 238 CURVE SMOOTH",
"58 219 OFFCURVE",
"46 211 OFFCURVE",
"0 211 CURVE SMOOTH",
"-6 211 OFFCURVE",
"-8 208 OFFCURVE",
"-8 203 CURVE SMOOTH",
"-8 143 LINE SMOOTH",
"-8 138 OFFCURVE",
"-6 135 OFFCURVE",
"0 135 CURVE SMOOTH",
"14 135 OFFCURVE",
"40 142 OFFCURVE",
"56 150 CURVE",
"63 60 OFFCURVE",
"112 -23 OFFCURVE",
"192 -84 CURVE"
);
}
);
width = 395;
},
{
anchors = (
{
name = bottom;
position = "{135, -122}";
},
{
name = top;
position = "{256, 426}";
}
);
layerId = "26E2967D-790C-4793-AF2A-2D0AD74EDC69";
paths = (
{
closed = 1;
nodes = (
"277 -29 LINE",
"277 43 OFFCURVE",
"282 76 OFFCURVE",
"296 128 CURVE",
"321 138 OFFCURVE",
"361 144 OFFCURVE",
"418 144 CURVE SMOOTH",
"426 144 OFFCURVE",
"429 147 OFFCURVE",
"429 155 CURVE SMOOTH",
"429 253 LINE SMOOTH",
"429 259 OFFCURVE",
"426 262 OFFCURVE",
"418 262 CURVE SMOOTH",
"376 262 OFFCURVE",
"342 253 OFFCURVE",
"315 233 CURVE SMOOTH",
"267 198 OFFCURVE",
"237 133 OFFCURVE",
"223 57 CURVE SMOOTH",
"218 27 LINE",
"173 92 OFFCURVE",
"156 142 OFFCURVE",
"156 211 CURVE SMOOTH",
"156 245 OFFCURVE",
"161 287 OFFCURVE",
"171 335 CURVE",
"158 346 OFFCURVE",
"144 352 OFFCURVE",
"129 352 CURVE SMOOTH",
"103 352 OFFCURVE",
"79 333 OFFCURVE",
"68 306 CURVE SMOOTH",
"57 279 OFFCURVE",
"29 262 OFFCURVE",
"0 262 CURVE SMOOTH",
"-6 262 OFFCURVE",
"-8 260 OFFCURVE",
"-8 254 CURVE SMOOTH",
"-8 152 LINE SMOOTH",
"-8 147 OFFCURVE",
"-6 144 OFFCURVE",
"0 144 CURVE SMOOTH",
"21 144 OFFCURVE",
"39 147 OFFCURVE",
"55 155 CURVE",
"58 71 OFFCURVE",
"120 -29 OFFCURVE",
"195 -83 CURVE"
);
}
);
width = 412;
}
);
unicode = FBA9;
},
{
glyphname = uniFBA8;
lastChange = "2019-12-19 12:13:26 +0000";
layers = (
{
anchors = (
{
name = bottom;
position = "{154, -126}";
},
{
name = top;
position = "{124, 548}";
}
);
layerId = master01;
paths = (
{
closed = 1;
nodes = (
"65 135 OFFCURVE",
"128 153 OFFCURVE",
"189 190 CURVE",
"212 232 OFFCURVE",
"225 272 OFFCURVE",
"225 292 CURVE SMOOTH",
"225 316 OFFCURVE",
"220 350 OFFCURVE",
"210 394 CURVE SMOOTH",
"198 452 OFFCURVE",
"190 490 OFFCURVE",
"187 509 CURVE",
"147 487 OFFCURVE",
"122 454 OFFCURVE",
"122 425 CURVE SMOOTH",
"122 414 OFFCURVE",
"128 392 OFFCURVE",
"141 358 CURVE SMOOTH",
"156 315 OFFCURVE",
"168 279 OFFCURVE",
"177 248 CURVE",
"129 226 OFFCURVE",
"61 211 OFFCURVE",
"0 211 CURVE SMOOTH",
"-6 211 OFFCURVE",
"-8 208 OFFCURVE",
"-8 203 CURVE SMOOTH",
"-8 143 LINE SMOOTH",
"-8 138 OFFCURVE",
"-6 135 OFFCURVE",
"0 135 CURVE SMOOTH"
);
},
{
closed = 1;
nodes = (
"142 -77 OFFCURVE",
"168 -50 OFFCURVE",
"180 -26 CURVE",
"151 -17 OFFCURVE",
"139 -6 OFFCURVE",
"139 12 CURVE SMOOTH",
"139 36 OFFCURVE",
"149 63 OFFCURVE",
"171 93 CURVE",
"144 110 LINE",
"104 58 OFFCURVE",
"84 12 OFFCURVE",
"84 -28 CURVE SMOOTH",
"84 -53 OFFCURVE",
"103 -74 OFFCURVE",
"130 -77 CURVE"
);
}
);
width = 275;
},
{
anchors = (
{
name = bottom;
position = "{188, -126}";
},
{
name = top;
position = "{124, 605}";
}
);
layerId = "26E2967D-790C-4793-AF2A-2D0AD74EDC69";
paths = (
{
closed = 1;
nodes = (
"71 144 OFFCURVE",
"137 162 OFFCURVE",
"198 199 CURVE",
"219 241 OFFCURVE",
"237 289 OFFCURVE",
"237 320 CURVE SMOOTH",
"237 341 OFFCURVE",
"227 397 OFFCURVE",
"208 487 CURVE SMOOTH",
"204 509 OFFCURVE",
"200 530 OFFCURVE",
"195 552 CURVE",
"146 527 OFFCURVE",
"104 483 OFFCURVE",
"104 450 CURVE SMOOTH",
"104 433 OFFCURVE",
"114 412 OFFCURVE",
"128 387 CURVE SMOOTH",
"140 365 OFFCURVE",
"164 322 OFFCURVE",
"178 291 CURVE",
"141 274 OFFCURVE",
"66 262 OFFCURVE",
"0 262 CURVE SMOOTH",
"-6 262 OFFCURVE",
"-8 260 OFFCURVE",
"-8 254 CURVE SMOOTH",
"-8 152 LINE SMOOTH",
"-8 147 OFFCURVE",
"-6 144 OFFCURVE",
"0 144 CURVE SMOOTH"
);
},
{
closed = 1;
nodes = (
"204 -77 OFFCURVE",
"234 -47 OFFCURVE",
"247 -20 CURVE",
"214 -11 OFFCURVE",
"201 1 OFFCURVE",
"201 22 CURVE SMOOTH",
"201 49 OFFCURVE",
"213 79 OFFCURVE",
"236 112 CURVE",
"206 130 LINE",
"162 73 OFFCURVE",
"140 22 OFFCURVE",
"140 -23 CURVE SMOOTH",
"140 -51 OFFCURVE",
"160 -74 OFFCURVE",
"190 -77 CURVE"
);
}
);
width = 275;
}
);
unicode = FBA8;
},
{
glyphname = uni06BE;
lastChange = "2019-12-19 08:47:14 +0000";
layers = (
{
anchors = (
{
name = bottom;
position = "{320, 68}";
},
{
name = top;
position = "{268, 617}";
}
);
layerId = master01;
paths = (
{
closed = 1;
nodes = (
"563 174 OFFCURVE",
"580 219 OFFCURVE",
"580 251 CURVE SMOOTH",
"580 296 OFFCURVE",
"567 340 OFFCURVE",
"542 383 CURVE SMOOTH",
"492 469 OFFCURVE",
"398 537 OFFCURVE",
"287 568 CURVE",
"264 503 LINE",
"214 478 OFFCURVE",
"176 403 OFFCURVE",
"176 342 CURVE SMOOTH",
"176 299 OFFCURVE",
"196 260 OFFCURVE",
"238 225 CURVE",
"205 216 OFFCURVE",
"171 211 OFFCURVE",
"137 211 CURVE SMOOTH",
"91 211 OFFCURVE",
"54 214 OFFCURVE",
"26 219 CURVE",
"17 185 LINE",
"77 152 OFFCURVE",
"122 135 OFFCURVE",
"151 135 CURVE SMOOTH",
"206 135 OFFCURVE",
"258 150 OFFCURVE",
"307 179 CURVE",
"368 148 OFFCURVE",
"442 127 OFFCURVE",
"529 117 CURVE"
);
},
{
closed = 1;
nodes = (
"274 283 OFFCURVE",
"240 310 OFFCURVE",
"211 343 CURVE",
"217 362 OFFCURVE",
"224 380 OFFCURVE",
"235 395 CURVE SMOOTH",
"256 426 OFFCURVE",
"283 444 OFFCURVE",
"304 444 CURVE SMOOTH",
"333 444 OFFCURVE",
"363 404 OFFCURVE",
"363 366 CURVE SMOOTH",
"363 322 OFFCURVE",
"346 287 OFFCURVE",
"312 260 CURVE"
);
},
{
closed = 1;
nodes = (
"472 197 OFFCURVE",
"420 210 OFFCURVE",
"370 230 CURVE",
"405 269 OFFCURVE",
"422 313 OFFCURVE",
"422 363 CURVE SMOOTH",
"422 391 OFFCURVE",
"415 418 OFFCURVE",
"400 443 CURVE",
"475 379 OFFCURVE",
"526 277 OFFCURVE",
"526 190 CURVE"
);
}
);
width = 631;
},
{
anchors = (
{
name = bottom;
position = "{340, 63}";
},
{
name = top;
position = "{287, 687}";
}
);
layerId = "26E2967D-790C-4793-AF2A-2D0AD74EDC69";
paths = (
{
closed = 1;
nodes = (
"602 183 OFFCURVE",
"619 228 OFFCURVE",
"619 260 CURVE SMOOTH",
"619 309 OFFCURVE",
"604 359 OFFCURVE",
"576 409 CURVE SMOOTH",
"520 510 OFFCURVE",
"417 587 OFFCURVE",
"309 614 CURVE",
"280 510 LINE",
"235 479 OFFCURVE",
"198 404 OFFCURVE",
"198 351 CURVE SMOOTH",
"198 320 OFFCURVE",
"210 289 OFFCURVE",
"233 258 CURVE",
"212 255 OFFCURVE",
"188 254 OFFCURVE",
"164 254 CURVE SMOOTH",
"126 254 OFFCURVE",
"90 258 OFFCURVE",
"54 265 CURVE",
"34 225 LINE",
"68 187 OFFCURVE",
"133 144 OFFCURVE",
"154 144 CURVE SMOOTH",
"223 144 OFFCURVE",
"281 157 OFFCURVE",
"329 183 CURVE",
"392 150 OFFCURVE",
"475 128 OFFCURVE",
"568 126 CURVE"
);
},
{
closed = 1;
nodes = (
"304 304 OFFCURVE",
"274 325 OFFCURVE",
"249 352 CURVE",
"256 371 OFFCURVE",
"264 386 OFFCURVE",
"273 399 CURVE SMOOTH",
"290 424 OFFCURVE",
"310 436 OFFCURVE",
"333 436 CURVE SMOOTH",
"356 436 OFFCURVE",
"383 407 OFFCURVE",
"383 375 CURVE SMOOTH",
"383 338 OFFCURVE",
"363 301 OFFCURVE",
"337 288 CURVE"
);
},
{
closed = 1;
nodes = (
"500 243 OFFCURVE",
"451 251 OFFCURVE",
"417 260 CURVE",
"437 292 OFFCURVE",
"448 329 OFFCURVE",
"448 372 CURVE SMOOTH",
"448 393 OFFCURVE",
"444 412 OFFCURVE",
"437 431 CURVE",
"490 388 OFFCURVE",
"528 328 OFFCURVE",
"563 235 CURVE"
);
}
);
width = 670;
}
);
unicode = "06BE,FBAA";
},
